<svg height="100" width="1500">
  <rect x="0" y="0" width="100" height="50" style="fill:white;stroke:black;" />
  <text x="50" y="20" font-size="12px" fill="black" text-anchor="middle">Preamble &amp;
    <tspan x="50" y="35" text-anchor="middle">SFD</tspan>
  </text>
  <rect x="0" y="50" width="100" height="25" style="fill:lightgrey;stroke:black;" />
  <text x="50" y="65" font-size="10px" fill="black" text-anchor="middle">indicates new frame</text>

  <rect x="100" y="0" width="100" height="50" style="fill:pink;stroke:black;" />
  <text x="150" y="20" font-size="12px" fill="black" text-anchor="middle">MAC
    <tspan x="150" y="35" text-anchor="middle">Destination</tspan>
  </text>
  <rect x="100" y="50" width="100" height="25" style="fill:lightgrey;stroke:black;" />
  <text x="150" y="61" font-size="10px" fill="black" text-anchor="middle">where this frame
    <tspan x="150" y="71" text-anchor="middle">is coming from</tspan>
  </text>

  <rect x="200" y="0" width="100" height="50" style="fill:pink;stroke:black;" />
  <text x="250" y="20" font-size="12px" fill="black" text-anchor="middle">MAC
    <tspan x="250" y="35" text-anchor="middle">Source</tspan>
  </text>
  <rect x="200" y="50" width="100" height="25" style="fill:lightgrey;stroke:black;" />
  <text x="250" y="61" font-size="10px" fill="black" text-anchor="middle">where this frame
    <tspan x="250" y="71" text-anchor="middle">is going</tspan>
  </text>

  <rect x="300" y="0" width="75" height="50" style="fill:white;stroke:black;" />
  <text x="337" y="20" font-size="12px" fill="black" text-anchor="middle">Ethernet
    <tspan x="337" y="35" text-anchor="middle">Type</tspan>
  </text>
  <rect x="300" y="50" width="75" height="25" style="fill:lightgrey;stroke:black;" />
  <text x="337" y="61" font-size="10px" fill="black" text-anchor="middle">metadata
    <tspan x="337" y="71" text-anchor="middle">about frame</tspan>
  </text>

  <rect x="375" y="0" width="200" height="50" style="fill:pink;stroke:black;" />
  <text x="475" y="30" font-size="12px" fill="black" text-anchor="middle">Payload</text>
  <rect x="375" y="50" width="200" height="25" style="fill:lightgrey;stroke:black;" />
  <text x="475" y="65" font-size="10px" fill="black" text-anchor="middle">actual data</text>

  <rect x="575" y="0" width="60" height="50" style="fill:white;stroke:black;" />
  <text x="605" y="30" width="60" font-size="12px" fill="black" text-anchor="middle">FCS</text>
  <rect x="575" y="50" width="60" height="25" style="fill:lightgrey;stroke:black;" />
  <text x="605" y="61" font-size="10px" fill="black" text-anchor="middle">verification
    <tspan x="605" y="71" text-anchor="middle">data</tspan>
  </text>
</svg>