<?xml version="1.0" encoding="UTF-8" standalone="no"?>
<!-- Created with Inkscape (http://www.inkscape.org/) -->

<svg
   width="192mm"
   height="115mm"
   viewBox="0 0 192 115"
   version="1.1"
   id="svg1"
   inkscape:version="1.3.1 (91b66b0, 2023-11-16)"
   sodipodi:docname="iaas-paas.svg"
   xmlns:inkscape="http://www.inkscape.org/namespaces/inkscape"
   xmlns:sodipodi="http://sodipodi.sourceforge.net/DTD/sodipodi-0.dtd"
   xmlns:xlink="http://www.w3.org/1999/xlink"
   xmlns="http://www.w3.org/2000/svg"
   xmlns:svg="http://www.w3.org/2000/svg">
  <sodipodi:namedview
     id="namedview1"
     pagecolor="#ffffff"
     bordercolor="#666666"
     borderopacity="1.0"
     inkscape:showpageshadow="2"
     inkscape:pageopacity="0.0"
     inkscape:pagecheckerboard="0"
     inkscape:deskcolor="#d1d1d1"
     inkscape:document-units="mm"
     inkscape:zoom="0.94917177"
     inkscape:cx="365.58188"
     inkscape:cy="235.46844"
     inkscape:window-width="1336"
     inkscape:window-height="736"
     inkscape:window-x="47"
     inkscape:window-y="46"
     inkscape:window-maximized="0"
     inkscape:current-layer="layer1" />
  <defs
     id="defs1">
    <linearGradient
       id="linearGradient3755">
      <stop
         style="stop-color:#5f5f5f;stop-opacity:1;"
         offset="0"
         id="stop3757" />
      <stop
         style="stop-color:#000000;stop-opacity:1;"
         offset="1"
         id="stop3759" />
    </linearGradient>
    <filter
       inkscape:label="Emboss"
       inkscape:menu-tooltip="Emboss effect : Colors of the original images are preserved or modified by Blend"
       inkscape:menu="Bumps"
       height="1"
       width="1"
       y="0"
       x="0"
       color-interpolation-filters="sRGB"
       id="filter3866">
      <feColorMatrix
         result="result2"
         type="luminanceToAlpha"
         id="feColorMatrix3868" />
      <feDiffuseLighting
         diffuseConstant="0.60000002"
         result="result1"
         surfaceScale="-10"
         id="feDiffuseLighting3870">
        <feDistantLight
           azimuth="225"
           elevation="35"
           id="feDistantLight3872" />
      </feDiffuseLighting>
      <feComposite
         result="result3"
         k3="0.5"
         k1="1.5"
         in="result1"
         operator="arithmetic"
         in2="SourceGraphic"
         id="feComposite3874"
         k2="0"
         k4="0" />
      <feComposite
         result="result5"
         operator="in"
         in="result3"
         in2="result3"
         id="feComposite3876" />
      <feBlend
         result="result6"
         in2="result1"
         mode="normal"
         in="result5"
         id="feBlend3878" />
      <feComposite
         result="result7"
         operator="arithmetic"
         k2="1"
         in2="result6"
         id="feComposite3880"
         k1="0"
         k3="0"
         k4="0" />
      <feComposite
         in2="SourceGraphic"
         in="result7"
         operator="in"
         id="feComposite3882" />
    </filter>
    <linearGradient
       id="linearGradient3768">
      <stop
         style="stop-color:#ffffff;stop-opacity:1;"
         offset="0"
         id="stop3770" />
      <stop
         style="stop-color:#cbcbcb;stop-opacity:0;"
         offset="1"
         id="stop3772" />
    </linearGradient>
    <linearGradient
       id="bf00b8fe-272d-44e3-922e-e394f4035f83"
       x1="9"
       y1="12.46"
       x2="9"
       y2="1.1799999"
       gradientUnits="userSpaceOnUse">
      <stop
         offset="0"
         stop-color="#0078d4"
         id="stop1" />
      <stop
         offset="0.82"
         stop-color="#5ea0ef"
         id="stop2" />
    </linearGradient>
    <linearGradient
       id="b2b35db0-3208-44e0-aaf4-68cf95a2719b"
       x1="9"
       y1="16.82"
       x2="9"
       y2="12.46"
       gradientUnits="userSpaceOnUse">
      <stop
         offset="0.15"
         stop-color="#ccc"
         id="stop3" />
      <stop
         offset="1"
         stop-color="#707070"
         id="stop4" />
    </linearGradient>
    <radialGradient
       id="f2829e12-820e-4175-930d-324517daee42"
       cx="9.4300003"
       cy="7.0300002"
       r="7.27"
       gradientUnits="userSpaceOnUse">
      <stop
         offset="0"
         stop-color="#f2f2f2"
         id="stop5" />
      <stop
         offset="0.58"
         stop-color="#eee"
         id="stop6" />
      <stop
         offset="1"
         stop-color="#e6e6e6"
         id="stop7" />
    </radialGradient>
    <linearGradient
       id="e900c35d-0958-4d4f-b28f-302eeaaf52f5"
       x1="2.48"
       y1="8.5900002"
       x2="4.1100001"
       y2="10.23"
       gradientUnits="userSpaceOnUse"
       gradientTransform="matrix(0.26458333,0,0,0.26458333,93.928217,120.48939)">
      <stop
         offset="0"
         stop-color="#86d633"
         id="stop5-5" />
      <stop
         offset="1"
         stop-color="#5e9624"
         id="stop6-2" />
    </linearGradient>
    <linearGradient
       id="b3c2bc94-8c7c-48a2-9719-6ee899a43a97"
       x1="6.1799998"
       y1="8.5900002"
       x2="7.8099999"
       y2="10.23"
       gradientUnits="userSpaceOnUse"
       gradientTransform="matrix(0.26458333,0,0,0.26458333,93.928217,120.48939)">
      <stop
         offset="0"
         stop-color="#86d633"
         id="stop3-2" />
      <stop
         offset="1"
         stop-color="#5e9624"
         id="stop4-7" />
    </linearGradient>
    <linearGradient
       id="f020fb7e-2243-4501-8153-5d69bd3c34f7"
       x1="9.8800001"
       y1="8.5900002"
       x2="11.52"
       y2="10.23"
       gradientTransform="matrix(0.26458307,-3.694279e-4,3.694279e-4,0.26458307,94.465321,120.38356)"
       gradientUnits="userSpaceOnUse">
      <stop
         offset="0"
         stop-color="#86d633"
         id="stop1-3" />
      <stop
         offset="1"
         stop-color="#5e9624"
         id="stop2-7" />
    </linearGradient>
    <linearGradient
       x1="0.65625"
       y1="125.12147"
       x2="299.9375"
       y2="125.12147"
       id="linearGradient3833"
       xlink:href="#linearGradient3613"
       gradientUnits="userSpaceOnUse"
       gradientTransform="translate(-0.31342216,851.86901)" />
    <linearGradient
       id="linearGradient3613">
      <stop
         id="stop3780"
         style="stop-color:#557b8b;stop-opacity:1"
         offset="0" />
      <stop
         id="stop3617"
         style="stop-color:#8aaac0;stop-opacity:1"
         offset="1" />
    </linearGradient>
    <linearGradient
       id="f67d1585-6164-4ad0-b2dd-f9cc59b2969f"
       x1="9.908"
       y1="15.943"
       x2="7.5159998"
       y2="2.3829999"
       gradientUnits="userSpaceOnUse">
      <stop
         offset="0.15"
         stop-color="#0078d4"
         id="stop1-39" />
      <stop
         offset="0.8"
         stop-color="#5ea0ef"
         id="stop2-8" />
      <stop
         offset="1"
         stop-color="#83b9f9"
         id="stop3-6" />
    </linearGradient>
    <linearGradient
       id="b39dcf83-187e-4c64-98df-431bb60809d2"
       x1="0.5"
       y1="10.04"
       x2="13.18"
       y2="10.04"
       gradientUnits="userSpaceOnUse"
       gradientTransform="matrix(0.26458333,0,0,0.26458333,110.72812,71.043271)">
      <stop
         offset="0"
         stop-color="#005ba1"
         id="stop1-0" />
      <stop
         offset="0.07"
         stop-color="#0060a9"
         id="stop2-74" />
      <stop
         offset="0.36"
         stop-color="#0071c8"
         id="stop3-8" />
      <stop
         offset="0.52"
         stop-color="#0078d4"
         id="stop4-5" />
      <stop
         offset="0.64"
         stop-color="#0074cd"
         id="stop5-8" />
      <stop
         offset="0.82"
         stop-color="#006abb"
         id="stop6-3" />
      <stop
         offset="1"
         stop-color="#005ba1"
         id="stop7-0" />
    </linearGradient>
  </defs>
  <g
     inkscape:label="Layer 1"
     inkscape:groupmode="layer"
     id="layer1">
    <g
       id="g8"
       transform="matrix(1.4797803,0,0,1.4797803,79.177834,21.547594)">
      <g
         id="g7">
        <rect
           x="0.54000002"
           y="1.1799999"
           width="16.91"
           height="11.27"
           rx="0.56"
           fill="url(#bf00b8fe-272d-44e3-922e-e394f4035f83)"
           id="rect7"
           style="fill:url(#bf00b8fe-272d-44e3-922e-e394f4035f83)" />
        <path
           d="M 12.39,15.87 C 10.72,15.61 10.65,14.4 10.66,12.46 H 7.34 c 0,1.94 -0.06,3.15 -1.73,3.41 a 1,1 0 0 0 -0.84,1 h 8.46 a 1,1 0 0 0 -0.84,-1 z"
           fill="url(#b2b35db0-3208-44e0-aaf4-68cf95a2719b)"
           id="path7"
           style="fill:url(#b2b35db0-3208-44e0-aaf4-68cf95a2719b)" />
      </g>
      <path
         d="M 13.07,7.89 V 4.41 h -1 V 8.66 H 14.6 V 7.89 Z M 5.73,6.17 A 2,2 0 0 1 5.21,5.86 0.45,0.45 0 0 1 5.08,5.52 0.36,0.36 0 0 1 5.24,5.21 0.69,0.69 0 0 1 5.67,5.1 a 1.66,1.66 0 0 1 1,0.29 V 4.51 A 2.77,2.77 0 0 0 5.67,4.34 1.73,1.73 0 0 0 4.54,4.69 1.12,1.12 0 0 0 4.12,5.61 1.38,1.38 0 0 0 5,6.85 2.49,2.49 0 0 1 5.63,7.22 0.41,0.41 0 0 1 5.79,7.55 0.4,0.4 0 0 1 5.63,7.87 0.76,0.76 0 0 1 5.21,8 1.69,1.69 0 0 1 4.09,7.56 v 1 A 2.27,2.27 0 0 0 5.19,8.8 2,2 0 0 0 6.4,8.41 1.12,1.12 0 0 0 6.84,7.47 1,1 0 0 0 6.58,6.75 2.54,2.54 0 0 0 5.73,6.17 Z m 5.34,1.64 A 2.4,2.4 0 0 0 11.41,6.51 2.44,2.44 0 0 0 11.15,5.38 1.85,1.85 0 0 0 10.43,4.61 2.05,2.05 0 0 0 9.43,4.34 2.23,2.23 0 0 0 8.32,4.62 1.89,1.89 0 0 0 7.56,5.42 2.47,2.47 0 0 0 7.25,6.6 2.44,2.44 0 0 0 7.49,7.68 1.92,1.92 0 0 0 8.2,8.44 a 2.06,2.06 0 0 0 1,0.3 l 0.88,1 h 1.24 L 10.11,8.58 a 1.78,1.78 0 0 0 0.96,-0.77 z m -1,-0.26 A 0.94,0.94 0 0 1 9.29,7.91 0.92,0.92 0 0 1 8.51,7.54 a 1.55,1.55 0 0 1 -0.3,-1 1.57,1.57 0 0 1 0.3,-1 1,1 0 0 1 0.8,-0.37 0.9,0.9 0 0 1 0.77,0.37 1.65,1.65 0 0 1 0.28,1 1.5,1.5 0 0 1 -0.25,1.01 z"
         fill="url(#f2829e12-820e-4175-930d-324517daee42)"
         id="path8"
         style="fill:url(#f2829e12-820e-4175-930d-324517daee42)" />
    </g>
    <g
       id="g4"
       transform="matrix(5.7480456,0,0,5.7480456,-461.10083,-640.10751)">
      <circle
         cx="97.299011"
         cy="122.868"
         r="0.30691665"
         fill="url(#f020fb7e-2243-4501-8153-5d69bd3c34f7)"
         id="circle6"
         style="fill:url(#f020fb7e-2243-4501-8153-5d69bd3c34f7);stroke-width:0.264583" />
      <circle
         cx="96.320053"
         cy="122.87064"
         r="0.30691665"
         fill="url(#b3c2bc94-8c7c-48a2-9719-6ee899a43a97)"
         id="circle7"
         style="fill:url(#b3c2bc94-8c7c-48a2-9719-6ee899a43a97);stroke-width:0.264583" />
      <circle
         cx="95.341095"
         cy="122.87064"
         r="0.30691665"
         fill="url(#e900c35d-0958-4d4f-b28f-302eeaaf52f5)"
         id="circle8"
         style="fill:url(#e900c35d-0958-4d4f-b28f-302eeaaf52f5);stroke-width:0.264583" />
      <path
         d="m 95.5639,124.09767 -0.175618,0.17611 a 0.079375,0.079375 45 0 1 -0.112253,1.6e-4 l -1.300207,-1.29659 a 0.15875,0.15875 45 0 1 -3.13e-4,-0.2245 l 0.175617,-0.17611 1.412617,1.40868 a 0.079375,0.079375 45 0 1 1.57e-4,0.11225 z"
         fill="#50e6ff"
         id="path8-0"
         style="stroke-width:0.264583" />
      <path
         d="m 95.361707,121.47053 0.176109,0.17561 a 0.079375,0.079375 45 0 1 1.56e-4,0.11226 l -1.388126,1.392 -0.176109,-0.17561 a 0.15875,0.15875 45 0 1 -3.13e-4,-0.22451 l 1.27603,-1.2796 a 0.079375,0.079375 45 0 1 0.112253,-1.5e-4 z"
         fill="#1490df"
         id="path9"
         style="stroke-width:0.264583" />
      <path
         d="m 98.467584,122.57432 0.175617,0.17611 a 0.15875,0.15875 45 0 1 -3.13e-4,0.22451 l -1.300207,1.29658 a 0.079375,0.079375 45 0 1 -0.112253,-1.6e-4 l -0.175618,-0.17611 a 0.079375,0.079375 45 0 1 1.57e-4,-0.11225 z"
         fill="#50e6ff"
         id="path10"
         style="stroke-width:0.264583" />
      <path
         d="m 98.642653,122.97305 -0.176108,0.17562 -1.388127,-1.39201 a 0.079375,0.079375 45 0 1 1.57e-4,-0.11225 l 0.177982,-0.17749 a 0.079375,0.079375 45 0 1 0.112253,1.6e-4 l 1.27603,1.2796 a 0.15875,0.15875 45 0 1 -3.13e-4,0.22451 z"
         fill="#1490df"
         id="path11"
         style="stroke-width:0.264583" />
    </g>
    <g
       transform="matrix(0.10395664,0,0,0.10395664,12.664998,-23.636072)"
       id="layer1-9">
      <g
         transform="translate(4.8592601,-4.8253842)"
         id="g3823">
        <g
           id="g3813">
          <path
             d="m 0.34282784,901.90026 v 100.62504 h 0.03125 c 0.13323192,17.103 26.93452416,33.7389 74.81249916,42.9062 71.558743,13.7016 163.060593,5.5444 204.375003,-18.1875 13.59024,-7.8065 20.05029,-16.3087 20.0625,-24.7187 V 902.15026 c -0.0444,8.38955 -6.50621,16.86923 -20.0625,24.65625 C 238.24717,950.53839 146.74532,958.66433 75.186577,944.96276 27.137451,935.76265 0.31623817,919.06779 0.37407784,901.90026 Z"
             id="path3759"
             style="fill:url(#linearGradient3833);fill-opacity:1;stroke:none" />
          <path
             d="m 280.43717,678.68689 a 113.47587,113.47587 0 1 1 -226.951735,0 113.47587,113.47587 0 1 1 226.951735,0 z"
             transform="matrix(1.141816,0.218627,-0.659227,0.378674,406.7696,608.8589)"
             id="path4755"
             style="fill:#557b8b;fill-opacity:1;stroke:none" />
          <path
             d="m 229.92724,898.48426 -18.78401,10.78993 66.58103,12.7485 -12.52268,7.1933 -66.58103,-12.7485 -18.78403,10.7899 -12.48521,-21.5727 z"
             id="path2775"
             style="fill:#ffffff;fill-opacity:1;fill-rule:evenodd;stroke:none" />
          <path
             d="m 120.16224,877.46718 -18.78403,10.78992 -66.581031,-12.7485 -12.52268,7.19328 66.581041,12.7485 -18.78402,10.78991 62.57593,-7.20044 z"
             id="path4757"
             style="fill:#ffffff;fill-opacity:1;fill-rule:evenodd;stroke:none" />
          <path
             d="m 136.24453,936.84279 -26.02789,-4.9836 38.44057,-22.0811 -17.35193,-3.3224 -38.44058,22.0811 -26.0279,-4.9837 13.03556,19.0916 z"
             id="path4759"
             style="fill:#ffffff;fill-opacity:1;fill-rule:evenodd;stroke:none" />
          <path
             d="m 233.16085,881.17199 -26.0279,-4.98365 -38.43962,22.08051 -17.35193,-3.32244 38.43961,-22.0805 -26.0279,-4.98366 56.37312,-5.80238 z"
             id="path4761"
             style="fill:#ffffff;fill-opacity:1;fill-rule:evenodd;stroke:none" />
        </g>
        <path
           d="M 147.09375,0.53125 C 96.573866,0.90664794 47.862581,9.769707 20.75,25.34375 7.3634701,33.033257 0.89027736,41.400427 0.6875,49.6875 H 0.65625 v 100.625 H 0.6875 c 0.13323192,17.103 26.934525,33.73895 74.8125,42.90625 71.55874,13.7016 163.06059,5.5444 204.375,-18.1875 13.59024,-7.8065 20.05029,-16.30875 20.0625,-24.71875 V 50.28125 C 300.02832,33.102648 273.20353,16.361993 225.125,7.15625 200.52668,2.446335 173.55655,0.33461298 147.09375,0.53125 Z"
           transform="translate(-0.3125,852.22482)"
           id="path3798"
           style="fill:none;stroke:#ffffff;stroke-opacity:1" />
      </g>
    </g>
    <g
       id="a4fd1868-54fe-4ca6-8ff6-3b01866dc27b"
       transform="matrix(1.4994484,0,0,1.4994484,143.85418,20.050549)">
      <path
         d="M 14.49,7.15 A 5.147,5.147 0 0 0 9.24,2.164 5.272,5.272 0 0 0 4.216,5.653 4.869,4.869 0 0 0 0,10.4 4.946,4.946 0 0 0 5.068,15.214 H 13.82 A 4.292,4.292 0 0 0 18,11.127 4.105,4.105 0 0 0 14.49,7.15 Z"
         fill="url(#f67d1585-6164-4ad0-b2dd-f9cc59b2969f)"
         id="path3"
         style="fill:url(#f67d1585-6164-4ad0-b2dd-f9cc59b2969f)" />
      <path
         d="M 12.9,11.4 V 8 H 12 v 4.13 h 2.46 V 11.4 Z M 5.76,9.73 A 1.825,1.825 0 0 1 5.25,9.42 0.441,0.441 0 0 1 5.13,9.1 0.342,0.342 0 0 1 5.28,8.8 0.683,0.683 0 0 1 5.7,8.68 1.62,1.62 0 0 1 6.7,8.97 V 8.11 A 2.58,2.58 0 0 0 5.7,7.95 1.641,1.641 0 0 0 4.61,8.29 1.08,1.08 0 0 0 4.19,9.18 c 0,0.51 0.32,0.91 1,1.21 A 2.907,2.907 0 0 1 5.81,10.75 0.419,0.419 0 0 1 5.96,11.07 0.381,0.381 0 0 1 5.8,11.38 0.806,0.806 0 0 1 5.35,11.49 1.66,1.66 0 0 1 4.26,11.07 V 12 A 2.173,2.173 0 0 0 5.33,12.24 1.877,1.877 0 0 0 6.51,11.91 1.08,1.08 0 0 0 6.84,11 1.048,1.048 0 0 0 6.59,10.3 2.425,2.425 0 0 0 5.76,9.73 Z M 11,11.32 A 2.191,2.191 0 0 0 11,9 1.808,1.808 0 0 0 10.3,8.25 2,2 0 0 0 9.3,7.99 2.112,2.112 0 0 0 8.22,8.26 1.856,1.856 0 0 0 7.49,9 a 2.465,2.465 0 0 0 -0.26,1.14 2.256,2.256 0 0 0 0.24,1 1.766,1.766 0 0 0 0.69,0.74 2.056,2.056 0 0 0 1,0.3 l 0.86,1 h 1.21 L 10,12.08 a 1.79,1.79 0 0 0 1,-0.76 z m -1,-0.25 a 0.941,0.941 0 0 1 -0.76,0.35 0.916,0.916 0 0 1 -0.76,-0.36 1.523,1.523 0 0 1 -0.29,-1 1.529,1.529 0 0 1 0.29,-1 1,1 0 0 1 0.78,-0.37 0.869,0.869 0 0 1 0.75,0.37 1.619,1.619 0 0 1 0.27,1 1.459,1.459 0 0 1 -0.28,1.01 z"
         fill="#f2f2f2"
         id="path4" />
    </g>
    <rect
       style="fill:#999999;stroke:#1a1a1a;stroke-width:0.265;stroke-dasharray:none"
       id="rect4"
       width="4.8666558"
       height="73.288048"
       x="58.116497"
       y="15.221318" />
    <rect
       style="fill:#999999;stroke:#1a1a1a;stroke-width:0.265;stroke-dasharray:none"
       id="rect5"
       width="4.8666558"
       height="73.288048"
       x="121.99377"
       y="15.221318" />
    <text
       xml:space="preserve"
       style="font-style:normal;font-weight:normal;font-size:7.05556px;line-height:1.25;font-family:sans-serif;fill:#000000;fill-opacity:1;stroke:none;stroke-width:0.264583"
       x="4.4480162"
       y="11.625302"
       id="text5"><tspan
         sodipodi:role="line"
         id="tspan5"
         style="font-size:7.05556px;stroke-width:0.264583"
         x="4.4480162"
         y="11.625302">On-Premises</tspan></text>
    <text
       xml:space="preserve"
       style="font-style:normal;font-weight:normal;font-size:7.05556px;line-height:1.25;font-family:sans-serif;fill:#000000;fill-opacity:1;stroke:none;stroke-width:0.264583"
       x="84.321854"
       y="11.618413"
       id="text6"><tspan
         sodipodi:role="line"
         id="tspan6"
         style="font-size:7.05556px;stroke-width:0.264583"
         x="84.321854"
         y="11.618413">IaaS</tspan></text>
    <text
       xml:space="preserve"
       style="font-style:normal;font-weight:normal;font-size:7.05556px;line-height:1.25;font-family:sans-serif;fill:#000000;fill-opacity:1;stroke:none;stroke-width:0.264583"
       x="149.18262"
       y="11.618413"
       id="text7"><tspan
         sodipodi:role="line"
         id="tspan7"
         style="font-size:7.05556px;stroke-width:0.264583"
         x="149.18262"
         y="11.618413">PaaS</tspan></text>
    <text
       xml:space="preserve"
       style="font-style:normal;font-weight:normal;font-size:4.23333px;line-height:1.25;font-family:sans-serif;text-align:center;text-anchor:middle;fill:#000000;fill-opacity:1;stroke:none;stroke-width:0.264583"
       x="28.814636"
       y="97.50869"
       id="text9"><tspan
         sodipodi:role="line"
         id="tspan9"
         style="font-size:4.23333px;text-align:center;text-anchor:middle;stroke-width:0.264583"
         x="28.814636"
         y="97.50869">SQL Server installed</tspan><tspan
         sodipodi:role="line"
         style="font-size:4.23333px;text-align:center;text-anchor:middle;stroke-width:0.264583"
         x="28.814636"
         y="102.80035"
         id="tspan10">on hardware with</tspan><tspan
         sodipodi:role="line"
         style="font-size:4.23333px;text-align:center;text-anchor:middle;stroke-width:0.264583"
         x="28.814636"
         y="108.09201"
         id="tspan14">physical networking</tspan></text>
    <text
       xml:space="preserve"
       style="font-style:normal;font-weight:normal;font-size:4.23333px;line-height:1.25;font-family:sans-serif;text-align:center;text-anchor:middle;fill:#000000;fill-opacity:1;stroke:none;stroke-width:0.264583"
       x="92.603935"
       y="97.913834"
       id="text12"><tspan
         sodipodi:role="line"
         id="tspan11"
         style="font-size:4.23333px;text-align:center;text-anchor:middle;stroke-width:0.264583"
         x="92.603935"
         y="97.913834">SQL Server installed</tspan><tspan
         sodipodi:role="line"
         style="font-size:4.23333px;text-align:center;text-anchor:middle;stroke-width:0.264583"
         x="92.603935"
         y="103.2055"
         id="tspan12">on VM with virtual</tspan><tspan
         sodipodi:role="line"
         style="font-size:4.23333px;text-align:center;text-anchor:middle;stroke-width:0.264583"
         x="92.603935"
         y="108.49716"
         id="tspan13">network</tspan></text>
    <text
       xml:space="preserve"
       style="font-style:normal;font-weight:normal;font-size:4.23333px;line-height:1.25;font-family:sans-serif;text-align:center;text-anchor:middle;fill:#000000;fill-opacity:1;stroke:none;stroke-width:0.264583"
       x="157.82991"
       y="97.50869"
       id="text17"><tspan
         sodipodi:role="line"
         style="font-size:4.23333px;text-align:center;text-anchor:middle;stroke-width:0.264583"
         x="157.82991"
         y="97.50869"
         id="tspan17">SQL Server database</tspan><tspan
         sodipodi:role="line"
         style="font-size:4.23333px;text-align:center;text-anchor:middle;stroke-width:0.264583"
         x="157.82991"
         y="102.80035"
         id="tspan19">available without VM</tspan><tspan
         sodipodi:role="line"
         style="font-size:4.23333px;text-align:center;text-anchor:middle;stroke-width:0.264583"
         x="157.82991"
         y="108.09201"
         id="tspan20">or networking to manage</tspan></text>
    <g
       id="g1"
       transform="translate(-129.72443,-24.359932)">
      <rect
         style="opacity:0.997;fill:#4d4d4d;fill-opacity:1;stroke:none;stroke-width:0.110627;stroke-miterlimit:4;stroke-dasharray:0.221254, 0.221254;stroke-dashoffset:0;stroke-opacity:1"
         id="rect833"
         width="16.000765"
         height="40.861584"
         x="151.13243"
         y="42.862499" />
      <rect
         style="opacity:0.997;fill:#e3e3e3;fill-opacity:1;stroke:none;stroke-width:0.252829;stroke-miterlimit:4;stroke-dasharray:0.505659, 0.505659;stroke-dashoffset:0;stroke-opacity:1"
         id="rect2044"
         width="2.5390604"
         height="9.4880695"
         x="162.08003"
         y="68.571098" />
      <rect
         style="opacity:0.997;fill:#c92121;fill-opacity:1;stroke:#cddffa;stroke-width:0.106;stroke-miterlimit:4;stroke-dasharray:none;stroke-dashoffset:0;stroke-opacity:1"
         id="rect2046"
         width="3.9404869"
         height="1.3120286"
         x="151.13008"
         y="60.832088" />
      <ellipse
         style="opacity:0.997;fill:#042352;fill-opacity:1;stroke:#cddffa;stroke-width:0.15459;stroke-miterlimit:4;stroke-dasharray:none;stroke-dashoffset:0;stroke-opacity:1"
         id="path2048"
         cx="163.33098"
         cy="46.221031"
         rx="1.3944569"
         ry="1.3428103" />
    </g>
    <g
       id="g9"
       transform="matrix(3.4131457,0,0,3.4131457,-362.72797,-198.95843)">
      <path
         d="m 112.53787,72.39 c -0.92604,0 -1.67746,-0.264583 -1.67746,-0.608542 v 3.230563 c 0,0.333375 0.73819,0.60325 1.65365,0.608542 h 0.0238 c 0.92604,0 1.67746,-0.264584 1.67746,-0.608542 v -3.230563 c 0,0.336021 -0.75142,0.608542 -1.67746,0.608542 z"
         fill="url(#b39dcf83-187e-4c64-98df-431bb60809d2)"
         id="path7-2"
         style="fill:url(#b39dcf83-187e-4c64-98df-431bb60809d2);stroke-width:0.264583" />
      <path
         d="m 114.21533,71.781458 c 0,0.336021 -0.75142,0.608542 -1.67746,0.608542 -0.92604,0 -1.67746,-0.272521 -1.67746,-0.608542 0,-0.33602 0.75142,-0.608541 1.67746,-0.608541 0.92604,0 1.67746,0.264583 1.67746,0.608541"
         fill="#e8e8e8"
         id="path8-2"
         style="stroke-width:0.264583" />
      <path
         d="m 113.82374,71.731188 c 0,0.214312 -0.57679,0.386291 -1.28587,0.386291 -0.70908,0 -1.28058,-0.171979 -1.28058,-0.386291 0,-0.214313 0.5715,-0.386292 1.28058,-0.386292 0.70908,0 1.28587,0.174625 1.28587,0.386292"
         fill="#50e6ff"
         id="path9-5"
         style="stroke-width:0.264583" />
      <path
         d="m 112.53787,71.821146 a 3.175,3.175 0 0 0 -1.016,0.145521 2.9765625,2.9765625 0 0 0 1.01865,0.150812 2.9765625,2.9765625 0 0 0 1.01864,-0.150812 3.175,3.175 0 0 0 -1.02129,-0.145521 z"
         fill="#198ab3"
         id="path10-2"
         style="stroke-width:0.264583" />
      <path
         d="m 113.56974,73.980146 v -0.894292 h -0.24606 v 1.095375 h 0.65088 v -0.201083 z m -1.89177,-0.441854 a 0.50799999,0.50799999 0 0 1 -0.13493,-0.08202 0.11641667,0.11641667 0 0 1 -0.0212,-0.08467 0.10054167,0.10054167 0 0 1 0.0423,-0.08202 0.1905,0.1905 0 0 1 0.11113,-0.0291 0.44185416,0.44185416 0 0 1 0.26458,0.07673 v -0.227541 a 0.70643749,0.70643749 0 0 0 -0.26458,-0.04233 0.46037499,0.46037499 0 0 0 -0.3175,0.0926 0.29897916,0.29897916 0 0 0 -0.10848,0.238125 c 0,0.134937 0.0847,0.24077 0.26458,0.320145 a 0.76729166,0.76729166 0 0 1 0.1614,0.09525 0.10583333,0.10583333 0 0 1 0.0423,0.08467 0.10054167,0.10054167 0 0 1 -0.0423,0.08202 0.1984375,0.1984375 0 0 1 -0.11906,0.03175 0.42333333,0.42333333 0 0 1 -0.29898,-0.119063 v 0.246063 a 0.60589583,0.60589583 0 0 0 0.2831,0.06085 0.52916666,0.52916666 0 0 0 0.31221,-0.08467 0.29104166,0.29104166 0 0 0 0.11377,-0.243416 0.26458333,0.26458333 0 0 0 -0.0661,-0.185209 0.64029166,0.64029166 0 0 0 -0.22225,-0.148166 z m 1.37584,0.415396 a 0.63499999,0.63499999 0 0 0 0.0873,-0.336021 0.61383333,0.61383333 0 0 0 -0.0662,-0.291042 0.47889583,0.47889583 0 0 0 -0.1852,-0.198437 0.52916666,0.52916666 0 0 0 -0.26459,-0.06879 0.57679166,0.57679166 0 0 0 -0.28839,0.07144 0.49477083,0.49477083 0 0 0 -0.19315,0.20373 0.63764583,0.63764583 0 0 0 -0.0688,0.30427 0.59795833,0.59795833 0 0 0 0.0635,0.277813 0.48418749,0.48418749 0 0 0 0.17992,0.198437 0.52916666,0.52916666 0 0 0 0.26458,0.07673 l 0.22489,0.264583 h 0.31486 l -0.3175,-0.293688 a 0.47889583,0.47889583 0 0 0 0.24871,-0.20902 z m -0.24607,-0.06879 a 0.26458333,0.26458333 0 0 1 -0.40481,0 0.39952083,0.39952083 0 0 1 -0.0741,-0.264583 0.39158333,0.39158333 0 0 1 0.0767,-0.264584 0.24341666,0.24341666 0 0 1 0.20637,-0.0979 0.23547916,0.23547916 0 0 1 0.19844,0.0979 0.42862499,0.42862499 0 0 1 0.0714,0.264584 0.38629166,0.38629166 0 0 1 -0.0741,0.27252 z"
         fill="#f2f2f2"
         id="path11-2"
         style="stroke-width:0.264583" />
      <path
         d="m 114.6466,75.670833 0.0635,-0.20902 0.12435,-0.07144 0.21432,0.09525 0.13758,-0.140229 v -0.01587 l -0.0979,-0.187854 0.0582,-0.132292 0.21431,-0.07673 h 0.0238 V 74.7395 h -0.0265 l -0.21167,-0.0635 -0.0688,-0.121708 0.0926,-0.216959 -0.14023,-0.134937 h -0.0159 l -0.18785,0.09525 -0.12965,-0.07937 -0.0847,-0.235479 h -0.19579 v 0.0291 l -0.0635,0.209021 -0.13494,0.05821 -0.23018,-0.105833 -0.13494,0.140229 0.0132,0.02646 0.10054,0.195792 -0.0529,0.134937 -0.24871,0.07673 v 0.195791 h 0.0291 l 0.20902,0.0635 0.0582,0.134938 -0.10319,0.227541 0.14023,0.137584 0.0238,-0.01323 0.19579,-0.100542 0.13494,0.05292 0.09,0.235479 h 0.19315 z m -0.3175,-0.624416 a 0.28158284,0.28158284 0 1 1 0.39423,-0.402167 0.28158284,0.28158284 0 0 1 -0.39423,0.402167 z"
         fill="#949494"
         id="path12"
         style="stroke-width:0.264583" />
    </g>
  </g>
</svg>
