<?xml version="1.0" encoding="UTF-8" standalone="no"?>
<!-- Created with Inkscape (http://www.inkscape.org/) -->

<svg
   width="121mm"
   height="80mm"
   viewBox="0 0 121 80"
   version="1.1"
   id="svg1"
   inkscape:version="1.3.1 (91b66b0, 2023-11-16)"
   sodipodi:docname="iac-error-reduction.svg"
   xmlns:inkscape="http://www.inkscape.org/namespaces/inkscape"
   xmlns:sodipodi="http://sodipodi.sourceforge.net/DTD/sodipodi-0.dtd"
   xmlns:xlink="http://www.w3.org/1999/xlink"
   xmlns="http://www.w3.org/2000/svg"
   xmlns:svg="http://www.w3.org/2000/svg">
  <sodipodi:namedview
     id="namedview1"
     pagecolor="#ffffff"
     bordercolor="#666666"
     borderopacity="1.0"
     inkscape:showpageshadow="2"
     inkscape:pageopacity="0.0"
     inkscape:pagecheckerboard="0"
     inkscape:deskcolor="#d1d1d1"
     inkscape:document-units="mm"
     inkscape:zoom="1.1018547"
     inkscape:cx="286.33539"
     inkscape:cy="196.48688"
     inkscape:window-width="1520"
     inkscape:window-height="778"
     inkscape:window-x="0"
     inkscape:window-y="25"
     inkscape:window-maximized="0"
     inkscape:current-layer="layer1" />
  <defs
     id="defs1">
    <inkscape:path-effect
       effect="bspline"
       id="path-effect40"
       is_visible="true"
       lpeversion="1.3"
       weight="33.333333"
       steps="2"
       helper_size="0"
       apply_no_weight="true"
       apply_with_weight="true"
       only_selected="false"
       uniform="false" />
    <inkscape:path-effect
       effect="bspline"
       id="path-effect38"
       is_visible="true"
       lpeversion="1.3"
       weight="33.333333"
       steps="2"
       helper_size="0"
       apply_no_weight="true"
       apply_with_weight="true"
       only_selected="false"
       uniform="false" />
    <inkscape:path-effect
       effect="bspline"
       id="path-effect11"
       is_visible="true"
       lpeversion="1.3"
       weight="33.333333"
       steps="2"
       helper_size="0"
       apply_no_weight="true"
       apply_with_weight="true"
       only_selected="false"
       uniform="false" />
    <inkscape:path-effect
       effect="bspline"
       id="path-effect7"
       is_visible="true"
       lpeversion="1.3"
       weight="33.333333"
       steps="2"
       helper_size="0"
       apply_no_weight="true"
       apply_with_weight="true"
       only_selected="false"
       uniform="false" />
    <marker
       style="overflow:visible"
       id="marker5"
       refX="0"
       refY="0"
       orient="auto-start-reverse"
       inkscape:stockid="Triangle arrow"
       markerWidth="1"
       markerHeight="1"
       viewBox="0 0 1 1"
       inkscape:isstock="true"
       inkscape:collect="always"
       preserveAspectRatio="xMidYMid">
      <path
         transform="scale(0.5)"
         style="fill:context-stroke;fill-rule:evenodd;stroke:context-stroke;stroke-width:1pt"
         d="M 5.77,0 -2.88,5 V -5 Z"
         id="path5" />
    </marker>
    <inkscape:path-effect
       effect="bspline"
       id="path-effect12"
       is_visible="true"
       lpeversion="1.3"
       weight="33.333333"
       steps="2"
       helper_size="0"
       apply_no_weight="true"
       apply_with_weight="true"
       only_selected="false"
       uniform="false" />
    <marker
       style="overflow:visible"
       id="Triangle"
       refX="0"
       refY="0"
       orient="auto-start-reverse"
       inkscape:stockid="Triangle arrow"
       markerWidth="1"
       markerHeight="1"
       viewBox="0 0 1 1"
       inkscape:isstock="true"
       inkscape:collect="always"
       preserveAspectRatio="xMidYMid">
      <path
         transform="scale(0.5)"
         style="fill:context-stroke;fill-rule:evenodd;stroke:context-stroke;stroke-width:1pt"
         d="M 5.77,0 -2.88,5 V -5 Z"
         id="path135" />
    </marker>
    <inkscape:path-effect
       effect="bspline"
       id="path-effect9"
       is_visible="true"
       lpeversion="1.3"
       weight="33.333333"
       steps="2"
       helper_size="0"
       apply_no_weight="true"
       apply_with_weight="true"
       only_selected="false"
       uniform="false" />
    <inkscape:path-effect
       effect="bspline"
       id="path-effect5"
       is_visible="true"
       lpeversion="1.3"
       weight="33.333333"
       steps="2"
       helper_size="0"
       apply_no_weight="true"
       apply_with_weight="true"
       only_selected="false"
       uniform="false" />
    <linearGradient
       id="e5371565-cc9b-4729-9e54-9bac135a92bd"
       x1="9"
       y1="18"
       x2="9"
       gradientUnits="userSpaceOnUse">
      <stop
         offset="0"
         stop-color="#0078d4"
         id="stop1" />
      <stop
         offset="0.817"
         stop-color="#5ea0ef"
         id="stop2" />
    </linearGradient>
    <linearGradient
       id="b76ba356-3d29-41f5-a521-8647fe84a8b4"
       x1="9"
       y1="297.5"
       x2="9"
       y2="280.5"
       gradientTransform="matrix(0.26458333,0,0,0.26458333,164.45998,75.219554)"
       gradientUnits="userSpaceOnUse">
      <stop
         offset="0"
         stop-color="#32bedd"
         id="stop1-9" />
      <stop
         offset="1"
         stop-color="#32d4f5"
         id="stop2-0" />
    </linearGradient>
    <linearGradient
       id="bdb45a0b-eb58-4970-a60a-fb2ce314f866"
       x1="8.8800001"
       y1="16.84"
       x2="8.8800001"
       y2="12.21"
       gradientUnits="userSpaceOnUse"
       gradientTransform="matrix(0.26458333,0,0,0.26458333,178.89008,156.57777)">
      <stop
         offset="0.15"
         stop-color="#ccc"
         id="stop3" />
      <stop
         offset="1"
         stop-color="#707070"
         id="stop4" />
    </linearGradient>
    <linearGradient
       id="f34d9569-2bd0-4002-8f16-3d01d8106cb5"
       x1="8.8800001"
       y1="12.21"
       x2="8.8800001"
       y2="0.20999999"
       gradientUnits="userSpaceOnUse"
       gradientTransform="matrix(0.26458333,0,0,0.26458333,178.89008,156.57777)">
      <stop
         offset="0"
         stop-color="#0078d4"
         id="stop1-7" />
      <stop
         offset="0.82"
         stop-color="#5ea0ef"
         id="stop2-9" />
    </linearGradient>
    <linearGradient
       inkscape:collect="always"
       xlink:href="#f34d9569-2bd0-4002-8f16-3d01d8106cb5"
       id="linearGradient26"
       gradientUnits="userSpaceOnUse"
       gradientTransform="matrix(0.26458333,0,0,0.26458333,178.89008,156.57777)"
       x1="8.8800001"
       y1="12.21"
       x2="8.8800001"
       y2="0.20999999" />
    <linearGradient
       inkscape:collect="always"
       xlink:href="#bdb45a0b-eb58-4970-a60a-fb2ce314f866"
       id="linearGradient27"
       gradientUnits="userSpaceOnUse"
       gradientTransform="matrix(0.26458333,0,0,0.26458333,178.89008,156.57777)"
       x1="8.8800001"
       y1="16.84"
       x2="8.8800001"
       y2="12.21" />
    <linearGradient
       inkscape:collect="always"
       xlink:href="#f34d9569-2bd0-4002-8f16-3d01d8106cb5"
       id="linearGradient32"
       gradientUnits="userSpaceOnUse"
       gradientTransform="matrix(0.26458333,0,0,0.26458333,178.89008,156.57777)"
       x1="8.8800001"
       y1="12.21"
       x2="8.8800001"
       y2="0.20999999" />
    <linearGradient
       inkscape:collect="always"
       xlink:href="#bdb45a0b-eb58-4970-a60a-fb2ce314f866"
       id="linearGradient33"
       gradientUnits="userSpaceOnUse"
       gradientTransform="matrix(0.26458333,0,0,0.26458333,178.89008,156.57777)"
       x1="8.8800001"
       y1="16.84"
       x2="8.8800001"
       y2="12.21" />
    <linearGradient
       inkscape:collect="always"
       xlink:href="#f34d9569-2bd0-4002-8f16-3d01d8106cb5"
       id="linearGradient34"
       gradientUnits="userSpaceOnUse"
       gradientTransform="matrix(0.26458333,0,0,0.26458333,178.89008,156.57777)"
       x1="8.8800001"
       y1="12.21"
       x2="8.8800001"
       y2="0.20999999" />
    <linearGradient
       inkscape:collect="always"
       xlink:href="#bdb45a0b-eb58-4970-a60a-fb2ce314f866"
       id="linearGradient35"
       gradientUnits="userSpaceOnUse"
       gradientTransform="matrix(0.26458333,0,0,0.26458333,178.89008,156.57777)"
       x1="8.8800001"
       y1="16.84"
       x2="8.8800001"
       y2="12.21" />
  </defs>
  <g
     inkscape:label="Layer 1"
     inkscape:groupmode="layer"
     id="layer1">
    <g
       id="g5"
       transform="translate(-22.739856,7.2368154)">
      <g
         id="abc3e3f9-d4db-41ad-8b60-378d1c3348f7"
         transform="matrix(0.54090706,0,0,0.54090706,30.590836,23.793872)">
        <g
           id="g6">
          <g
             id="g4">
            <path
               d="M 10.023,0.134 H 2.362 A 0.605,0.605 0 0 0 1.757,0.74 v 16.52 a 0.605,0.605 0 0 0 0.605,0.606 h 13.276 a 0.605,0.605 0 0 0 0.6,-0.606 V 6.327 a 0.605,0.605 0 0 0 -0.6,-0.606 h -4.406 a 0.605,0.605 0 0 1 -0.6,-0.605 V 0.74 A 0.6,0.6 0 0 0 10.023,0.134 Z"
               fill="#ffffff"
               id="path2" />
            <path
               d="m 9.743,0.908 v 4.149 a 1.524,1.524 0 0 0 1.52,1.523 h 4.18 V 17.092 H 2.557 V 0.908 H 9.743 M 10.036,0 H 2.264 A 0.614,0.614 0 0 0 1.65,0.615 v 16.77 A 0.614,0.614 0 0 0 2.264,18 H 15.736 A 0.614,0.614 0 0 0 16.35,17.385 V 6.286 A 0.614,0.614 0 0 0 15.736,5.672 H 11.263 A 0.614,0.614 0 0 1 10.65,5.057 V 0.615 A 0.614,0.614 0 0 0 10.036,0 Z"
               fill="url(#e5371565-cc9b-4729-9e54-9bac135a92bd)"
               id="path3"
               style="fill:url(#e5371565-cc9b-4729-9e54-9bac135a92bd)" />
            <path
               d="m 16.116,5.794 -5.678,-5.66 v 4.612 a 1.041,1.041 0 0 0 1.035,1.048 z"
               fill="#0078d4"
               id="path4" />
          </g>
          <rect
             x="4"
             y="8.1960001"
             width="9.9989996"
             height="1.341"
             rx="0.60299999"
             fill="#5ea0ef"
             id="rect4" />
          <rect
             x="4"
             y="10.599"
             width="9.9989996"
             height="1.341"
             rx="0.60299999"
             fill="#5ea0ef"
             id="rect5" />
          <rect
             x="4"
             y="13.002"
             width="6.302"
             height="1.341"
             rx="0.60299999"
             fill="#5ea0ef"
             id="rect6" />
        </g>
      </g>
      <text
         xml:space="preserve"
         style="font-style:normal;font-weight:normal;font-size:4.23333px;line-height:1.25;font-family:sans-serif;fill:#000000;fill-opacity:1;stroke:none;stroke-width:0.264583"
         x="27.869797"
         y="40.834011"
         id="text12"><tspan
           sodipodi:role="line"
           id="tspan12"
           style="font-size:4.23333px;stroke-width:0.264583"
           x="27.869797"
           y="40.834011">IaC file</tspan></text>
    </g>
    <g
       id="g3"
       transform="translate(29.310421,-21.524436)">
      <g
         id="g1"
         transform="matrix(2.0443732,0,0,2.0443732,-304.8904,-252.94615)">
        <path
           d="m 169.09019,151.92226 v -0.5027 l -0.0794,-0.0265 -0.55562,-0.18521 -0.13229,-0.34396 0.29104,-0.58208 -0.37042,-0.37042 -0.0794,0.0265 -0.50271,0.26458 -0.34396,-0.13229 -0.23813,-0.635 h -0.5027 l -0.0265,0.0794 -0.18521,0.52916 -0.34396,0.15875 -0.58208,-0.29104 -0.37042,0.37042 0.0265,0.0794 0.26458,0.50271 -0.13229,0.34396 -0.635,0.23812 v 0.50271 l 0.0794,0.0265 0.55562,0.18521 0.13229,0.34396 -0.29104,0.58208 0.37042,0.37042 0.0794,-0.0265 0.50271,-0.26458 0.34396,0.13229 0.23812,0.60854 h 0.50271 l 0.0265,-0.0794 0.18521,-0.55562 0.34396,-0.13229 0.58208,0.29104 0.37042,-0.37042 -0.0265,-0.0529 -0.26458,-0.50271 0.13229,-0.34396 z"
           fill="url(#b76ba356-3d29-41f5-a521-8647fe84a8b4)"
           id="path2-2"
           style="fill:url(#b76ba356-3d29-41f5-a521-8647fe84a8b4);stroke-width:0.264583" />
        <path
           d="m 167.71435,151.02268 -0.21166,0.18521 a 0.77020207,0.77020207 0 0 1 -0.0794,1.11125 0.76887916,0.76887916 0 0 1 -1.11125,-0.0794 0.76993749,0.76993749 0 0 1 0,-1.03187 h 0.0265 l 0.15875,0.13229 h 0.0265 v -0.0265 l -0.0529,-0.52916 c 0,-0.0265 -0.0265,-0.0265 -0.0529,-0.0265 l -0.50271,0.0794 a 0.02645833,0.02645833 0 0 0 -0.0265,0.0265 v 0 l 0.15875,0.13229 v 0 0.0265 0 a 1.0519833,1.0519833 0 1 0 1.61396,1.34938 0.96043749,0.96043749 0 0 0 0.0529,-1.34938 z"
           fill="#ffffff"
           id="path3-2"
           style="stroke-width:0.264583" />
      </g>
      <text
         xml:space="preserve"
         style="font-style:normal;font-weight:normal;font-size:4.23333px;line-height:1.25;font-family:sans-serif;text-align:center;text-anchor:middle;fill:#000000;fill-opacity:1;stroke:none;stroke-width:0.264583"
         x="36.195293"
         y="67.946915"
         id="text13"><tspan
           sodipodi:role="line"
           id="tspan13"
           style="font-size:4.23333px;text-align:center;text-anchor:middle;stroke-width:0.264583"
           x="36.195293"
           y="67.946915">provisioning</tspan><tspan
           sodipodi:role="line"
           style="font-size:4.23333px;text-align:center;text-anchor:middle;stroke-width:0.264583"
           x="36.195293"
           y="73.238579"
           id="tspan14">service</tspan></text>
    </g>
    <g
       id="g37"
       transform="translate(70.898431,-100.1755)">
      <g
         id="g2"
         transform="matrix(2.0443732,0,0,2.0443732,-329.85365,-217.13)">
        <rect
           x="178.85834"
           y="156.63333"
           width="4.7624998"
           height="3.175"
           rx="0.15875"
           fill="url(#f34d9569-2bd0-4002-8f16-3d01d8106cb5)"
           id="rect4-2"
           style="fill:url(#linearGradient34);stroke-width:0.264583" />
        <polygon
           points="11.88,4.46 11.88,7.95 8.88,9.71 8.88,6.21 "
           fill="#50e6ff"
           id="polygon4"
           transform="matrix(0.26458333,0,0,0.26458333,178.89008,156.57777)" />
        <polygon
           points="11.88,4.46 8.88,6.22 5.88,4.46 8.88,2.71 "
           fill="#c3f1ff"
           id="polygon5"
           transform="matrix(0.26458333,0,0,0.26458333,178.89008,156.57777)" />
        <polygon
           points="8.88,6.22 8.88,9.71 5.88,7.95 5.88,4.46 "
           fill="#9cebff"
           id="polygon6"
           transform="matrix(0.26458333,0,0,0.26458333,178.89008,156.57777)" />
        <polygon
           points="5.88,7.95 8.88,6.21 8.88,9.71 "
           fill="#c3f1ff"
           id="polygon7"
           transform="matrix(0.26458333,0,0,0.26458333,178.89008,156.57777)" />
        <polygon
           points="11.88,7.95 8.88,6.21 8.88,9.71 "
           fill="#9cebff"
           id="polygon8"
           transform="matrix(0.26458333,0,0,0.26458333,178.89008,156.57777)" />
        <path
           d="m 182.19473,160.76877 c -0.47096,-0.0741 -0.48948,-0.41275 -0.48948,-0.96044 h -0.93398 c 0,0.54769 -0.0159,0.88636 -0.48684,0.96044 a 0.26458333,0.26458333 0 0 0 -0.23548,0.26458 h 2.38125 a 0.26458333,0.26458333 0 0 0 -0.23547,-0.26458 z"
           fill="url(#bdb45a0b-eb58-4970-a60a-fb2ce314f866)"
           id="path8"
           style="fill:url(#linearGradient35);stroke-width:0.264583" />
      </g>
      <text
         xml:space="preserve"
         style="font-style:normal;font-weight:normal;font-size:4.23333px;line-height:1.25;font-family:sans-serif;text-align:center;text-anchor:middle;fill:#000000;fill-opacity:1;stroke:none;stroke-width:0.264583"
         x="40.76796"
         y="118.91568"
         id="text16"><tspan
           sodipodi:role="line"
           style="font-size:4.23333px;text-align:center;text-anchor:middle;stroke-width:0.264583"
           x="40.76796"
           y="118.91568"
           id="tspan17">VM 1</tspan><tspan
           sodipodi:role="line"
           style="font-size:4.23333px;text-align:center;text-anchor:middle;stroke-width:0.264583"
           x="40.76796"
           y="124.20734"
           id="tspan21">huey</tspan></text>
    </g>
    <g
       id="g7"
       transform="rotate(-90.168694,80.643632,75.913385)"
       style="stroke:#1a1a1a">
      <path
         style="fill:none;stroke:#1a1a1a;stroke-width:0.166737;stroke-linecap:butt;stroke-linejoin:miter;stroke-dasharray:none;stroke-opacity:1;marker-end:url(#marker5)"
         d="m 148.40108,151.81302 c 2.59952,0 5.19905,0 7.79858,0"
         id="path11"
         inkscape:path-effect="#path-effect12"
         inkscape:original-d="m 148.40108,151.81302 c 2.59952,0 5.19905,0 7.79858,0"
         transform="matrix(0.00138577,3.1150973,-3.0151274,0.00143172,576.40908,-444.27536)" />
      <path
         style="fill:none;stroke:#1a1a1a;stroke-width:0.166737;stroke-linecap:butt;stroke-linejoin:miter;stroke-dasharray:none;stroke-opacity:1;marker-end:url(#marker5)"
         d="m 148.40108,151.81302 c 0.99917,1.25454 1.99833,2.50907 3.32517,2.26765 1.32684,-0.24143 2.98135,-1.97881 4.63586,-3.7162"
         id="path6"
         inkscape:path-effect="#path-effect7"
         inkscape:original-d="m 148.40108,151.81302 c 0.99917,1.25454 1.99833,2.50907 2.9975,3.76361 1.65451,-1.73739 3.30902,-3.47477 4.96353,-5.21216"
         transform="matrix(0.00138577,3.1150973,-3.0151274,0.00143172,566.5851,-443.95326)"
         sodipodi:nodetypes="ccc" />
      <path
         style="fill:none;stroke:#1a1a1a;stroke-width:0.166737;stroke-linecap:butt;stroke-linejoin:miter;stroke-dasharray:none;stroke-opacity:1;marker-end:url(#marker5)"
         d="m 148.40108,151.81302 c 0.99917,1.25454 1.99833,2.50907 3.32517,2.26765 1.32684,-0.24143 2.98135,-1.97881 4.63586,-3.7162"
         id="path10"
         inkscape:path-effect="#path-effect11"
         inkscape:original-d="m 148.40108,151.81302 c 0.99917,1.25454 1.99833,2.50907 2.9975,3.76361 1.65451,-1.73739 3.30902,-3.47477 4.96353,-5.21216"
         transform="matrix(-0.00138577,3.1150973,3.0151274,0.00143172,-328.16616,-443.95326)"
         sodipodi:nodetypes="ccc" />
    </g>
    <text
       xml:space="preserve"
       style="font-style:normal;font-weight:normal;font-size:2.82222px;line-height:1.25;font-family:sans-serif;text-align:end;text-anchor:end;fill:#000000;fill-opacity:1;stroke:none;stroke-width:0.264583"
       x="44.641499"
       y="18.472986"
       id="text11"><tspan
         sodipodi:role="line"
         id="tspan11"
         style="font-size:2.82222px;text-align:end;text-anchor:end;stroke-width:0.264583"
         x="44.641499"
         y="18.472986">hostname:</tspan><tspan
         sodipodi:role="line"
         style="font-size:2.82222px;text-align:end;text-anchor:end;stroke-width:0.264583"
         x="44.641499"
         y="22.000761"
         id="tspan15">huey</tspan></text>
    <text
       xml:space="preserve"
       style="font-style:normal;font-weight:normal;font-size:2.82222px;line-height:1.25;font-family:sans-serif;text-align:end;text-anchor:end;fill:#000000;fill-opacity:1;stroke:none;stroke-width:0.264583"
       x="43.560398"
       y="37.087914"
       id="text18"><tspan
         sodipodi:role="line"
         id="tspan16"
         style="font-size:2.82222px;text-align:end;text-anchor:end;stroke-width:0.264583"
         x="43.560398"
         y="37.087914">hostname:</tspan><tspan
         sodipodi:role="line"
         style="font-size:2.82222px;text-align:end;text-anchor:end;stroke-width:0.264583"
         x="43.560398"
         y="40.615688"
         id="tspan18">dewey</tspan></text>
    <text
       xml:space="preserve"
       style="font-style:normal;font-weight:normal;font-size:2.82222px;line-height:1.25;font-family:sans-serif;text-align:end;text-anchor:end;fill:#000000;fill-opacity:1;stroke:none;stroke-width:0.264583"
       x="44.668369"
       y="51.05682"
       id="text20"><tspan
         sodipodi:role="line"
         id="tspan19"
         style="font-size:2.82222px;text-align:end;text-anchor:end;stroke-width:0.264583"
         x="44.668369"
         y="51.05682">hostname:</tspan><tspan
         sodipodi:role="line"
         style="font-size:2.82222px;text-align:end;text-anchor:end;stroke-width:0.264583"
         x="44.668369"
         y="54.584595"
         id="tspan20">louie</tspan></text>
    <g
       id="g36"
       transform="translate(53.17828,-75.453247)">
      <g
         id="g25"
         transform="matrix(2.0443732,0,0,2.0443732,-312.1335,-215.88321)">
        <rect
           x="178.85834"
           y="156.63333"
           width="4.7624998"
           height="3.175"
           rx="0.15875"
           fill="url(#f34d9569-2bd0-4002-8f16-3d01d8106cb5)"
           id="rect21"
           style="fill:url(#linearGradient26);stroke-width:0.264583" />
        <polygon
           points="11.88,4.46 11.88,7.95 8.88,9.71 8.88,6.21 "
           fill="#50e6ff"
           id="polygon21"
           transform="matrix(0.26458333,0,0,0.26458333,178.89008,156.57777)" />
        <polygon
           points="11.88,4.46 8.88,6.22 5.88,4.46 8.88,2.71 "
           fill="#c3f1ff"
           id="polygon22"
           transform="matrix(0.26458333,0,0,0.26458333,178.89008,156.57777)" />
        <polygon
           points="8.88,6.22 8.88,9.71 5.88,7.95 5.88,4.46 "
           fill="#9cebff"
           id="polygon23"
           transform="matrix(0.26458333,0,0,0.26458333,178.89008,156.57777)" />
        <polygon
           points="8.88,6.21 8.88,9.71 5.88,7.95 "
           fill="#c3f1ff"
           id="polygon24"
           transform="matrix(0.26458333,0,0,0.26458333,178.89008,156.57777)" />
        <polygon
           points="8.88,6.21 8.88,9.71 11.88,7.95 "
           fill="#9cebff"
           id="polygon25"
           transform="matrix(0.26458333,0,0,0.26458333,178.89008,156.57777)" />
        <path
           d="m 182.19473,160.76877 c -0.47096,-0.0741 -0.48948,-0.41275 -0.48948,-0.96044 h -0.93398 c 0,0.54769 -0.0159,0.88636 -0.48684,0.96044 a 0.26458333,0.26458333 0 0 0 -0.23548,0.26458 h 2.38125 a 0.26458333,0.26458333 0 0 0 -0.23547,-0.26458 z"
           fill="url(#bdb45a0b-eb58-4970-a60a-fb2ce314f866)"
           id="path25"
           style="fill:url(#linearGradient27);stroke-width:0.264583" />
      </g>
      <text
         xml:space="preserve"
         style="font-style:normal;font-weight:normal;font-size:4.23333px;line-height:1.25;font-family:sans-serif;text-align:center;text-anchor:middle;fill:#000000;fill-opacity:1;stroke:none;stroke-width:0.264583"
         x="58.339283"
         y="120.16247"
         id="text26"><tspan
           sodipodi:role="line"
           style="font-size:4.23333px;text-align:center;text-anchor:middle;stroke-width:0.264583"
           x="58.339283"
           y="120.16247"
           id="tspan25">VM 2</tspan><tspan
           sodipodi:role="line"
           style="font-size:4.23333px;text-align:center;text-anchor:middle;stroke-width:0.264583"
           x="58.339283"
           y="125.45413"
           id="tspan26">dewey</tspan></text>
    </g>
    <g
       id="g35"
       transform="translate(35.787885,-50.125149)">
      <g
         id="g31"
         transform="matrix(2.0443732,0,0,2.0443732,-294.7431,-215.24223)">
        <rect
           x="178.85834"
           y="156.63333"
           width="4.7624998"
           height="3.175"
           rx="0.15875"
           fill="url(#f34d9569-2bd0-4002-8f16-3d01d8106cb5)"
           id="rect27"
           style="fill:url(#linearGradient32);stroke-width:0.264583" />
        <polygon
           points="8.88,9.71 8.88,6.21 11.88,4.46 11.88,7.95 "
           fill="#50e6ff"
           id="polygon27"
           transform="matrix(0.26458333,0,0,0.26458333,178.89008,156.57777)" />
        <polygon
           points="5.88,4.46 8.88,2.71 11.88,4.46 8.88,6.22 "
           fill="#c3f1ff"
           id="polygon28"
           transform="matrix(0.26458333,0,0,0.26458333,178.89008,156.57777)" />
        <polygon
           points="5.88,7.95 5.88,4.46 8.88,6.22 8.88,9.71 "
           fill="#9cebff"
           id="polygon29"
           transform="matrix(0.26458333,0,0,0.26458333,178.89008,156.57777)" />
        <polygon
           points="8.88,9.71 5.88,7.95 8.88,6.21 "
           fill="#c3f1ff"
           id="polygon30"
           transform="matrix(0.26458333,0,0,0.26458333,178.89008,156.57777)" />
        <polygon
           points="8.88,9.71 11.88,7.95 8.88,6.21 "
           fill="#9cebff"
           id="polygon31"
           transform="matrix(0.26458333,0,0,0.26458333,178.89008,156.57777)" />
        <path
           d="m 182.19473,160.76877 c -0.47096,-0.0741 -0.48948,-0.41275 -0.48948,-0.96044 h -0.93398 c 0,0.54769 -0.0159,0.88636 -0.48684,0.96044 a 0.26458333,0.26458333 0 0 0 -0.23548,0.26458 h 2.38125 a 0.26458333,0.26458333 0 0 0 -0.23547,-0.26458 z"
           fill="url(#bdb45a0b-eb58-4970-a60a-fb2ce314f866)"
           id="path31"
           style="fill:url(#linearGradient33);stroke-width:0.264583" />
      </g>
      <text
         xml:space="preserve"
         style="font-style:normal;font-weight:normal;font-size:4.23333px;line-height:1.25;font-family:sans-serif;text-align:center;text-anchor:middle;fill:#000000;fill-opacity:1;stroke:none;stroke-width:0.264583"
         x="75.910545"
         y="120.80344"
         id="text32"><tspan
           sodipodi:role="line"
           style="font-size:4.23333px;text-align:center;text-anchor:middle;stroke-width:0.264583"
           x="75.910545"
           y="120.80344"
           id="tspan31">VM 3</tspan><tspan
           sodipodi:role="line"
           style="font-size:4.23333px;text-align:center;text-anchor:middle;stroke-width:0.264583"
           x="75.910545"
           y="126.0951"
           id="tspan32">louie</tspan></text>
    </g>
    <path
       style="fill:none;stroke:#1a1a1a;stroke-width:0.264583px;stroke-linecap:butt;stroke-linejoin:miter;stroke-opacity:1;marker-end:url(#Triangle)"
       d="m 149.11402,150.82982 c 3.88652,0.001 7.77305,0.003 11.65958,0.004"
       id="path9"
       inkscape:path-effect="#path-effect9"
       inkscape:original-d="m 149.11402,150.82982 c 3.88652,0.001 7.77305,0.003 11.65958,0.004"
       transform="matrix(1.9279674,-0.00361181,0.00305733,2.0443697,-208.98937,-272.40847)"
       sodipodi:nodetypes="cc" />
    <path
       style="fill:none;stroke:#1a1a1a;stroke-width:0.264583px;stroke-linecap:butt;stroke-linejoin:miter;stroke-opacity:1;marker-end:url(#Triangle)"
       d="m 149.3139,144.40871 c 3.81833,3.12256 7.63669,6.24514 11.45503,9.36771"
       id="path37"
       inkscape:path-effect="#path-effect38"
       inkscape:original-d="m 149.3139,144.40871 c 3.81833,3.12256 7.63669,6.24514 11.45503,9.36771"
       transform="matrix(1.9279674,-0.00361181,0.00305733,2.0443697,-209.01654,-254.79519)"
       sodipodi:nodetypes="cc" />
    <path
       style="fill:none;stroke:#1a1a1a;stroke-width:0.264583px;stroke-linecap:butt;stroke-linejoin:miter;stroke-opacity:1;marker-end:url(#Triangle)"
       d="m 149.09215,157.4881 c 3.93748,-3.58033 7.87498,-7.16068 11.81248,-10.74102"
       id="path38"
       inkscape:path-effect="#path-effect40"
       inkscape:original-d="m 149.09215,157.4881 c 3.93748,-3.58033 7.87498,-7.16068 11.81248,-10.74102"
       transform="matrix(1.9279674,-0.00361181,0.00305733,2.0443697,-208.96221,-290.02175)"
       sodipodi:nodetypes="cc" />
  </g>
</svg>
