<?xml version="1.0" encoding="UTF-8" standalone="no"?>
<!-- Created with Inkscape (http://www.inkscape.org/) -->
<!--
Cowboy Hat Face from Vincent Le Moign
  Source: https://commons.wikimedia.org/wiki/File:078-cowboy-hat-face.svg
  License: https://creativecommons.org/licenses/by/4.0/deed.en
-->

<svg
   width="104mm"
   height="100mm"
   viewBox="0 0 104 100"
   version="1.1"
   id="svg1"
   inkscape:version="1.3.1 (91b66b0, 2023-11-16)"
   sodipodi:docname="iac-known-state.svg"
   xmlns:inkscape="http://www.inkscape.org/namespaces/inkscape"
   xmlns:sodipodi="http://sodipodi.sourceforge.net/DTD/sodipodi-0.dtd"
   xmlns:xlink="http://www.w3.org/1999/xlink"
   xmlns="http://www.w3.org/2000/svg"
   xmlns:svg="http://www.w3.org/2000/svg">
  <sodipodi:namedview
     id="namedview1"
     pagecolor="#ffffff"
     bordercolor="#666666"
     borderopacity="1.0"
     inkscape:showpageshadow="2"
     inkscape:pageopacity="0.0"
     inkscape:pagecheckerboard="0"
     inkscape:deskcolor="#d1d1d1"
     inkscape:document-units="mm"
     inkscape:zoom="2.4081067"
     inkscape:cx="131.43105"
     inkscape:cy="111.70601"
     inkscape:window-width="1440"
     inkscape:window-height="811"
     inkscape:window-x="8"
     inkscape:window-y="25"
     inkscape:window-maximized="0"
     inkscape:current-layer="layer1" />
  <defs
     id="defs1">
    <inkscape:path-effect
       effect="bspline"
       id="path-effect7"
       is_visible="true"
       lpeversion="1.3"
       weight="33.333333"
       steps="2"
       helper_size="0"
       apply_no_weight="true"
       apply_with_weight="true"
       only_selected="false"
       uniform="false" />
    <inkscape:path-effect
       effect="bspline"
       id="path-effect31"
       is_visible="true"
       lpeversion="1.3"
       weight="33.333333"
       steps="2"
       helper_size="0"
       apply_no_weight="true"
       apply_with_weight="true"
       only_selected="false"
       uniform="false" />
    <inkscape:path-effect
       effect="bspline"
       id="path-effect29"
       is_visible="true"
       lpeversion="1.3"
       weight="33.333333"
       steps="2"
       helper_size="0"
       apply_no_weight="true"
       apply_with_weight="true"
       only_selected="false"
       uniform="false" />
    <inkscape:path-effect
       effect="bspline"
       id="path-effect20"
       is_visible="true"
       lpeversion="1.3"
       weight="33.333333"
       steps="2"
       helper_size="0"
       apply_no_weight="true"
       apply_with_weight="true"
       only_selected="false"
       uniform="false" />
    <inkscape:path-effect
       effect="bspline"
       id="path-effect12"
       is_visible="true"
       lpeversion="1.3"
       weight="33.333333"
       steps="2"
       helper_size="0"
       apply_no_weight="true"
       apply_with_weight="true"
       only_selected="false"
       uniform="false" />
    <marker
       style="overflow:visible"
       id="Triangle"
       refX="0"
       refY="0"
       orient="auto-start-reverse"
       inkscape:stockid="Triangle arrow"
       markerWidth="1"
       markerHeight="1"
       viewBox="0 0 1 1"
       inkscape:isstock="true"
       inkscape:collect="always"
       preserveAspectRatio="xMidYMid">
      <path
         transform="scale(0.5)"
         style="fill:context-stroke;fill-rule:evenodd;stroke:context-stroke;stroke-width:1pt"
         d="M 5.77,0 -2.88,5 V -5 Z"
         id="path135" />
    </marker>
    <inkscape:path-effect
       effect="bspline"
       id="path-effect9"
       is_visible="true"
       lpeversion="1.3"
       weight="33.333333"
       steps="2"
       helper_size="0"
       apply_no_weight="true"
       apply_with_weight="true"
       only_selected="false"
       uniform="false" />
    <inkscape:path-effect
       effect="bspline"
       id="path-effect5"
       is_visible="true"
       lpeversion="1.3"
       weight="33.333333"
       steps="2"
       helper_size="0"
       apply_no_weight="true"
       apply_with_weight="true"
       only_selected="false"
       uniform="false" />
    <linearGradient
       id="e5371565-cc9b-4729-9e54-9bac135a92bd"
       x1="9"
       y1="18"
       x2="9"
       gradientUnits="userSpaceOnUse">
      <stop
         offset="0"
         stop-color="#0078d4"
         id="stop1" />
      <stop
         offset="0.817"
         stop-color="#5ea0ef"
         id="stop2" />
    </linearGradient>
    <linearGradient
       id="b76ba356-3d29-41f5-a521-8647fe84a8b4"
       x1="9"
       y1="297.5"
       x2="9"
       y2="280.5"
       gradientTransform="matrix(0.26458333,0,0,0.26458333,164.45998,75.219554)"
       gradientUnits="userSpaceOnUse">
      <stop
         offset="0"
         stop-color="#32bedd"
         id="stop1-9" />
      <stop
         offset="1"
         stop-color="#32d4f5"
         id="stop2-0" />
    </linearGradient>
    <linearGradient
       id="bdb45a0b-eb58-4970-a60a-fb2ce314f866"
       x1="8.8800001"
       y1="16.84"
       x2="8.8800001"
       y2="12.21"
       gradientUnits="userSpaceOnUse"
       gradientTransform="matrix(0.26458333,0,0,0.26458333,178.89008,156.57777)">
      <stop
         offset="0.15"
         stop-color="#ccc"
         id="stop3" />
      <stop
         offset="1"
         stop-color="#707070"
         id="stop4" />
    </linearGradient>
    <linearGradient
       id="f34d9569-2bd0-4002-8f16-3d01d8106cb5"
       x1="8.8800001"
       y1="12.21"
       x2="8.8800001"
       y2="0.20999999"
       gradientUnits="userSpaceOnUse"
       gradientTransform="matrix(0.26458333,0,0,0.26458333,178.89008,156.57777)">
      <stop
         offset="0"
         stop-color="#0078d4"
         id="stop1-7" />
      <stop
         offset="0.82"
         stop-color="#5ea0ef"
         id="stop2-9" />
    </linearGradient>
    <linearGradient
       inkscape:collect="always"
       xlink:href="#bdb45a0b-eb58-4970-a60a-fb2ce314f866"
       id="linearGradient19"
       gradientUnits="userSpaceOnUse"
       gradientTransform="matrix(0.26458333,0,0,0.26458333,178.89008,156.57777)"
       x1="8.8800001"
       y1="16.84"
       x2="8.8800001"
       y2="12.21" />
    <linearGradient
       inkscape:collect="always"
       xlink:href="#f34d9569-2bd0-4002-8f16-3d01d8106cb5"
       id="linearGradient21"
       gradientUnits="userSpaceOnUse"
       gradientTransform="matrix(0.26458333,0,0,0.26458333,178.89008,156.57777)"
       x1="8.8800001"
       y1="12.21"
       x2="8.8800001"
       y2="0.20999999" />
    <linearGradient
       inkscape:collect="always"
       xlink:href="#bdb45a0b-eb58-4970-a60a-fb2ce314f866"
       id="linearGradient22"
       gradientUnits="userSpaceOnUse"
       gradientTransform="matrix(0.26458333,0,0,0.26458333,178.89008,156.57777)"
       x1="8.8800001"
       y1="16.84"
       x2="8.8800001"
       y2="12.21" />
    <linearGradient
       inkscape:collect="always"
       xlink:href="#f34d9569-2bd0-4002-8f16-3d01d8106cb5"
       id="linearGradient15"
       gradientUnits="userSpaceOnUse"
       gradientTransform="matrix(0.26458333,0,0,0.26458333,178.89008,156.57777)"
       x1="8.8800001"
       y1="12.21"
       x2="8.8800001"
       y2="0.20999999" />
    <linearGradient
       inkscape:collect="always"
       xlink:href="#bdb45a0b-eb58-4970-a60a-fb2ce314f866"
       id="linearGradient16"
       gradientUnits="userSpaceOnUse"
       gradientTransform="matrix(0.26458333,0,0,0.26458333,178.89008,156.57777)"
       x1="8.8800001"
       y1="16.84"
       x2="8.8800001"
       y2="12.21" />
  </defs>
  <g
     inkscape:label="Layer 1"
     inkscape:groupmode="layer"
     id="layer1">
    <g
       id="g2"
       transform="matrix(2.0443732,0,0,2.0443732,-315.25196,-316.12154)">
      <rect
         x="178.85834"
         y="156.63333"
         width="4.7624998"
         height="3.175"
         rx="0.15875"
         fill="url(#f34d9569-2bd0-4002-8f16-3d01d8106cb5)"
         id="rect4-2"
         style="fill:url(#linearGradient21);stroke-width:0.264583" />
      <polygon
         points="11.88,7.95 8.88,9.71 8.88,6.21 11.88,4.46 "
         fill="#50e6ff"
         id="polygon4"
         transform="matrix(0.26458333,0,0,0.26458333,178.89008,156.57777)" />
      <polygon
         points="8.88,6.22 5.88,4.46 8.88,2.71 11.88,4.46 "
         fill="#c3f1ff"
         id="polygon5"
         transform="matrix(0.26458333,0,0,0.26458333,178.89008,156.57777)" />
      <polygon
         points="8.88,9.71 5.88,7.95 5.88,4.46 8.88,6.22 "
         fill="#9cebff"
         id="polygon6"
         transform="matrix(0.26458333,0,0,0.26458333,178.89008,156.57777)" />
      <polygon
         points="5.88,7.95 8.88,6.21 8.88,9.71 "
         fill="#c3f1ff"
         id="polygon7"
         transform="matrix(0.26458333,0,0,0.26458333,178.89008,156.57777)" />
      <polygon
         points="11.88,7.95 8.88,6.21 8.88,9.71 "
         fill="#9cebff"
         id="polygon8"
         transform="matrix(0.26458333,0,0,0.26458333,178.89008,156.57777)" />
      <path
         d="m 182.19473,160.76877 c -0.47096,-0.0741 -0.48948,-0.41275 -0.48948,-0.96044 h -0.93398 c 0,0.54769 -0.0159,0.88636 -0.48684,0.96044 a 0.26458333,0.26458333 0 0 0 -0.23548,0.26458 h 2.38125 a 0.26458333,0.26458333 0 0 0 -0.23547,-0.26458 z"
         fill="url(#bdb45a0b-eb58-4970-a60a-fb2ce314f866)"
         id="path8"
         style="fill:url(#linearGradient22);stroke-width:0.264583" />
    </g>
    <path
       style="fill:none;stroke:#000000;stroke-width:0.264583px;stroke-linecap:butt;stroke-linejoin:miter;stroke-opacity:1;marker-end:url(#Triangle)"
       d="m 148.40108,151.81302 c 3.58852,6.7e-4 7.17706,0.001 10.76558,0.002"
       id="path11"
       inkscape:path-effect="#path-effect12"
       inkscape:original-d="m 148.40108,151.81302 c 3.58852,7.9e-4 7.17706,0.002 10.76558,0.002"
       transform="matrix(2.0443732,0,0,2.0443732,-278.44596,-301.76938)"
       sodipodi:nodetypes="cc" />
    <g
       id="g21"
       transform="translate(0.56356595,-0.21393908)">
      <g
         id="g20">
        <g
           id="abc3e3f9-d4db-41ad-8b60-378d1c3348f7"
           transform="matrix(0.54090706,0,0,0.54090706,5.0942948,3.2244835)">
          <g
             id="g6">
            <g
               id="g4">
              <path
                 d="M 10.023,0.134 H 2.362 A 0.605,0.605 0 0 0 1.757,0.74 v 16.52 a 0.605,0.605 0 0 0 0.605,0.606 h 13.276 a 0.605,0.605 0 0 0 0.6,-0.606 V 6.327 a 0.605,0.605 0 0 0 -0.6,-0.606 h -4.406 a 0.605,0.605 0 0 1 -0.6,-0.605 V 0.74 A 0.6,0.6 0 0 0 10.023,0.134 Z"
                 fill="#ffffff"
                 id="path2" />
              <path
                 d="m 9.743,0.908 v 4.149 a 1.524,1.524 0 0 0 1.52,1.523 h 4.18 V 17.092 H 2.557 V 0.908 H 9.743 M 10.036,0 H 2.264 A 0.614,0.614 0 0 0 1.65,0.615 v 16.77 A 0.614,0.614 0 0 0 2.264,18 H 15.736 A 0.614,0.614 0 0 0 16.35,17.385 V 6.286 A 0.614,0.614 0 0 0 15.736,5.672 H 11.263 A 0.614,0.614 0 0 1 10.65,5.057 V 0.615 A 0.614,0.614 0 0 0 10.036,0 Z"
                 fill="url(#e5371565-cc9b-4729-9e54-9bac135a92bd)"
                 id="path3"
                 style="fill:url(#e5371565-cc9b-4729-9e54-9bac135a92bd)" />
              <path
                 d="m 16.116,5.794 -5.678,-5.66 v 4.612 a 1.041,1.041 0 0 0 1.035,1.048 z"
                 fill="#0078d4"
                 id="path4" />
            </g>
            <rect
               x="4"
               y="8.1960001"
               width="9.9989996"
               height="1.341"
               rx="0.60299999"
               fill="#5ea0ef"
               id="rect4" />
            <rect
               x="4"
               y="10.599"
               width="9.9989996"
               height="1.341"
               rx="0.60299999"
               fill="#5ea0ef"
               id="rect5" />
            <rect
               x="4"
               y="13.002"
               width="6.302"
               height="1.341"
               rx="0.60299999"
               fill="#5ea0ef"
               id="rect6" />
          </g>
        </g>
        <g
           id="g1"
           transform="matrix(2.0443732,0,0,2.0443732,-323.84802,-301.44642)">
          <path
             d="m 169.09019,151.92226 v -0.5027 l -0.0794,-0.0265 -0.55562,-0.18521 -0.13229,-0.34396 0.29104,-0.58208 -0.37042,-0.37042 -0.0794,0.0265 -0.50271,0.26458 -0.34396,-0.13229 -0.23813,-0.635 h -0.5027 l -0.0265,0.0794 -0.18521,0.52916 -0.34396,0.15875 -0.58208,-0.29104 -0.37042,0.37042 0.0265,0.0794 0.26458,0.50271 -0.13229,0.34396 -0.635,0.23812 v 0.50271 l 0.0794,0.0265 0.55562,0.18521 0.13229,0.34396 -0.29104,0.58208 0.37042,0.37042 0.0794,-0.0265 0.50271,-0.26458 0.34396,0.13229 0.23812,0.60854 h 0.50271 l 0.0265,-0.0794 0.18521,-0.55562 0.34396,-0.13229 0.58208,0.29104 0.37042,-0.37042 -0.0265,-0.0529 -0.26458,-0.50271 0.13229,-0.34396 z"
             fill="url(#b76ba356-3d29-41f5-a521-8647fe84a8b4)"
             id="path2-2"
             style="fill:url(#b76ba356-3d29-41f5-a521-8647fe84a8b4);stroke-width:0.264583" />
          <path
             d="m 167.71435,151.02268 -0.21166,0.18521 a 0.77020207,0.77020207 0 0 1 -0.0794,1.11125 0.76887916,0.76887916 0 0 1 -1.11125,-0.0794 0.76993749,0.76993749 0 0 1 0,-1.03187 h 0.0265 l 0.15875,0.13229 h 0.0265 v -0.0265 l -0.0529,-0.52916 c 0,-0.0265 -0.0265,-0.0265 -0.0529,-0.0265 l -0.50271,0.0794 a 0.02645833,0.02645833 0 0 0 -0.0265,0.0265 v 0 l 0.15875,0.13229 v 0 0.0265 0 a 1.0519833,1.0519833 0 1 0 1.61396,1.34938 0.96043749,0.96043749 0 0 0 0.0529,-1.34938 z"
             fill="#ffffff"
             id="path3-2"
             style="stroke-width:0.264583" />
        </g>
      </g>
      <text
         xml:space="preserve"
         style="font-style:normal;font-weight:normal;font-size:4.23333px;line-height:1.25;font-family:sans-serif;fill:#000000;fill-opacity:1;stroke:none;stroke-width:0.264583"
         x="8.9409075"
         y="20.759388"
         id="text12"><tspan
           sodipodi:role="line"
           id="tspan12"
           style="font-size:4.23333px;stroke-width:0.264583"
           x="8.9409075"
           y="20.759388">IaC</tspan></text>
    </g>
    <text
       xml:space="preserve"
       style="font-style:normal;font-weight:normal;font-size:4.23333px;line-height:1.25;font-family:sans-serif;text-align:center;text-anchor:middle;fill:#000000;fill-opacity:1;stroke:none;stroke-width:0.264583"
       x="55.181519"
       y="19.924145"
       id="text16"><tspan
         sodipodi:role="line"
         style="font-size:4.23333px;text-align:center;text-anchor:middle;stroke-width:0.264583"
         x="55.181519"
         y="19.924145"
         id="tspan16">new</tspan><tspan
         sodipodi:role="line"
         style="font-size:4.23333px;text-align:center;text-anchor:middle;stroke-width:0.264583"
         x="55.181519"
         y="25.215807"
         id="tspan17">resource</tspan></text>
    <g
       id="g12"
       transform="matrix(2.0443732,0,0,2.0443732,-284.13425,-273.31884)">
      <rect
         x="178.85834"
         y="156.63333"
         width="4.7624998"
         height="3.175"
         rx="0.15875"
         fill="url(#f34d9569-2bd0-4002-8f16-3d01d8106cb5)"
         id="rect3"
         style="fill:#999999;stroke-width:0.264583" />
      <polygon
         points="8.88,6.21 11.88,4.46 11.88,7.95 8.88,9.71 "
         fill="#50e6ff"
         id="polygon3"
         transform="matrix(0.26458333,0,0,0.26458333,178.89008,156.57777)" />
      <polygon
         points="8.88,2.71 11.88,4.46 8.88,6.22 5.88,4.46 "
         fill="#c3f1ff"
         id="polygon9"
         transform="matrix(0.26458333,0,0,0.26458333,178.89008,156.57777)" />
      <polygon
         points="5.88,4.46 8.88,6.22 8.88,9.71 5.88,7.95 "
         fill="#9cebff"
         id="polygon10"
         transform="matrix(0.26458333,0,0,0.26458333,178.89008,156.57777)" />
      <polygon
         points="8.88,9.71 5.88,7.95 8.88,6.21 "
         fill="#c3f1ff"
         id="polygon11"
         transform="matrix(0.26458333,0,0,0.26458333,178.89008,156.57777)" />
      <polygon
         points="8.88,9.71 11.88,7.95 8.88,6.21 "
         fill="#9cebff"
         id="polygon12"
         transform="matrix(0.26458333,0,0,0.26458333,178.89008,156.57777)" />
      <path
         d="m 182.19473,160.76877 c -0.47096,-0.0741 -0.48948,-0.41275 -0.48948,-0.96044 h -0.93398 c 0,0.54769 -0.0159,0.88636 -0.48684,0.96044 a 0.26458333,0.26458333 0 0 0 -0.23548,0.26458 h 2.38125 a 0.26458333,0.26458333 0 0 0 -0.23547,-0.26458 z"
         fill="url(#bdb45a0b-eb58-4970-a60a-fb2ce314f866)"
         id="path12"
         style="fill:url(#linearGradient19);stroke-width:0.264583" />
    </g>
    <text
       xml:space="preserve"
       style="font-style:normal;font-weight:normal;font-size:4.23333px;line-height:1.25;font-family:sans-serif;text-align:center;text-anchor:middle;fill:#000000;fill-opacity:1;stroke:none;stroke-width:0.264583"
       x="86.29924"
       y="62.726841"
       id="text18"><tspan
         sodipodi:role="line"
         style="font-size:4.23333px;text-align:center;text-anchor:middle;stroke-width:0.264583"
         x="86.29924"
         y="62.726841"
         id="tspan15">dirty</tspan><tspan
         sodipodi:role="line"
         style="font-size:4.23333px;text-align:center;text-anchor:middle;stroke-width:0.264583"
         x="86.29924"
         y="68.018501"
         id="tspan18">resource</tspan></text>
    <path
       style="fill:none;stroke:#000000;stroke-width:0.264583px;stroke-linecap:butt;stroke-linejoin:miter;stroke-opacity:1;marker-end:url(#Triangle)"
       d="m 163.77543,140.01214 c 3.13751,5.70727 6.27504,11.41456 9.41256,17.12185"
       id="path19"
       inkscape:path-effect="#path-effect20"
       inkscape:original-d="m 163.77543,140.01214 c 3.13751,5.70727 6.27504,11.41456 9.41256,17.12185"
       transform="matrix(2.0443732,0,0,2.0443732,-271.67404,-277.94959)"
       sodipodi:nodetypes="cc" />
    <g
       id="XMLID_736_"
       transform="matrix(0.26458333,0,0,0.26458333,68.971248,23.643753)">
      <ellipse
         id="XMLID_2401_"
         class="st3"
         cx="24"
         cy="45.5"
         rx="12"
         ry="1.5"
         style="opacity:0.15;fill:#45413c" />
      <path
         id="XMLID_2387_"
         class="st50"
         d="M 24,28.6 C 5.6,28.6 -2,20 2.2,14.1 5.9,9 13.4,17 24,17 34.6,17 42.1,9 45.8,14.1 50,20 42.4,28.6 24,28.6 Z"
         style="fill:#f0d5a8" />
      <path
         id="XMLID_2386_"
         class="st51"
         d="M 44.2,12.8 C 40.2,10.8 33.3,17 24,17 14.7,17 7.8,10.8 3.8,12.8 0.6,18.2 7.7,25.6 24,25.6 c 16.3,0 23.4,-7.4 20.2,-12.8 z"
         style="fill:#debb7e" />
      <path
         id="XMLID_2385_"
         class="st4"
         d="M 24,28.6 C 5.6,28.6 -2,20 2.2,14.1 5.9,9 13.4,17 24,17 34.6,17 42.1,9 45.8,14.1 50,20 42.4,28.6 24,28.6 Z"
         style="fill:none;stroke:#45413c;stroke-linecap:round;stroke-linejoin:round;stroke-miterlimit:10" />
      <circle
         id="XMLID_2384_"
         class="st0"
         cx="24"
         cy="25"
         r="14.5"
         style="fill:#ffe500" />
      <path
         class="st1"
         d="m 11.8,17.1 c 3.6,1.5 7.6,2.9 12.2,2.9 4.6,0 8.6,-1.4 12.2,-2.9 -2.6,-4 -7.1,-6.7 -12.2,-6.7 -5.1,0 -9.6,2.7 -12.2,6.7 z"
         id="path1"
         style="fill:#ebcb00" />
      <path
         id="XMLID_2380_"
         class="st1"
         d="M 24,10.5 C 16,10.5 9.5,17 9.5,25 9.5,33 16,39.5 24,39.5 32,39.5 38.5,33 38.5,25 38.5,17 32,10.5 24,10.5 Z m 0,26.8 c -7.3,0 -13.2,-5.9 -13.2,-13.2 0,-7.3 5.9,-13.2 13.2,-13.2 7.3,0 13.2,5.9 13.2,13.2 0,7.3 -5.9,13.2 -13.2,13.2 z"
         style="fill:#ebcb00" />
      <circle
         id="XMLID_2378_"
         class="st4"
         cx="24"
         cy="25"
         r="14.5"
         style="fill:none;stroke:#45413c;stroke-linecap:round;stroke-linejoin:round;stroke-miterlimit:10" />
      <ellipse
         id="XMLID_2377_"
         class="st5"
         cx="32.700001"
         cy="28.6"
         rx="1.8"
         ry="1.1"
         style="fill:#ffaa54" />
      <ellipse
         id="XMLID_2376_"
         class="st5"
         cx="15.3"
         cy="28.6"
         rx="1.8"
         ry="1.1"
         style="fill:#ffaa54" />
      <circle
         id="XMLID_2375_"
         class="st11"
         cx="16.4"
         cy="24.299999"
         r="0.69999999"
         style="fill:#45413c;stroke:#45413c;stroke-linecap:round;stroke-linejoin:round;stroke-miterlimit:10" />
      <circle
         id="XMLID_2374_"
         class="st11"
         cx="31.6"
         cy="24.299999"
         r="0.69999999"
         style="fill:#45413c;stroke:#45413c;stroke-linecap:round;stroke-linejoin:round;stroke-miterlimit:10" />
      <path
         id="XMLID_2373_"
         class="st6"
         d="m 24,37.3 c 4.1,0 7.5,-2.9 8,-6.6 0,-0.2 -0.1,-0.5 -0.2,-0.6 -0.2,-0.2 -0.4,-0.2 -0.7,-0.2 -4.7,0.8 -9.4,0.8 -14.2,0 -0.2,0 -0.5,0 -0.7,0.2 -0.2,0.2 -0.3,0.4 -0.2,0.6 0.5,3.7 3.9,6.6 8,6.6 z"
         style="fill:#ffb0ca;stroke:#45413c;stroke-linecap:round;stroke-linejoin:round;stroke-miterlimit:10" />
      <path
         id="XMLID_2372_"
         class="st7"
         d="m 24,33.7 c -2.3,0 -4.5,0.5 -5.9,1.2 1.5,1.5 3.5,2.4 5.9,2.4 2.4,0 4.4,-0.9 5.9,-2.4 -1.4,-0.7 -3.6,-1.2 -5.9,-1.2 z"
         style="fill:#ff87af;stroke:#45413c;stroke-linecap:round;stroke-linejoin:round;stroke-miterlimit:10" />
      <path
         id="XMLID_2371_"
         class="st52"
         d="m 24,17 c 4.2,0 7.8,-1.2 11,-2.4 L 33,8.1 C 32.8,7.3 32.3,6.5 31.6,6 L 29,3.9 C 28.4,3.4 27.5,3.3 26.8,3.8 26,4.3 25.2,4.9 23.9,4.9 22.6,4.9 21.8,4.4 21,3.8 20.3,3.4 19.4,3.4 18.8,3.9 L 16.3,6 C 15.6,6.5 15.1,7.3 14.9,8.1 L 13,14.6 c 3.2,1.2 6.8,2.4 11,2.4 z"
         style="fill:#b89558" />
      <path
         id="XMLID_1415_"
         class="st51"
         d="M 15.4,8.6 18.3,6.5 C 19,6 20,5.9 20.8,6.4 21.7,6.9 22.6,7.5 24,7.5 25.4,7.5 26.3,7 27.2,6.4 28,5.9 29,6 29.7,6.5 l 2.9,2.1 c 0.3,0.2 0.6,0.5 0.9,0.8 L 33,8.1 C 32.8,7.3 32.3,6.5 31.6,6 L 29,3.9 C 28.4,3.4 27.5,3.3 26.8,3.8 26,4.3 25.2,4.9 23.9,4.9 22.6,4.9 21.8,4.4 21,3.8 20.3,3.4 19.4,3.4 18.8,3.9 L 16.3,6 c -0.7,0.5 -1.2,1.3 -1.4,2.1 l -0.4,1.3 c 0.3,-0.3 0.6,-0.6 0.9,-0.8 z"
         style="fill:#debb7e" />
      <path
         id="XMLID_2369_"
         class="st4"
         d="m 24,17 c 4.2,0 7.8,-1.2 11,-2.4 L 33,8.1 C 32.8,7.3 32.3,6.5 31.6,6 L 29,3.9 C 28.4,3.4 27.5,3.3 26.8,3.8 26,4.3 25.2,4.9 23.9,4.9 22.6,4.9 21.8,4.4 21,3.8 20.3,3.4 19.4,3.4 18.8,3.9 L 16.3,6 C 15.6,6.5 15.1,7.3 14.9,8.1 L 13,14.6 c 3.2,1.2 6.8,2.4 11,2.4 z"
         style="fill:none;stroke:#45413c;stroke-linecap:round;stroke-linejoin:round;stroke-miterlimit:10" />
    </g>
    <text
       xml:space="preserve"
       style="font-style:normal;font-weight:normal;font-size:4.23333px;line-height:1.25;font-family:sans-serif;text-align:center;text-anchor:middle;fill:#000000;fill-opacity:1;stroke:none;stroke-width:0.264583"
       x="55.14349"
       y="91.942795"
       id="text27"><tspan
         sodipodi:role="line"
         style="font-size:4.23333px;text-align:center;text-anchor:middle;stroke-width:0.264583"
         x="55.14349"
         y="91.942795"
         id="tspan26">happy</tspan><tspan
         sodipodi:role="line"
         style="font-size:4.23333px;text-align:center;text-anchor:middle;stroke-width:0.264583"
         x="55.14349"
         y="97.234459"
         id="tspan27">resource</tspan></text>
    <path
       style="fill:none;stroke:#999999;stroke-width:0.264583px;stroke-linecap:butt;stroke-linejoin:miter;stroke-opacity:1;marker-end:url(#Triangle)"
       d="m 159.9753,148.99815 c 6.4033,7.9512 12.80663,15.90242 19.20995,23.85364"
       id="path28"
       transform="matrix(2.0443732,0,0,2.0443732,-313.52426,-281.40017)"
       sodipodi:nodetypes="cc"
       inkscape:original-d="m 159.9753,148.99815 c 6.4033,7.9512 12.80663,15.90242 19.20995,23.85364"
       inkscape:path-effect="#path-effect29" />
    <path
       style="fill:none;stroke:#999999;stroke-width:0.264629;stroke-linecap:butt;stroke-linejoin:miter;stroke-dasharray:1.05852, 0.264629;stroke-dashoffset:0;stroke-opacity:1;marker-end:url(#Triangle)"
       d="m 175.7091,149.87733 c -3.37013,3.29495 -6.74028,6.58992 -10.11042,9.88487"
       id="path29"
       inkscape:path-effect="#path-effect31"
       inkscape:original-d="m 175.7091,149.87733 c -3.37013,3.29495 -6.74028,6.58992 -10.11042,9.88487"
       transform="matrix(2.0443732,0,0,2.0443732,-281.69142,-254.36844)"
       sodipodi:nodetypes="cc" />
    <text
       xml:space="preserve"
       style="font-style:normal;font-weight:normal;font-size:2.82222px;line-height:1.25;font-family:sans-serif;text-align:center;text-anchor:middle;fill:#000000;fill-opacity:1;stroke:none;stroke-width:0.264583"
       x="88.002922"
       y="16.841877"
       id="text31"><tspan
         sodipodi:role="line"
         id="tspan31"
         style="font-size:2.82222px;text-align:center;text-anchor:middle;stroke-width:0.264583"
         x="88.002922"
         y="16.841877">cowboy admin</tspan><tspan
         sodipodi:role="line"
         style="font-size:2.82222px;text-align:center;text-anchor:middle;stroke-width:0.264583"
         x="88.002922"
         y="20.369652"
         id="tspan32">screws up resource</tspan></text>
    <text
       xml:space="preserve"
       style="font-style:normal;font-weight:normal;font-size:2.82222px;line-height:1.25;font-family:sans-serif;text-align:center;text-anchor:middle;fill:#1a1a1a;fill-opacity:1;stroke:none;stroke-width:0.264583"
       x="18.886358"
       y="50.912006"
       id="text34"><tspan
         sodipodi:role="line"
         style="font-size:2.82222px;text-align:center;text-anchor:middle;stroke-width:0.264583;fill:#1a1a1a"
         x="18.886358"
         y="50.912006"
         id="tspan34">re-run deployment</tspan><tspan
         sodipodi:role="line"
         style="font-size:2.82222px;text-align:center;text-anchor:middle;stroke-width:0.264583;fill:#1a1a1a"
         x="18.886358"
         y="54.439781"
         id="tspan35">and restore resource</tspan><tspan
         sodipodi:role="line"
         style="font-size:2.82222px;text-align:center;text-anchor:middle;stroke-width:0.264583;fill:#1a1a1a"
         x="18.886358"
         y="57.967556"
         id="tspan36">back to normal</tspan></text>
    <g
       id="g15"
       transform="matrix(2.0443732,0,0,2.0443732,-315.57012,-243.02815)">
      <rect
         x="178.85834"
         y="156.63333"
         width="4.7624998"
         height="3.175"
         rx="0.15875"
         fill="url(#f34d9569-2bd0-4002-8f16-3d01d8106cb5)"
         id="rect1"
         style="fill:url(#linearGradient15);stroke-width:0.264583" />
      <polygon
         points="11.88,4.46 11.88,7.95 8.88,9.71 8.88,6.21 "
         fill="#50e6ff"
         id="polygon1"
         transform="matrix(0.26458333,0,0,0.26458333,178.89008,156.57777)" />
      <polygon
         points="11.88,4.46 8.88,6.22 5.88,4.46 8.88,2.71 "
         fill="#c3f1ff"
         id="polygon2"
         transform="matrix(0.26458333,0,0,0.26458333,178.89008,156.57777)" />
      <polygon
         points="8.88,6.22 8.88,9.71 5.88,7.95 5.88,4.46 "
         fill="#9cebff"
         id="polygon13"
         transform="matrix(0.26458333,0,0,0.26458333,178.89008,156.57777)" />
      <polygon
         points="5.88,7.95 8.88,6.21 8.88,9.71 "
         fill="#c3f1ff"
         id="polygon14"
         transform="matrix(0.26458333,0,0,0.26458333,178.89008,156.57777)" />
      <polygon
         points="11.88,7.95 8.88,6.21 8.88,9.71 "
         fill="#9cebff"
         id="polygon15"
         transform="matrix(0.26458333,0,0,0.26458333,178.89008,156.57777)" />
      <path
         d="m 182.19473,160.76877 c -0.47096,-0.0741 -0.48948,-0.41275 -0.48948,-0.96044 h -0.93398 c 0,0.54769 -0.0159,0.88636 -0.48684,0.96044 a 0.26458333,0.26458333 0 0 0 -0.23548,0.26458 h 2.38125 a 0.26458333,0.26458333 0 0 0 -0.23547,-0.26458 z"
         fill="url(#bdb45a0b-eb58-4970-a60a-fb2ce314f866)"
         id="path15"
         style="fill:url(#linearGradient16);stroke-width:0.264583" />
    </g>
  </g>
</svg>
