<?xml version="1.0" encoding="UTF-8" standalone="no"?>
<!-- Created with Inkscape (http://www.inkscape.org/) -->

<svg
   width="114mm"
   height="64mm"
   viewBox="0 0 114 64"
   version="1.1"
   id="svg1"
   inkscape:version="1.3.1 (91b66b0, 2023-11-16)"
   sodipodi:docname="iac-scale.svg"
   xmlns:inkscape="http://www.inkscape.org/namespaces/inkscape"
   xmlns:sodipodi="http://sodipodi.sourceforge.net/DTD/sodipodi-0.dtd"
   xmlns:xlink="http://www.w3.org/1999/xlink"
   xmlns="http://www.w3.org/2000/svg"
   xmlns:svg="http://www.w3.org/2000/svg">
  <sodipodi:namedview
     id="namedview1"
     pagecolor="#ffffff"
     bordercolor="#666666"
     borderopacity="1.0"
     inkscape:showpageshadow="2"
     inkscape:pageopacity="0.0"
     inkscape:pagecheckerboard="0"
     inkscape:deskcolor="#d1d1d1"
     inkscape:document-units="mm"
     inkscape:zoom="1.3932057"
     inkscape:cx="285.6721"
     inkscape:cy="139.60609"
     inkscape:window-width="1520"
     inkscape:window-height="778"
     inkscape:window-x="0"
     inkscape:window-y="25"
     inkscape:window-maximized="0"
     inkscape:current-layer="layer1"
     showguides="true" />
  <defs
     id="defs1">
    <inkscape:path-effect
       effect="bspline"
       id="path-effect60"
       is_visible="true"
       lpeversion="1.3"
       weight="33.333333"
       steps="2"
       helper_size="0"
       apply_no_weight="true"
       apply_with_weight="true"
       only_selected="false"
       uniform="false" />
    <inkscape:path-effect
       effect="bspline"
       id="path-effect58"
       is_visible="true"
       lpeversion="1.3"
       weight="33.333333"
       steps="2"
       helper_size="0"
       apply_no_weight="true"
       apply_with_weight="true"
       only_selected="false"
       uniform="false" />
    <inkscape:path-effect
       effect="bspline"
       id="path-effect56"
       is_visible="true"
       lpeversion="1.3"
       weight="33.333333"
       steps="2"
       helper_size="0"
       apply_no_weight="true"
       apply_with_weight="true"
       only_selected="false"
       uniform="false" />
    <inkscape:path-effect
       effect="bspline"
       id="path-effect54"
       is_visible="true"
       lpeversion="1.3"
       weight="33.333333"
       steps="2"
       helper_size="0"
       apply_no_weight="true"
       apply_with_weight="true"
       only_selected="false"
       uniform="false" />
    <inkscape:path-effect
       effect="bspline"
       id="path-effect52"
       is_visible="true"
       lpeversion="1.3"
       weight="33.333333"
       steps="2"
       helper_size="0"
       apply_no_weight="true"
       apply_with_weight="true"
       only_selected="false"
       uniform="false" />
    <inkscape:path-effect
       effect="bspline"
       id="path-effect40"
       is_visible="true"
       lpeversion="1.3"
       weight="33.333333"
       steps="2"
       helper_size="0"
       apply_no_weight="true"
       apply_with_weight="true"
       only_selected="false"
       uniform="false" />
    <inkscape:path-effect
       effect="bspline"
       id="path-effect38"
       is_visible="true"
       lpeversion="1.3"
       weight="33.333333"
       steps="2"
       helper_size="0"
       apply_no_weight="true"
       apply_with_weight="true"
       only_selected="false"
       uniform="false" />
    <inkscape:path-effect
       effect="bspline"
       id="path-effect11"
       is_visible="true"
       lpeversion="1.3"
       weight="33.333333"
       steps="2"
       helper_size="0"
       apply_no_weight="true"
       apply_with_weight="true"
       only_selected="false"
       uniform="false" />
    <inkscape:path-effect
       effect="bspline"
       id="path-effect7"
       is_visible="true"
       lpeversion="1.3"
       weight="33.333333"
       steps="2"
       helper_size="0"
       apply_no_weight="true"
       apply_with_weight="true"
       only_selected="false"
       uniform="false" />
    <inkscape:path-effect
       effect="bspline"
       id="path-effect12"
       is_visible="true"
       lpeversion="1.3"
       weight="33.333333"
       steps="2"
       helper_size="0"
       apply_no_weight="true"
       apply_with_weight="true"
       only_selected="false"
       uniform="false" />
    <marker
       style="overflow:visible"
       id="Triangle"
       refX="0"
       refY="0"
       orient="auto-start-reverse"
       inkscape:stockid="Triangle arrow"
       markerWidth="1"
       markerHeight="1"
       viewBox="0 0 1 1"
       inkscape:isstock="true"
       inkscape:collect="always"
       preserveAspectRatio="xMidYMid">
      <path
         transform="scale(0.5)"
         style="fill:context-stroke;fill-rule:evenodd;stroke:context-stroke;stroke-width:1pt"
         d="M 5.77,0 -2.88,5 V -5 Z"
         id="path135" />
    </marker>
    <inkscape:path-effect
       effect="bspline"
       id="path-effect9"
       is_visible="true"
       lpeversion="1.3"
       weight="33.333333"
       steps="2"
       helper_size="0"
       apply_no_weight="true"
       apply_with_weight="true"
       only_selected="false"
       uniform="false" />
    <inkscape:path-effect
       effect="bspline"
       id="path-effect5"
       is_visible="true"
       lpeversion="1.3"
       weight="33.333333"
       steps="2"
       helper_size="0"
       apply_no_weight="true"
       apply_with_weight="true"
       only_selected="false"
       uniform="false" />
    <linearGradient
       id="e5371565-cc9b-4729-9e54-9bac135a92bd"
       x1="9"
       y1="18"
       x2="9"
       gradientUnits="userSpaceOnUse">
      <stop
         offset="0"
         stop-color="#0078d4"
         id="stop1" />
      <stop
         offset="0.817"
         stop-color="#5ea0ef"
         id="stop2" />
    </linearGradient>
    <linearGradient
       id="b76ba356-3d29-41f5-a521-8647fe84a8b4"
       x1="9"
       y1="297.5"
       x2="9"
       y2="280.5"
       gradientTransform="matrix(0.26458333,0,0,0.26458333,164.45998,75.219554)"
       gradientUnits="userSpaceOnUse">
      <stop
         offset="0"
         stop-color="#32bedd"
         id="stop1-9" />
      <stop
         offset="1"
         stop-color="#32d4f5"
         id="stop2-0" />
    </linearGradient>
    <linearGradient
       id="bdb45a0b-eb58-4970-a60a-fb2ce314f866"
       x1="8.8800001"
       y1="16.84"
       x2="8.8800001"
       y2="12.21"
       gradientUnits="userSpaceOnUse"
       gradientTransform="matrix(0.26458333,0,0,0.26458333,178.89008,156.57777)">
      <stop
         offset="0.15"
         stop-color="#ccc"
         id="stop3" />
      <stop
         offset="1"
         stop-color="#707070"
         id="stop4" />
    </linearGradient>
    <linearGradient
       id="f34d9569-2bd0-4002-8f16-3d01d8106cb5"
       x1="8.8800001"
       y1="12.21"
       x2="8.8800001"
       y2="0.20999999"
       gradientUnits="userSpaceOnUse"
       gradientTransform="matrix(0.26458333,0,0,0.26458333,178.89008,156.57777)">
      <stop
         offset="0"
         stop-color="#0078d4"
         id="stop1-7" />
      <stop
         offset="0.82"
         stop-color="#5ea0ef"
         id="stop2-9" />
    </linearGradient>
    <linearGradient
       inkscape:collect="always"
       xlink:href="#f34d9569-2bd0-4002-8f16-3d01d8106cb5"
       id="linearGradient26"
       gradientUnits="userSpaceOnUse"
       gradientTransform="matrix(0.26458333,0,0,0.26458333,178.89008,156.57777)"
       x1="8.8800001"
       y1="12.21"
       x2="8.8800001"
       y2="0.20999999" />
    <linearGradient
       inkscape:collect="always"
       xlink:href="#bdb45a0b-eb58-4970-a60a-fb2ce314f866"
       id="linearGradient27"
       gradientUnits="userSpaceOnUse"
       gradientTransform="matrix(0.26458333,0,0,0.26458333,178.89008,156.57777)"
       x1="8.8800001"
       y1="16.84"
       x2="8.8800001"
       y2="12.21" />
    <linearGradient
       inkscape:collect="always"
       xlink:href="#f34d9569-2bd0-4002-8f16-3d01d8106cb5"
       id="linearGradient32"
       gradientUnits="userSpaceOnUse"
       gradientTransform="matrix(0.26458333,0,0,0.26458333,178.89008,156.57777)"
       x1="8.8800001"
       y1="12.21"
       x2="8.8800001"
       y2="0.20999999" />
    <linearGradient
       inkscape:collect="always"
       xlink:href="#bdb45a0b-eb58-4970-a60a-fb2ce314f866"
       id="linearGradient33"
       gradientUnits="userSpaceOnUse"
       gradientTransform="matrix(0.26458333,0,0,0.26458333,178.89008,156.57777)"
       x1="8.8800001"
       y1="16.84"
       x2="8.8800001"
       y2="12.21" />
    <linearGradient
       inkscape:collect="always"
       xlink:href="#f34d9569-2bd0-4002-8f16-3d01d8106cb5"
       id="linearGradient34"
       gradientUnits="userSpaceOnUse"
       gradientTransform="matrix(0.26458333,0,0,0.26458333,178.89008,156.57777)"
       x1="8.8800001"
       y1="12.21"
       x2="8.8800001"
       y2="0.20999999" />
    <linearGradient
       inkscape:collect="always"
       xlink:href="#bdb45a0b-eb58-4970-a60a-fb2ce314f866"
       id="linearGradient35"
       gradientUnits="userSpaceOnUse"
       gradientTransform="matrix(0.26458333,0,0,0.26458333,178.89008,156.57777)"
       x1="8.8800001"
       y1="16.84"
       x2="8.8800001"
       y2="12.21" />
    <linearGradient
       inkscape:collect="always"
       xlink:href="#f34d9569-2bd0-4002-8f16-3d01d8106cb5"
       id="linearGradient45"
       gradientUnits="userSpaceOnUse"
       gradientTransform="matrix(0.26458333,0,0,0.26458333,178.89008,156.57777)"
       x1="8.8800001"
       y1="12.21"
       x2="8.8800001"
       y2="0.20999999" />
    <linearGradient
       inkscape:collect="always"
       xlink:href="#bdb45a0b-eb58-4970-a60a-fb2ce314f866"
       id="linearGradient46"
       gradientUnits="userSpaceOnUse"
       gradientTransform="matrix(0.26458333,0,0,0.26458333,178.89008,156.57777)"
       x1="8.8800001"
       y1="16.84"
       x2="8.8800001"
       y2="12.21" />
    <linearGradient
       inkscape:collect="always"
       xlink:href="#f34d9569-2bd0-4002-8f16-3d01d8106cb5"
       id="linearGradient50"
       gradientUnits="userSpaceOnUse"
       gradientTransform="matrix(0.26458333,0,0,0.26458333,178.89008,156.57777)"
       x1="8.8800001"
       y1="12.21"
       x2="8.8800001"
       y2="0.20999999" />
    <linearGradient
       inkscape:collect="always"
       xlink:href="#bdb45a0b-eb58-4970-a60a-fb2ce314f866"
       id="linearGradient51"
       gradientUnits="userSpaceOnUse"
       gradientTransform="matrix(0.26458333,0,0,0.26458333,178.89008,156.57777)"
       x1="8.8800001"
       y1="16.84"
       x2="8.8800001"
       y2="12.21" />
  </defs>
  <g
     inkscape:label="Layer 1"
     inkscape:groupmode="layer"
     id="layer1">
    <g
       id="g40"
       transform="translate(-23.955252,23.133669)">
      <g
         id="abc3e3f9-d4db-41ad-8b60-378d1c3348f7"
         transform="matrix(0.54090706,0,0,0.54090706,31.249507,3.3744094)">
        <g
           id="g6">
          <g
             id="g4">
            <path
               d="M 10.023,0.134 H 2.362 A 0.605,0.605 0 0 0 1.757,0.74 v 16.52 a 0.605,0.605 0 0 0 0.605,0.606 h 13.276 a 0.605,0.605 0 0 0 0.6,-0.606 V 6.327 a 0.605,0.605 0 0 0 -0.6,-0.606 h -4.406 a 0.605,0.605 0 0 1 -0.6,-0.605 V 0.74 A 0.6,0.6 0 0 0 10.023,0.134 Z"
               fill="#ffffff"
               id="path2" />
            <path
               d="m 9.743,0.908 v 4.149 a 1.524,1.524 0 0 0 1.52,1.523 h 4.18 V 17.092 H 2.557 V 0.908 H 9.743 M 10.036,0 H 2.264 A 0.614,0.614 0 0 0 1.65,0.615 v 16.77 A 0.614,0.614 0 0 0 2.264,18 H 15.736 A 0.614,0.614 0 0 0 16.35,17.385 V 6.286 A 0.614,0.614 0 0 0 15.736,5.672 H 11.263 A 0.614,0.614 0 0 1 10.65,5.057 V 0.615 A 0.614,0.614 0 0 0 10.036,0 Z"
               fill="url(#e5371565-cc9b-4729-9e54-9bac135a92bd)"
               id="path3"
               style="fill:url(#e5371565-cc9b-4729-9e54-9bac135a92bd)" />
            <path
               d="m 16.116,5.794 -5.678,-5.66 v 4.612 a 1.041,1.041 0 0 0 1.035,1.048 z"
               fill="#0078d4"
               id="path4" />
          </g>
          <rect
             x="4"
             y="8.1960001"
             width="9.9989996"
             height="1.341"
             rx="0.60299999"
             fill="#5ea0ef"
             id="rect4" />
          <rect
             x="4"
             y="10.599"
             width="9.9989996"
             height="1.341"
             rx="0.60299999"
             fill="#5ea0ef"
             id="rect5" />
          <rect
             x="4"
             y="13.002"
             width="6.302"
             height="1.341"
             rx="0.60299999"
             fill="#5ea0ef"
             id="rect6" />
        </g>
      </g>
      <text
         xml:space="preserve"
         style="font-style:normal;font-weight:normal;font-size:4.23333px;line-height:1.25;font-family:sans-serif;fill:#000000;fill-opacity:1;stroke:none;stroke-width:0.264583"
         x="28.528469"
         y="20.414547"
         id="text12"><tspan
           sodipodi:role="line"
           id="tspan12"
           style="font-size:4.23333px;stroke-width:0.264583"
           x="28.528469"
           y="20.414547">IaC file</tspan></text>
    </g>
    <g
       id="g41"
       transform="translate(25.239669,-26.680351)">
      <g
         id="g1"
         transform="matrix(2.0443732,0,0,2.0443732,-304.8904,-252.94615)">
        <path
           d="m 169.09019,151.92226 v -0.5027 l -0.0794,-0.0265 -0.55562,-0.18521 -0.13229,-0.34396 0.29104,-0.58208 -0.37042,-0.37042 -0.0794,0.0265 -0.50271,0.26458 -0.34396,-0.13229 -0.23813,-0.635 h -0.5027 l -0.0265,0.0794 -0.18521,0.52916 -0.34396,0.15875 -0.58208,-0.29104 -0.37042,0.37042 0.0265,0.0794 0.26458,0.50271 -0.13229,0.34396 -0.635,0.23812 v 0.50271 l 0.0794,0.0265 0.55562,0.18521 0.13229,0.34396 -0.29104,0.58208 0.37042,0.37042 0.0794,-0.0265 0.50271,-0.26458 0.34396,0.13229 0.23812,0.60854 h 0.50271 l 0.0265,-0.0794 0.18521,-0.55562 0.34396,-0.13229 0.58208,0.29104 0.37042,-0.37042 -0.0265,-0.0529 -0.26458,-0.50271 0.13229,-0.34396 z"
           fill="url(#b76ba356-3d29-41f5-a521-8647fe84a8b4)"
           id="path2-2"
           style="fill:url(#b76ba356-3d29-41f5-a521-8647fe84a8b4);stroke-width:0.264583" />
        <path
           d="m 167.71435,151.02268 -0.21166,0.18521 a 0.77020207,0.77020207 0 0 1 -0.0794,1.11125 0.76887916,0.76887916 0 0 1 -1.11125,-0.0794 0.76993749,0.76993749 0 0 1 0,-1.03187 h 0.0265 l 0.15875,0.13229 h 0.0265 v -0.0265 l -0.0529,-0.52916 c 0,-0.0265 -0.0265,-0.0265 -0.0529,-0.0265 l -0.50271,0.0794 a 0.02645833,0.02645833 0 0 0 -0.0265,0.0265 v 0 l 0.15875,0.13229 v 0 0.0265 0 a 1.0519833,1.0519833 0 1 0 1.61396,1.34938 0.96043749,0.96043749 0 0 0 0.0529,-1.34938 z"
           fill="#ffffff"
           id="path3-2"
           style="stroke-width:0.264583" />
      </g>
      <text
         xml:space="preserve"
         style="font-style:normal;font-weight:normal;font-size:4.23333px;line-height:1.25;font-family:sans-serif;text-align:center;text-anchor:middle;fill:#000000;fill-opacity:1;stroke:none;stroke-width:0.264583"
         x="36.195293"
         y="67.946915"
         id="text13"><tspan
           sodipodi:role="line"
           id="tspan13"
           style="font-size:4.23333px;text-align:center;text-anchor:middle;stroke-width:0.264583"
           x="36.195293"
           y="67.946915">provisioning</tspan><tspan
           sodipodi:role="line"
           style="font-size:4.23333px;text-align:center;text-anchor:middle;stroke-width:0.264583"
           x="36.195293"
           y="73.238579"
           id="tspan14">service</tspan></text>
    </g>
    <g
       id="g37"
       transform="translate(64.793617,-100.22039)">
      <g
         id="g2"
         transform="matrix(2.0443732,0,0,2.0443732,-329.85365,-217.13)">
        <rect
           x="178.85834"
           y="156.63333"
           width="4.7624998"
           height="3.175"
           rx="0.15875"
           fill="url(#f34d9569-2bd0-4002-8f16-3d01d8106cb5)"
           id="rect4-2"
           style="fill:url(#linearGradient34);stroke-width:0.264583" />
        <polygon
           points="8.88,9.71 8.88,6.21 11.88,4.46 11.88,7.95 "
           fill="#50e6ff"
           id="polygon4"
           transform="matrix(0.26458333,0,0,0.26458333,178.89008,156.57777)" />
        <polygon
           points="5.88,4.46 8.88,2.71 11.88,4.46 8.88,6.22 "
           fill="#c3f1ff"
           id="polygon5"
           transform="matrix(0.26458333,0,0,0.26458333,178.89008,156.57777)" />
        <polygon
           points="5.88,7.95 5.88,4.46 8.88,6.22 8.88,9.71 "
           fill="#9cebff"
           id="polygon6"
           transform="matrix(0.26458333,0,0,0.26458333,178.89008,156.57777)" />
        <polygon
           points="5.88,7.95 8.88,6.21 8.88,9.71 "
           fill="#c3f1ff"
           id="polygon7"
           transform="matrix(0.26458333,0,0,0.26458333,178.89008,156.57777)" />
        <polygon
           points="11.88,7.95 8.88,6.21 8.88,9.71 "
           fill="#9cebff"
           id="polygon8"
           transform="matrix(0.26458333,0,0,0.26458333,178.89008,156.57777)" />
        <path
           d="m 182.19473,160.76877 c -0.47096,-0.0741 -0.48948,-0.41275 -0.48948,-0.96044 h -0.93398 c 0,0.54769 -0.0159,0.88636 -0.48684,0.96044 a 0.26458333,0.26458333 0 0 0 -0.23548,0.26458 h 2.38125 a 0.26458333,0.26458333 0 0 0 -0.23547,-0.26458 z"
           fill="url(#bdb45a0b-eb58-4970-a60a-fb2ce314f866)"
           id="path8"
           style="fill:url(#linearGradient35);stroke-width:0.264583" />
      </g>
    </g>
    <g
       id="g25"
       transform="matrix(2.0443732,0,0,2.0443732,-265.05997,-305.11509)">
      <rect
         x="178.85834"
         y="156.63333"
         width="4.7624998"
         height="3.175"
         rx="0.15875"
         fill="url(#f34d9569-2bd0-4002-8f16-3d01d8106cb5)"
         id="rect21"
         style="fill:url(#linearGradient26);stroke-width:0.264583" />
      <polygon
         points="11.88,4.46 11.88,7.95 8.88,9.71 8.88,6.21 "
         fill="#50e6ff"
         id="polygon21"
         transform="matrix(0.26458333,0,0,0.26458333,178.89008,156.57777)" />
      <polygon
         points="11.88,4.46 8.88,6.22 5.88,4.46 8.88,2.71 "
         fill="#c3f1ff"
         id="polygon22"
         transform="matrix(0.26458333,0,0,0.26458333,178.89008,156.57777)" />
      <polygon
         points="8.88,6.22 8.88,9.71 5.88,7.95 5.88,4.46 "
         fill="#9cebff"
         id="polygon23"
         transform="matrix(0.26458333,0,0,0.26458333,178.89008,156.57777)" />
      <polygon
         points="5.88,7.95 8.88,6.21 8.88,9.71 "
         fill="#c3f1ff"
         id="polygon24"
         transform="matrix(0.26458333,0,0,0.26458333,178.89008,156.57777)" />
      <polygon
         points="11.88,7.95 8.88,6.21 8.88,9.71 "
         fill="#9cebff"
         id="polygon25"
         transform="matrix(0.26458333,0,0,0.26458333,178.89008,156.57777)" />
      <path
         d="m 182.19473,160.76877 c -0.47096,-0.0741 -0.48948,-0.41275 -0.48948,-0.96044 h -0.93398 c 0,0.54769 -0.0159,0.88636 -0.48684,0.96044 a 0.26458333,0.26458333 0 0 0 -0.23548,0.26458 h 2.38125 a 0.26458333,0.26458333 0 0 0 -0.23547,-0.26458 z"
         fill="url(#bdb45a0b-eb58-4970-a60a-fb2ce314f866)"
         id="path25"
         style="fill:url(#linearGradient27);stroke-width:0.264583" />
    </g>
    <g
       id="g31"
       transform="matrix(2.0443732,0,0,2.0443732,-265.05997,-292.87978)">
      <rect
         x="178.85834"
         y="156.63333"
         width="4.7624998"
         height="3.175"
         rx="0.15875"
         fill="url(#f34d9569-2bd0-4002-8f16-3d01d8106cb5)"
         id="rect27"
         style="fill:url(#linearGradient32);stroke-width:0.264583" />
      <polygon
         points="11.88,7.95 8.88,9.71 8.88,6.21 11.88,4.46 "
         fill="#50e6ff"
         id="polygon27"
         transform="matrix(0.26458333,0,0,0.26458333,178.89008,156.57777)" />
      <polygon
         points="8.88,6.22 5.88,4.46 8.88,2.71 11.88,4.46 "
         fill="#c3f1ff"
         id="polygon28"
         transform="matrix(0.26458333,0,0,0.26458333,178.89008,156.57777)" />
      <polygon
         points="8.88,9.71 5.88,7.95 5.88,4.46 8.88,6.22 "
         fill="#9cebff"
         id="polygon29"
         transform="matrix(0.26458333,0,0,0.26458333,178.89008,156.57777)" />
      <polygon
         points="5.88,7.95 8.88,6.21 8.88,9.71 "
         fill="#c3f1ff"
         id="polygon30"
         transform="matrix(0.26458333,0,0,0.26458333,178.89008,156.57777)" />
      <polygon
         points="11.88,7.95 8.88,6.21 8.88,9.71 "
         fill="#9cebff"
         id="polygon31"
         transform="matrix(0.26458333,0,0,0.26458333,178.89008,156.57777)" />
      <path
         d="m 182.19473,160.76877 c -0.47096,-0.0741 -0.48948,-0.41275 -0.48948,-0.96044 h -0.93398 c 0,0.54769 -0.0159,0.88636 -0.48684,0.96044 a 0.26458333,0.26458333 0 0 0 -0.23548,0.26458 h 2.38125 a 0.26458333,0.26458333 0 0 0 -0.23547,-0.26458 z"
         fill="url(#bdb45a0b-eb58-4970-a60a-fb2ce314f866)"
         id="path31"
         style="fill:url(#linearGradient33);stroke-width:0.264583" />
    </g>
    <path
       style="fill:none;stroke:#1a1a1a;stroke-width:0.264583px;stroke-linecap:butt;stroke-linejoin:miter;stroke-opacity:1;marker-end:url(#Triangle)"
       d="m 159.64733,158.12741 c 0.0142,-4.40132 0.0283,-8.80265 0.0425,-13.20399"
       id="path38"
       inkscape:path-effect="#path-effect40"
       inkscape:original-d="m 159.64733,158.12741 c 0.0142,-4.40132 0.0283,-8.80265 0.0425,-13.20399"
       transform="matrix(0.00658527,1.9279595,-2.0443626,0.00621031,344.17024,-277.10888)"
       sodipodi:nodetypes="cc" />
    <g
       id="g45"
       transform="matrix(2.0443732,0,0,2.0443732,-265.05997,-280.64447)">
      <rect
         x="178.85834"
         y="156.63333"
         width="4.7624998"
         height="3.175"
         rx="0.15875"
         fill="url(#f34d9569-2bd0-4002-8f16-3d01d8106cb5)"
         id="rect41"
         style="fill:url(#linearGradient45);stroke-width:0.264583" />
      <polygon
         points="8.88,9.71 8.88,6.21 11.88,4.46 11.88,7.95 "
         fill="#50e6ff"
         id="polygon41"
         transform="matrix(0.26458333,0,0,0.26458333,178.89008,156.57777)" />
      <polygon
         points="5.88,4.46 8.88,2.71 11.88,4.46 8.88,6.22 "
         fill="#c3f1ff"
         id="polygon42"
         transform="matrix(0.26458333,0,0,0.26458333,178.89008,156.57777)" />
      <polygon
         points="5.88,7.95 5.88,4.46 8.88,6.22 8.88,9.71 "
         fill="#9cebff"
         id="polygon43"
         transform="matrix(0.26458333,0,0,0.26458333,178.89008,156.57777)" />
      <polygon
         points="8.88,6.21 8.88,9.71 5.88,7.95 "
         fill="#c3f1ff"
         id="polygon44"
         transform="matrix(0.26458333,0,0,0.26458333,178.89008,156.57777)" />
      <polygon
         points="8.88,6.21 8.88,9.71 11.88,7.95 "
         fill="#9cebff"
         id="polygon45"
         transform="matrix(0.26458333,0,0,0.26458333,178.89008,156.57777)" />
      <path
         d="m 182.19473,160.76877 c -0.47096,-0.0741 -0.48948,-0.41275 -0.48948,-0.96044 h -0.93398 c 0,0.54769 -0.0159,0.88636 -0.48684,0.96044 a 0.26458333,0.26458333 0 0 0 -0.23548,0.26458 h 2.38125 a 0.26458333,0.26458333 0 0 0 -0.23547,-0.26458 z"
         fill="url(#bdb45a0b-eb58-4970-a60a-fb2ce314f866)"
         id="path45"
         style="fill:url(#linearGradient46);stroke-width:0.264583" />
    </g>
    <g
       id="g50"
       transform="matrix(2.0443732,0,0,2.0443732,-265.05997,-268.40916)">
      <rect
         x="178.85834"
         y="156.63333"
         width="4.7624998"
         height="3.175"
         rx="0.15875"
         fill="url(#f34d9569-2bd0-4002-8f16-3d01d8106cb5)"
         id="rect46"
         style="fill:url(#linearGradient50);stroke-width:0.264583" />
      <polygon
         points="8.88,9.71 8.88,6.21 11.88,4.46 11.88,7.95 "
         fill="#50e6ff"
         id="polygon46"
         transform="matrix(0.26458333,0,0,0.26458333,178.89008,156.57777)" />
      <polygon
         points="5.88,4.46 8.88,2.71 11.88,4.46 8.88,6.22 "
         fill="#c3f1ff"
         id="polygon47"
         transform="matrix(0.26458333,0,0,0.26458333,178.89008,156.57777)" />
      <polygon
         points="5.88,7.95 5.88,4.46 8.88,6.22 8.88,9.71 "
         fill="#9cebff"
         id="polygon48"
         transform="matrix(0.26458333,0,0,0.26458333,178.89008,156.57777)" />
      <polygon
         points="8.88,6.21 8.88,9.71 5.88,7.95 "
         fill="#c3f1ff"
         id="polygon49"
         transform="matrix(0.26458333,0,0,0.26458333,178.89008,156.57777)" />
      <polygon
         points="8.88,6.21 8.88,9.71 11.88,7.95 "
         fill="#9cebff"
         id="polygon50"
         transform="matrix(0.26458333,0,0,0.26458333,178.89008,156.57777)" />
      <path
         d="m 182.19473,160.76877 c -0.47096,-0.0741 -0.48948,-0.41275 -0.48948,-0.96044 h -0.93398 c 0,0.54769 -0.0159,0.88636 -0.48684,0.96044 a 0.26458333,0.26458333 0 0 0 -0.23548,0.26458 h 2.38125 a 0.26458333,0.26458333 0 0 0 -0.23547,-0.26458 z"
         fill="url(#bdb45a0b-eb58-4970-a60a-fb2ce314f866)"
         id="path50"
         style="fill:url(#linearGradient51);stroke-width:0.264583" />
    </g>
    <path
       style="fill:none;stroke:#1a1a1a;stroke-width:0.264583px;stroke-linecap:butt;stroke-linejoin:miter;stroke-opacity:1;marker-end:url(#Triangle)"
       d="m 159.64733,158.12741 c 0.0142,-4.40132 0.0283,-8.80265 0.0425,-13.20399"
       id="path51"
       inkscape:path-effect="#path-effect52"
       inkscape:original-d="m 159.64733,158.12741 c 0.0142,-4.40132 0.0283,-8.80265 0.0425,-13.20399"
       transform="matrix(0.00658527,1.9279595,-2.0443626,0.00621031,391.074,-278.1486)"
       sodipodi:nodetypes="cc" />
    <path
       style="fill:none;stroke:#1a1a1a;stroke-width:0.264583px;stroke-linecap:butt;stroke-linejoin:miter;stroke-opacity:1;marker-end:url(#Triangle)"
       d="m 159.64733,158.12741 c -4.06018,-4.5475 -8.12037,-9.095 -12.18058,-13.64252"
       id="path52"
       inkscape:path-effect="#path-effect54"
       inkscape:original-d="m 159.64733,158.12741 c -4.06018,-4.5475 -8.12037,-9.095 -12.18058,-13.64252"
       transform="matrix(0.00658527,1.9279595,-2.0443626,0.00621031,391.074,-278.1486)"
       sodipodi:nodetypes="cc" />
    <path
       style="fill:none;stroke:#1a1a1a;stroke-width:0.264583px;stroke-linecap:butt;stroke-linejoin:miter;stroke-opacity:1;marker-end:url(#Triangle)"
       d="m 159.64733,158.12741 c -2.0265,-4.57896 -4.05301,-9.15793 -6.07952,-13.73691"
       id="path54"
       inkscape:path-effect="#path-effect56"
       inkscape:original-d="m 159.64733,158.12741 c -2.0265,-4.57896 -4.05301,-9.15793 -6.07952,-13.73691"
       transform="matrix(0.00658527,1.9279595,-2.0443626,0.00621031,391.074,-278.1486)"
       sodipodi:nodetypes="cc" />
    <path
       style="fill:none;stroke:#1a1a1a;stroke-width:0.264583px;stroke-linecap:butt;stroke-linejoin:miter;stroke-opacity:1;marker-end:url(#Triangle)"
       d="m 159.64733,158.12741 c 4.23837,-4.43479 8.47676,-8.8696 12.71515,-13.30441"
       id="path56"
       inkscape:path-effect="#path-effect58"
       inkscape:original-d="m 159.64733,158.12741 c 4.23837,-4.43479 8.47676,-8.8696 12.71515,-13.30441"
       transform="matrix(0.00658527,1.9279595,-2.0443626,0.00621031,391.074,-278.1486)"
       sodipodi:nodetypes="cc" />
    <path
       style="fill:none;stroke:#1a1a1a;stroke-width:0.264583px;stroke-linecap:butt;stroke-linejoin:miter;stroke-opacity:1;marker-end:url(#Triangle)"
       d="m 159.64733,158.12741 c 2.1232,-4.50857 4.24641,-9.01715 6.36962,-13.52575"
       id="path58"
       inkscape:path-effect="#path-effect60"
       inkscape:original-d="m 159.64733,158.12741 c 2.1232,-4.50857 4.24641,-9.01715 6.36962,-13.52575"
       transform="matrix(0.00658527,1.9279595,-2.0443626,0.00621031,391.074,-278.1486)"
       sodipodi:nodetypes="cc" />
  </g>
</svg>
