<?xml version="1.0" encoding="UTF-8" standalone="no"?>
<svg
   xmlns:dc="http://purl.org/dc/elements/1.1/"
   xmlns:cc="http://creativecommons.org/ns#"
   xmlns:rdf="http://www.w3.org/1999/02/22-rdf-syntax-ns#"
   xmlns:svg="http://www.w3.org/2000/svg"
   xmlns="http://www.w3.org/2000/svg"
   xmlns:sodipodi="http://sodipodi.sourceforge.net/DTD/sodipodi-0.dtd"
   xmlns:inkscape="http://www.inkscape.org/namespaces/inkscape"
   width="78.73571mm"
   height="115.4877mm"
   viewBox="0 0 78.73571 115.4877"
   version="1.1"
   id="svg-layer2-to-from"
   inkscape:version="1.0.2 (e86c8708, 2021-01-15)"
   sodipodi:docname="network-simple-link-layer-to-from.svg">
  <defs
     id="defs2">
    <inkscape:path-effect
       effect="bspline"
       id="path-effect1912"
       is_visible="true"
       lpeversion="1"
       weight="33.333333"
       steps="2"
       helper_size="0"
       apply_no_weight="true"
       apply_with_weight="true"
       only_selected="false" />
    <inkscape:path-effect
       effect="bspline"
       id="path-effect1908"
       is_visible="true"
       lpeversion="1"
       weight="33.333333"
       steps="2"
       helper_size="0"
       apply_no_weight="true"
       apply_with_weight="true"
       only_selected="false" />
    <inkscape:path-effect
       effect="bspline"
       id="path-effect1904"
       is_visible="true"
       lpeversion="1"
       weight="33.333333"
       steps="2"
       helper_size="0"
       apply_no_weight="true"
       apply_with_weight="true"
       only_selected="false" />
    <inkscape:path-effect
       effect="bspline"
       id="path-effect1900"
       is_visible="true"
       lpeversion="1"
       weight="33.333333"
       steps="2"
       helper_size="0"
       apply_no_weight="true"
       apply_with_weight="true"
       only_selected="false" />
    <inkscape:path-effect
       effect="bspline"
       id="path-effect1896"
       is_visible="true"
       lpeversion="1"
       weight="33.333333"
       steps="2"
       helper_size="0"
       apply_no_weight="true"
       apply_with_weight="true"
       only_selected="false" />
    <inkscape:path-effect
       effect="bspline"
       id="path-effect1892"
       is_visible="true"
       lpeversion="1"
       weight="33.333333"
       steps="2"
       helper_size="0"
       apply_no_weight="true"
       apply_with_weight="true"
       only_selected="false" />
    <filter
       inkscape:collect="always"
       style="color-interpolation-filters:sRGB"
       id="filter1090"
       x="-4.6243867e-06"
       width="1.0000092"
       y="-4.989477e-06"
       height="1.00001">
      <feGaussianBlur
         inkscape:collect="always"
         stdDeviation="1.0557142e-05"
         id="feGaussianBlur1092" />
    </filter>
  </defs>
  <sodipodi:namedview
     id="base"
     pagecolor="#ffffff"
     bordercolor="#666666"
     borderopacity="1.0"
     inkscape:pageopacity="0.0"
     inkscape:pageshadow="2"
     inkscape:zoom="2.0000001"
     inkscape:cx="110.30916"
     inkscape:cy="234.88197"
     inkscape:document-units="mm"
     inkscape:current-layer="layer1"
     inkscape:document-rotation="0"
     showgrid="false"
     inkscape:window-width="1252"
     inkscape:window-height="943"
     inkscape:window-x="303"
     inkscape:window-y="25"
     inkscape:window-maximized="0"
     fit-margin-top="0"
     fit-margin-left="0"
     fit-margin-right="0"
     fit-margin-bottom="0" />
  <metadata
     id="metadata5">
    <rdf:RDF>
      <cc:Work
         rdf:about="">
        <dc:format>image/svg+xml</dc:format>
        <dc:type
           rdf:resource="http://purl.org/dc/dcmitype/StillImage" />
        <dc:title></dc:title>
      </cc:Work>
    </rdf:RDF>
  </metadata>
  <g
     inkscape:label="Layer 1"
     inkscape:groupmode="layer"
     id="layer1"
     transform="translate(-3.3536288,-3.7590907)">
    <g
       id="g988"
       transform="matrix(0.61812274,0,0,0.61812274,0.95026366,1.4355113)">
      <rect
         id="rect10"
         width="37.041664"
         height="62.823132"
         x="3.8881681"
         y="3.7590907"
         style="fill:#cccccc;stroke-width:0.172;stroke-miterlimit:4;stroke-dasharray:none" />
      <g
         id="g65"
         transform="matrix(0.54358969,0,0,0.5512314,-5.159641,-15.251051)">
        <path
           inkscape:connector-curvature="0"
           style="color:#000000;display:inline;overflow:visible;visibility:visible;fill:#002255;fill-opacity:1;fill-rule:nonzero;stroke:none;stroke-width:0.0815837;marker:none;enable-background:accumulate"
           d="m 70.825214,130.84532 c -4.442862,0 -8.047189,3.01885 -8.047189,6.74002 0,3.72117 3.604327,6.73601 8.047189,6.73601 0.854396,0 1.679011,-0.11362 2.451429,-0.32019 v -3.362 c -0.667032,0.32483 -1.44764,0.5123 -2.284178,0.5123 -2.444776,0 -4.424998,-1.59648 -4.424998,-3.56612 0,-1.96964 1.980222,-3.56613 4.424998,-3.56613 0.836538,0 1.617146,0.18748 2.284178,0.51231 v -3.36601 c -0.772418,-0.20681 -1.597033,-0.32019 -2.451429,-0.32019 z"
           id="path3002" />
        <polygon
           points="298.459,78.103 245.459,134.853 179.959,134.853 179.959,78.103 "
           transform="matrix(0.05057717,0,0,0.04120138,64.245813,131.8041)"
           style="fill:#002255"
           id="polygon9367" />
        <polygon
           points="298.459,203.103 245.459,146.353 179.959,146.353 179.959,203.103 "
           transform="matrix(0.05057717,0,0,0.04120138,64.245813,131.8041)"
           style="fill:#ff0000"
           id="polygon9369" />
      </g>
      <g
         id="g973"
         transform="translate(-7.7790254,-33.67596)">
        <path
           id="rect67"
           style="fill:#808080;stroke-width:0.177147"
           d="m 17.893627,43.942905 h 24.588797 v 3.474504 H 17.893627 Z" />
        <path
           id="rect69"
           style="fill:#808080;stroke-width:0.264583"
           d="m 27.314878,47.320953 h 5.746295 v 1.202713 h -5.746295 z" />
      </g>
      <rect
         style="fill:#e6e6e6;stroke-width:0.264583"
         id="rect894"
         width="14.079613"
         height="1.7953868"
         x="23.889709"
         y="40.218388" />
      <rect
         style="fill:#e6e6e6;stroke-width:0.264583"
         id="rect896"
         width="14.079613"
         height="1.7953868"
         x="23.889709"
         y="44.034504" />
      <rect
         style="fill:#e6e6e6;stroke-width:0.264583"
         id="rect898"
         width="14.079613"
         height="1.7953868"
         x="23.889709"
         y="47.850628" />
    </g>
    <g
       id="g1012"
       transform="matrix(0.61812274,0,0,0.61812274,56.789679,1.4355113)">
      <rect
         id="rect990"
         width="37.041664"
         height="62.823132"
         x="3.8881681"
         y="3.7590907"
         style="fill:#cccccc;stroke-width:0.172;stroke-miterlimit:4;stroke-dasharray:none" />
      <g
         id="g998"
         transform="matrix(0.54358969,0,0,0.5512314,-5.159641,-15.251051)">
        <path
           inkscape:connector-curvature="0"
           style="color:#000000;display:inline;overflow:visible;visibility:visible;fill:#002255;fill-opacity:1;fill-rule:nonzero;stroke:none;stroke-width:0.0815837;marker:none;enable-background:accumulate"
           d="m 70.825214,130.84532 c -4.442862,0 -8.047189,3.01885 -8.047189,6.74002 0,3.72117 3.604327,6.73601 8.047189,6.73601 0.854396,0 1.679011,-0.11362 2.451429,-0.32019 v -3.362 c -0.667032,0.32483 -1.44764,0.5123 -2.284178,0.5123 -2.444776,0 -4.424998,-1.59648 -4.424998,-3.56612 0,-1.96964 1.980222,-3.56613 4.424998,-3.56613 0.836538,0 1.617146,0.18748 2.284178,0.51231 v -3.36601 c -0.772418,-0.20681 -1.597033,-0.32019 -2.451429,-0.32019 z"
           id="path992" />
        <polygon
           points="179.959,134.853 179.959,78.103 298.459,78.103 245.459,134.853 "
           transform="matrix(0.05057717,0,0,0.04120138,64.245813,131.8041)"
           style="fill:#002255"
           id="polygon994" />
        <polygon
           points="179.959,146.353 179.959,203.103 298.459,203.103 245.459,146.353 "
           transform="matrix(0.05057717,0,0,0.04120138,64.245813,131.8041)"
           style="fill:#ff0000"
           id="polygon996" />
      </g>
      <g
         id="g1004"
         transform="translate(-7.7790254,-33.67596)">
        <path
           id="path1000"
           style="fill:#808080;stroke-width:0.177147"
           d="m 17.893627,43.942905 h 24.588797 v 3.474504 H 17.893627 Z" />
        <path
           id="path1002"
           style="fill:#808080;stroke-width:0.264583"
           d="m 27.314878,47.320953 h 5.746295 v 1.202713 h -5.746295 z" />
      </g>
      <rect
         style="fill:#e6e6e6;stroke-width:0.264583"
         id="rect1006"
         width="14.079613"
         height="1.7953868"
         x="23.889709"
         y="40.218388" />
      <rect
         style="fill:#e6e6e6;stroke-width:0.264583"
         id="rect1008"
         width="14.079613"
         height="1.7953868"
         x="23.889709"
         y="44.034504" />
      <rect
         style="fill:#e6e6e6;stroke-width:0.264583"
         id="rect1010"
         width="14.079613"
         height="1.7953868"
         x="23.889709"
         y="47.850628" />
    </g>
    <g
       id="g1036"
       transform="matrix(0.61812274,0,0,0.61812274,0.95026366,78.090803)">
      <rect
         id="rect1014"
         width="37.041664"
         height="62.823132"
         x="3.8881681"
         y="3.7590907"
         style="fill:#cccccc;stroke-width:0.172;stroke-miterlimit:4;stroke-dasharray:none" />
      <g
         id="g1022"
         transform="matrix(0.54358969,0,0,0.5512314,-5.159641,-15.251051)">
        <path
           inkscape:connector-curvature="0"
           style="color:#000000;display:inline;overflow:visible;visibility:visible;fill:#002255;fill-opacity:1;fill-rule:nonzero;stroke:none;stroke-width:0.0815837;marker:none;enable-background:accumulate"
           d="m 70.825214,130.84532 c -4.442862,0 -8.047189,3.01885 -8.047189,6.74002 0,3.72117 3.604327,6.73601 8.047189,6.73601 0.854396,0 1.679011,-0.11362 2.451429,-0.32019 v -3.362 c -0.667032,0.32483 -1.44764,0.5123 -2.284178,0.5123 -2.444776,0 -4.424998,-1.59648 -4.424998,-3.56612 0,-1.96964 1.980222,-3.56613 4.424998,-3.56613 0.836538,0 1.617146,0.18748 2.284178,0.51231 v -3.36601 c -0.772418,-0.20681 -1.597033,-0.32019 -2.451429,-0.32019 z"
           id="path1016" />
        <polygon
           points="245.459,134.853 179.959,134.853 179.959,78.103 298.459,78.103 "
           transform="matrix(0.05057717,0,0,0.04120138,64.245813,131.8041)"
           style="fill:#002255"
           id="polygon1018" />
        <polygon
           points="245.459,146.353 179.959,146.353 179.959,203.103 298.459,203.103 "
           transform="matrix(0.05057717,0,0,0.04120138,64.245813,131.8041)"
           style="fill:#ff0000"
           id="polygon1020" />
      </g>
      <g
         id="g1028"
         transform="translate(-7.7790254,-33.67596)">
        <path
           id="path1024"
           style="fill:#808080;stroke-width:0.177147"
           d="m 17.893627,43.942905 h 24.588797 v 3.474504 H 17.893627 Z" />
        <path
           id="path1026"
           style="fill:#808080;stroke-width:0.264583"
           d="m 27.314878,47.320953 h 5.746295 v 1.202713 h -5.746295 z" />
      </g>
      <rect
         style="fill:#e6e6e6;stroke-width:0.264583"
         id="rect1030"
         width="14.079613"
         height="1.7953868"
         x="23.889709"
         y="40.218388" />
      <rect
         style="fill:#e6e6e6;stroke-width:0.264583"
         id="rect1032"
         width="14.079613"
         height="1.7953868"
         x="23.889709"
         y="44.034504" />
      <rect
         style="fill:#e6e6e6;stroke-width:0.264583"
         id="rect1034"
         width="14.079613"
         height="1.7953868"
         x="23.889709"
         y="47.850628" />
    </g>
    <g
       id="g1060"
       transform="matrix(0.61812274,0,0,0.61812274,56.789679,78.090803)">
      <rect
         id="rect1038"
         width="37.041664"
         height="62.823132"
         x="3.8881681"
         y="3.7590907"
         style="fill:#cccccc;stroke-width:0.172;stroke-miterlimit:4;stroke-dasharray:none" />
      <g
         id="g1046"
         transform="matrix(0.54358969,0,0,0.5512314,-5.159641,-15.251051)">
        <path
           inkscape:connector-curvature="0"
           style="color:#000000;display:inline;overflow:visible;visibility:visible;fill:#002255;fill-opacity:1;fill-rule:nonzero;stroke:none;stroke-width:0.0815837;marker:none;enable-background:accumulate"
           d="m 70.825214,130.84532 c -4.442862,0 -8.047189,3.01885 -8.047189,6.74002 0,3.72117 3.604327,6.73601 8.047189,6.73601 0.854396,0 1.679011,-0.11362 2.451429,-0.32019 v -3.362 c -0.667032,0.32483 -1.44764,0.5123 -2.284178,0.5123 -2.444776,0 -4.424998,-1.59648 -4.424998,-3.56612 0,-1.96964 1.980222,-3.56613 4.424998,-3.56613 0.836538,0 1.617146,0.18748 2.284178,0.51231 v -3.36601 c -0.772418,-0.20681 -1.597033,-0.32019 -2.451429,-0.32019 z"
           id="path1040" />
        <polygon
           points="179.959,78.103 298.459,78.103 245.459,134.853 179.959,134.853 "
           transform="matrix(0.05057717,0,0,0.04120138,64.245813,131.8041)"
           style="fill:#002255"
           id="polygon1042" />
        <polygon
           points="179.959,203.103 298.459,203.103 245.459,146.353 179.959,146.353 "
           transform="matrix(0.05057717,0,0,0.04120138,64.245813,131.8041)"
           style="fill:#ff0000"
           id="polygon1044" />
      </g>
      <g
         id="g1052"
         transform="translate(-7.7790254,-33.67596)">
        <path
           id="path1048"
           style="fill:#808080;stroke-width:0.177147"
           d="m 17.893627,43.942905 h 24.588797 v 3.474504 H 17.893627 Z" />
        <path
           id="path1050"
           style="fill:#808080;stroke-width:0.264583"
           d="m 27.314878,47.320953 h 5.746295 v 1.202713 h -5.746295 z" />
      </g>
      <rect
         style="fill:#e6e6e6;stroke-width:0.264583"
         id="rect1054"
         width="14.079613"
         height="1.7953868"
         x="23.889709"
         y="40.218388" />
      <rect
         style="fill:#e6e6e6;stroke-width:0.264583"
         id="rect1056"
         width="14.079613"
         height="1.7953868"
         x="23.889709"
         y="44.034504" />
      <rect
         style="fill:#e6e6e6;stroke-width:0.264583"
         id="rect1058"
         width="14.079613"
         height="1.7953868"
         x="23.889709"
         y="47.850628" />
    </g>
    <rect
       style="opacity:1;fill:#0000ff;stroke:none;stroke-width:0.106317;stroke-miterlimit:4;stroke-dasharray:none;stroke-opacity:1"
       id="rect1062"
       width="17.873129"
       height="5.8408918"
       x="33.78492"
       y="58.582489" />
    <g
       id="g1104"
       transform="matrix(0.53316434,0,0,0.53316434,6.5700384,9.6807889)">
      <rect
         style="opacity:1;fill:#f2f2f2;stroke:none;stroke-width:0.172;stroke-miterlimit:4;stroke-dasharray:none;stroke-opacity:1;filter:url(#filter1090)"
         id="rect1084"
         width="5.4790273"
         height="5.0781155"
         x="54.65662"
         y="94.613411"
         transform="matrix(1.0038182,0,0,1.0830685,-0.20869144,-8.0254564)" />
      <rect
         style="opacity:1;fill:#f2f2f2;stroke:none;stroke-width:0.172;stroke-miterlimit:4;stroke-dasharray:none;stroke-opacity:1;filter:url(#filter1090)"
         id="rect1094"
         width="5.4790273"
         height="5.0781155"
         x="54.65662"
         y="94.613411"
         transform="matrix(1.0038182,0,0,1.0830685,6.7238803,-8.0254564)" />
      <rect
         style="opacity:1;fill:#f2f2f2;stroke:none;stroke-width:0.172;stroke-miterlimit:4;stroke-dasharray:none;stroke-opacity:1;filter:url(#filter1090)"
         id="rect1096"
         width="5.4790273"
         height="5.0781155"
         x="54.65662"
         y="94.613411"
         transform="matrix(1.0038182,0,0,1.0830685,13.656449,-8.0254564)" />
      <rect
         style="opacity:1;fill:#f2f2f2;stroke:none;stroke-width:0.172;stroke-miterlimit:4;stroke-dasharray:none;stroke-opacity:1;filter:url(#filter1090)"
         id="rect1098"
         width="5.4790273"
         height="5.0781155"
         x="54.65662"
         y="94.613411"
         transform="matrix(1.0038182,0,0,1.0830685,20.589018,-8.0254564)" />
    </g>
    <text
       xml:space="preserve"
       style="font-style:normal;font-weight:normal;font-size:10.5833px;line-height:1.25;font-family:sans-serif;fill:#000000;fill-opacity:1;stroke:none;stroke-width:0.264583"
       x="12.455665"
       y="20.784161"
       id="text1197"><tspan
         sodipodi:role="line"
         id="tspan1195"
         x="12.455665"
         y="20.784161"
         style="font-style:normal;font-variant:normal;font-weight:normal;font-stretch:normal;font-size:7.05556px;font-family:sans-serif;-inkscape-font-specification:'sans-serif, Normal';font-variant-ligatures:normal;font-variant-caps:normal;font-variant-numeric:normal;font-variant-east-asian:normal;stroke-width:0.264583">1</tspan></text>
    <text
       xml:space="preserve"
       style="font-style:normal;font-weight:normal;font-size:10.5833px;line-height:1.25;font-family:sans-serif;fill:#000000;fill-opacity:1;stroke:none;stroke-width:0.264583"
       x="68.350204"
       y="20.873734"
       id="text1201"><tspan
         sodipodi:role="line"
         id="tspan1199"
         x="68.350204"
         y="20.873734"
         style="font-style:normal;font-variant:normal;font-weight:normal;font-stretch:normal;font-size:7.05556px;font-family:sans-serif;-inkscape-font-specification:'sans-serif, Normal';font-variant-ligatures:normal;font-variant-caps:normal;font-variant-numeric:normal;font-variant-east-asian:normal;stroke-width:0.264583">2</tspan></text>
    <text
       xml:space="preserve"
       style="font-style:normal;font-weight:normal;font-size:10.5833px;line-height:1.25;font-family:sans-serif;fill:#000000;fill-opacity:1;stroke:none;stroke-width:0.264583"
       x="12.536625"
       y="98.051781"
       id="text1205"><tspan
         sodipodi:role="line"
         id="tspan1203"
         x="12.536625"
         y="98.051781"
         style="font-style:normal;font-variant:normal;font-weight:normal;font-stretch:normal;font-size:7.05556px;font-family:sans-serif;-inkscape-font-specification:'sans-serif, Normal';font-variant-ligatures:normal;font-variant-caps:normal;font-variant-numeric:normal;font-variant-east-asian:normal;stroke-width:0.264583">3</tspan></text>
    <text
       xml:space="preserve"
       style="font-style:normal;font-weight:normal;font-size:10.5833px;line-height:1.25;font-family:sans-serif;fill:#000000;fill-opacity:1;stroke:none;stroke-width:0.264583"
       x="68.436333"
       y="98.158577"
       id="text1209"><tspan
         sodipodi:role="line"
         id="tspan1207"
         x="68.436333"
         y="98.158577"
         style="font-style:normal;font-variant:normal;font-weight:normal;font-stretch:normal;font-size:7.05556px;font-family:sans-serif;-inkscape-font-specification:'sans-serif, Normal';font-variant-ligatures:normal;font-variant-caps:normal;font-variant-numeric:normal;font-variant-east-asian:normal;stroke-width:0.264583">4</tspan></text>
    <path
       style="fill:none;stroke:#000000;stroke-width:0.264583px;stroke-linecap:butt;stroke-linejoin:miter;stroke-opacity:1"
       d="m 26.084901,35.564163 c 0.626275,0 1.249904,0 1.733216,0 0.483313,0 0.826308,0 1.496373,-0.109351 0.670064,-0.10935 1.667871,-0.32762 2.338727,-0.295043 0.670855,0.03258 1.01385,0.313209 1.52775,1.093144 0.513899,0.779935 1.199892,2.058374 1.510626,2.821675 0.310735,0.763301 0.248372,1.012752 -0.702213,1.822375 -0.950585,0.809622 -2.790289,2.181605 -3.100775,3.008431 -0.310485,0.826826 0.905593,1.10746 1.747073,1.216088 0.84148,0.108627 1.309201,0.04626 1.776947,0.312916 0.467746,0.266652 0.935468,0.8591 1.199467,1.56064 0.264,0.70154 0.326363,1.512258 0.357435,2.104611 0.03107,0.592354 0.03107,0.96653 -0.125071,1.761258 -0.156143,0.794727 -0.467958,2.010805 -0.528972,2.744127 -0.06101,0.733322 0.126073,0.982773 0.343905,1.403838 0.217831,0.421065 0.467281,1.013512 0.607027,1.52782 0.139746,0.514308 0.170929,0.950845 0.218925,1.200211 0.048,0.249366 0.110356,0.311726 0.140215,0.374089 0.02986,0.06236 0.02986,0.124727 0.04677,0.154585 0.01692,0.02986 0.0481,0.02986 0.07875,0.06263 0.03066,0.03277 0.06183,0.09513 0.09143,0.15432"
       id="path1890"
       inkscape:path-effect="#path-effect1892"
       inkscape:original-d="m 26.084901,35.564163 c 0.626275,0.0026 1.249904,0.0026 1.870887,0 0.345642,0.0026 0.688637,0.0026 1.028987,0 1.000452,-0.215625 1.998259,-0.433895 2.993418,-0.654809 0.345644,0.283279 0.688639,0.563912 1.028988,0.841899 0.688639,1.281083 1.37463,2.559523 2.057977,3.835318 -0.05972,0.252095 -0.122081,0.501547 -0.18709,0.748353 -1.83706,1.374629 -3.676763,2.746613 -5.519115,4.11595 1.218721,0.283279 2.434799,0.563912 3.648228,0.841899 0.470369,-0.05972 0.938091,-0.122078 1.403165,-0.187089 0.470368,0.595095 0.938091,1.187542 1.403165,1.777344 0.06501,0.813363 0.127373,1.624081 0.187089,2.432153 0.0026,0.376822 0.0026,0.750998 0,1.122532 -0.309168,1.218721 -0.620982,2.434799 -0.935442,3.648228 0.189733,0.252098 0.376822,0.501549 0.561266,0.748355 0.252098,0.595093 0.501547,1.18754 0.748353,1.777342 0.03383,0.439187 0.06501,0.875725 0.09355,1.309621 0.06501,0.06501 0.12737,0.12737 0.187087,0.187087 0.0026,0.06501 0.0026,0.127373 0,0.187089 0.03383,0.0026 0.06501,0.0026 0.09355,0 0.03383,0.06501 0.06501,0.127373 0.09354,0.18709" />
    <path
       style="fill:none;stroke:#000000;stroke-width:0.264583px;stroke-linecap:butt;stroke-linejoin:miter;stroke-opacity:1"
       d="m 59.106051,36.593152 c -0.683526,-0.776734 -1.369517,-1.55627 -2.039603,-2.14916 -0.670086,-0.592891 -1.324898,-0.99825 -1.761664,-1.201888 -0.436765,-0.203637 -0.655036,-0.203637 -1.310437,-0.0012 -0.655401,0.202407 -1.746753,0.607766 -2.386956,0.982678 -0.640203,0.374911 -0.827292,0.71791 -0.920583,1.794528 -0.09329,1.076618 -0.09329,2.885142 0.578704,4.100637 0.671994,1.215496 2.012794,1.839123 3.041651,2.431974 1.028857,0.59285 1.74603,1.154116 2.291674,1.590705 0.545645,0.436589 0.919823,0.748405 1.278472,1.028931 0.358649,0.280527 0.701647,0.529979 1.199799,1.356793 0.498151,0.826815 1.152962,2.229981 1.416996,3.117852 0.264034,0.88787 0.139309,1.262047 -0.966129,1.510631 -1.105438,0.248585 -3.194596,0.37331 -4.488459,0.218706 -1.293864,-0.154604 -1.792767,-0.591145 -2.275993,-0.981048 -0.483226,-0.389904 -0.950949,-0.732899 -1.481007,-1.107131 -0.530059,-0.374233 -1.122505,-0.779592 -1.54365,-0.98331 -0.421144,-0.203718 -0.670596,-0.203718 -1.217195,0.0455 -0.546599,0.249216 -1.388498,0.748119 -1.91916,1.65369 -0.530662,0.90557 -0.748932,2.215191 -0.936075,3.181677 -0.187143,0.966486 -0.343051,1.590114 -0.436504,2.026861 -0.09345,0.436747 -0.124633,0.686197 -0.187086,0.997807 -0.06245,0.311609 -0.155998,0.685785 -0.202536,1.091533 -0.04654,0.405748 -0.04654,0.842289 -0.04654,1.276182"
       id="path1894"
       inkscape:path-effect="#path-effect1896"
       inkscape:original-d="m 59.106051,36.593152 c -0.683347,-0.776891 -1.369337,-1.556428 -2.057976,-2.33861 -0.652164,-0.402712 -1.306976,-0.808072 -1.964431,-1.216075 -0.215625,0.0026 -0.433896,0.0026 -0.654809,0 -1.088705,0.408003 -2.180056,0.813363 -3.274053,1.216075 -0.184443,0.345641 -0.371533,0.688639 -0.561265,1.028988 0.0026,1.811169 0.0026,3.619693 0,5.425573 1.343448,0.626274 2.684248,1.249902 4.022404,1.870884 0.71982,0.563912 1.436992,1.125178 2.151521,1.683798 0.376822,0.314462 0.751001,0.626277 1.122531,0.935445 0.345641,0.252098 0.688639,0.501549 1.028989,0.748353 0.657455,1.405813 1.312267,2.808978 1.96443,4.209497 -0.122078,0.376822 -0.246806,0.750998 -0.374176,1.122531 -2.086512,0.127371 -4.17567,0.252098 -6.267471,0.374177 -0.496258,-0.433893 -0.995161,-0.870434 -1.496708,-1.309622 -0.465077,-0.340349 -0.932799,-0.683344 -1.403168,-1.028985 -0.589801,-0.402715 -1.182248,-0.808072 -1.777341,-1.216078 -0.246806,0.0026 -0.496258,0.0026 -0.748355,0 -0.839253,0.501549 -1.681152,1.000453 -2.525697,1.496711 -0.215625,1.312264 -0.433893,2.621886 -0.654809,3.928861 -0.153263,0.626274 -0.309168,1.249902 -0.467723,1.870887 -0.02853,0.252098 -0.05972,0.501547 -0.09354,0.748353 -0.0909,0.376825 -0.184444,0.751001 -0.280633,1.122532 0.0026,0.439187 0.0026,0.875728 0,1.309621" />
    <path
       style="fill:none;stroke:#000000;stroke-width:0.264583px;stroke-linecap:butt;stroke-linejoin:miter;stroke-opacity:1"
       d="m 26.084901,111.52216 c 1.187672,0.0625 2.372567,0.12487 3.571762,-0.37419 1.199194,-0.49906 2.415266,-1.55923 3.163379,-3.17944 0.748113,-1.62022 1.028746,-3.80292 0.765321,-5.20609 -0.263425,-1.40317 -1.074143,-2.0268 -1.682558,-2.30873 -0.608414,-0.28193 -1.013772,-0.21957 -1.326431,-0.11045 -0.312658,0.10913 -0.53093,0.26504 -0.73412,0.64022 -0.20319,0.37518 -0.390276,0.96762 -0.294884,1.32591 0.09539,0.3583 0.469568,0.48302 0.890494,0.60764 0.420926,0.12461 0.888648,0.24934 1.200493,0.3431 0.311845,0.0938 0.467755,0.15613 0.65457,0.18668 0.186815,0.0305 0.405086,0.0305 1.106556,-0.0163 0.701471,-0.0469 1.886364,-0.14041 2.711202,-0.91904 0.824838,-0.77862 1.292558,-2.24414 1.52668,-3.101128 0.234123,-0.856986 0.234123,-1.106438 0.265835,-1.248342 0.03171,-0.141904 0.09407,-0.173083 0.124723,-0.233858 0.03065,-0.06077 0.03065,-0.154318 0.108371,-0.513295 0.07772,-0.358977 0.233629,-0.982605 0.311816,-1.543481 0.07819,-0.560877 0.07819,-1.05978 3.54e-4,-2.228982 -0.07783,-1.169201 -0.233741,-3.008907 -0.451743,-4.489895 -0.218001,-1.480987 -0.498634,-2.603519 -0.654884,-3.632697 -0.15625,-1.029178 -0.18743,-1.964623 -0.09418,-2.807024 0.09325,-0.842401 0.311517,-1.590754 0.172321,-2.416351 -0.139196,-0.825598 -0.6381,-1.729861 -1.354709,-2.572141 -0.71661,-0.84228 -1.652055,-1.621817 -3.055472,-1.91935 -1.403417,-0.297534 -3.274303,-0.110445 -4.583837,-0.0012 -1.309534,0.1092 -2.057889,0.14038 -2.775004,0.156022 -0.717116,0.01564 -1.403108,0.01564 -2.245206,-0.637693 -0.842099,-0.653335 -1.839904,-1.962955 -2.32447,-2.758395 -0.484566,-0.79544 -0.453386,-1.076073 0.451886,-1.46725 0.905272,-0.391178 2.682614,-0.890081 5.037165,-1.232909 2.35455,-0.342827 5.285606,-0.529916 6.985358,-0.529199 1.699752,7.18e-4 2.167474,0.187806 2.165742,0.577109 -0.0017,0.389302 -0.469454,0.98175 -0.982651,1.308853 -0.513196,0.327104 -1.074462,0.389467 -1.480403,0.07938 -0.405941,-0.310092 -0.655392,-0.996082 -0.6561,-1.496418 -7.09e-4,-0.500336 0.248742,-0.81215 0.420211,-1.03037 0.171468,-0.21822 0.265011,-0.342945 0.609166,-0.468094 0.344155,-0.125148 0.936603,-0.249874 1.388583,-0.359053 0.45198,-0.109179 0.763794,-0.202723 1.137761,-0.343059 0.373967,-0.140336 0.810507,-0.327424 1.091436,-0.436518 0.280929,-0.109095 0.405654,-0.140275 0.810479,-0.358548 0.404826,-0.218273 1.090816,-0.623631 1.55791,-1.028384 0.467094,-0.404753 0.716547,-0.810113 0.966453,-1.216209"
       id="path1906"
       inkscape:path-effect="#path-effect1908"
       inkscape:original-d="m 26.084901,111.52216 c 1.187541,0.065 2.372436,0.12737 3.554685,0.18709 1.218721,-1.05753 2.434799,-2.11769 3.648228,-3.18051 0.283279,-2.18005 0.563912,-4.36275 0.841899,-6.5481 -0.808072,-0.62098 -1.61879,-1.24461 -2.432153,-1.87089 -0.402712,0.065 -0.808069,0.12737 -1.216075,0.18709 -0.215625,0.15855 -0.433896,0.31446 -0.65481,0.46772 -0.184443,0.5951 -0.371532,1.18754 -0.561266,1.77734 0.376823,0.12738 0.750999,0.2521 1.122532,0.37418 0.470366,0.12737 0.938088,0.2521 1.403165,0.37418 0.158552,0.065 0.31446,0.12737 0.46772,0.18709 0.220916,0.003 0.439187,0.003 0.654812,0 1.18754,-0.0909 2.372434,-0.18444 3.554685,-0.28064 0.470365,-1.46288 0.938088,-2.9284 1.403165,-4.396578 0.0026,-0.246806 0.0026,-0.496258 0,-0.748355 0.06501,-0.02854 0.12737,-0.05972 0.187086,-0.09354 0.0026,-0.0909 0.0026,-0.184443 0,-0.280635 0.158555,-0.620983 0.314463,-1.244611 0.467723,-1.870885 0.0026,-0.496258 0.0026,-0.995161 0,-1.496711 -0.15326,-1.837057 -0.309168,-3.676763 -0.467723,-5.519115 -0.277987,-1.119886 -0.55862,-2.242418 -0.841898,-3.367596 -0.02854,-0.932796 -0.05972,-1.868241 -0.09354,-2.806329 0.220917,-0.74571 0.439187,-1.494063 0.654809,-2.245064 -0.496255,-0.901615 -0.995158,-1.805879 -1.496708,-2.712786 -0.932796,-0.776891 -1.868241,-1.556427 -2.806329,-2.338607 -1.868242,0.189732 -3.739128,0.376822 -5.61266,0.561266 -0.745709,0.03383 -1.494064,0.06501 -2.245064,0.09354 -0.683346,0.0026 -1.369338,0.0026 -2.057976,0 -0.99516,-1.306975 -1.992966,-2.616594 -2.993418,-3.928861 0.03383,-0.277987 0.06501,-0.55862 0.09354,-0.841899 1.779988,-0.496258 3.55733,-0.995162 5.332027,-1.496711 2.933701,-0.184441 5.864757,-0.371531 8.793168,-0.561266 0.470366,0.189735 0.938088,0.376825 1.403165,0.561266 -0.465077,0.595096 -0.932799,1.187543 -1.403165,1.777344 -0.55862,0.06501 -1.119886,0.12737 -1.683798,0.187087 -0.246806,-0.683345 -0.496257,-1.369335 -0.748355,-2.057974 0.252098,-0.309169 0.501549,-0.620983 0.748355,-0.935443 0.09619,-0.122081 0.189733,-0.246806 0.280633,-0.374179 0.595093,-0.122079 1.18754,-0.246806 1.777341,-0.374176 0.31446,-0.0909 0.626274,-0.184444 0.935443,-0.280633 0.439187,-0.184444 0.875728,-0.371531 1.309621,-0.561266 0.127373,-0.02854 0.252098,-0.05972 0.374176,-0.09354 0.688639,-0.402715 1.37463,-0.808072 2.057977,-1.216078 0.252098,-0.402712 0.50155,-0.808072 0.748356,-1.216076" />
    <path
       style="fill:none;stroke:#000000;stroke-width:0.264583px;stroke-linecap:butt;stroke-linejoin:miter;stroke-opacity:1"
       d="m 59.106051,111.80279 c -1.212891,-0.4354 -2.428966,-0.87194 -3.535969,-1.41718 -1.107002,-0.54524 -2.104809,-1.20005 -2.837826,-1.77655 -0.733018,-0.5765 -1.200739,-1.0754 -1.529218,-1.99514 -0.328479,-0.91974 -0.515567,-2.26054 -0.469259,-3.19697 0.04631,-0.93643 0.326943,-1.46652 0.779543,-1.96607 0.452599,-0.49955 1.076227,-0.96727 1.669625,-1.23228 0.593399,-0.265012 1.154665,-0.327376 1.543137,-1.292719 0.388471,-0.965342 0.606742,-2.836229 -0.60762,-4.177701 -1.214362,-1.341473 -3.864783,-2.15219 -5.393848,-3.336006 -1.529065,-1.183817 -1.934423,-2.742889 -2.012938,-4.427129 -0.07851,-1.68424 0.170937,-3.492765 0.32684,-4.615305 0.155903,-1.122539 0.218266,-1.559078 0.374076,-2.011841 0.15581,-0.452762 0.405261,-0.920483 0.935972,-1.404504 0.53071,-0.484021 1.341425,-0.982923 3.072796,-1.372589 1.731372,-0.389665 4.381796,-0.670298 6.252835,-0.81049 1.871039,-0.140193 2.962389,-0.140193 4.116031,-0.171438 1.153642,-0.03124 2.36972,-0.09361 3.241275,-0.81001 0.871556,-0.716402 1.401641,-2.088386 0.405656,-3.553664 -0.995984,-1.465278 -3.521679,-3.02435 -5.423974,-3.804842 -1.902295,-0.780493 -3.180735,-0.780493 -4.225313,-0.780493 -1.044578,0 -1.855295,0 -2.556667,-0.06204 -0.701372,-0.06204 -1.293819,-0.186765 -1.82385,-0.326875 -0.530031,-0.14011 -0.997753,-0.296018 -1.543693,-0.684992 -0.545939,-0.388975 -1.169568,-1.012605 -1.482705,-1.355602 -0.313137,-0.342997 -0.313137,-0.405356 -0.327405,-0.452128 -0.01427,-0.04677 -0.04546,-0.07796 -0.04545,-0.09487 2e-6,-0.01691 0.03118,-0.01691 0.04545,-0.04677 0.01427,-0.02986 0.01427,-0.09222 0.01427,-0.15723"
       id="path1910"
       inkscape:path-effect="#path-effect1912"
       inkscape:original-d="m 59.106051,111.80279 c -1.213432,-0.43389 -2.429507,-0.87043 -3.648231,-1.30962 -0.995159,-0.65216 -1.992966,-1.30697 -2.993416,-1.96443 -0.465077,-0.49626 -0.932799,-0.99516 -1.403168,-1.49671 -0.184441,-1.33816 -0.37153,-2.67896 -0.561266,-4.0224 0.283279,-0.52744 0.563912,-1.05753 0.841899,-1.59026 0.626277,-0.46507 1.249905,-0.93279 1.870888,-1.40316 0.563911,-0.05972 1.125177,-0.122084 1.683797,-0.187092 0.220917,-1.868239 0.439187,-3.739126 0.654812,-5.612659 -2.647778,-0.808072 -5.298199,-1.61879 -7.951268,-2.432153 -0.402715,-1.556425 -0.808072,-3.115498 -1.216076,-4.677217 0.252095,-1.805877 0.501547,-3.614402 0.748353,-5.42557 0.06501,-0.433895 0.127373,-0.870434 0.18709,-1.309621 0.252097,-0.465077 0.501549,-0.932797 0.748355,-1.403165 0.813364,-0.496258 1.624079,-0.995161 2.43215,-1.496711 2.65307,-0.277987 5.303494,-0.55862 7.951269,-0.841899 1.093997,0.0026 2.185347,0.0026 3.274052,0 1.218721,-0.05972 2.434799,-0.122078 3.648229,-0.187086 0.53273,-1.369338 1.062815,-2.741322 1.590254,-4.115951 -2.523051,-1.556428 -5.048747,-3.115498 -7.57709,-4.677217 -1.275794,0.0026 -2.554234,0.0026 -3.835318,0 -0.808072,0.0026 -1.618789,0.0026 -2.432153,0 -0.589801,-0.122081 -1.182248,-0.246806 -1.777344,-0.374176 -0.465074,-0.153263 -0.932796,-0.309171 -1.403164,-0.467723 -0.620983,-0.620982 -1.244611,-1.244613 -1.870885,-1.870887 0.0026,-0.05972 0.0026,-0.122079 0,-0.18709 -0.02853,-0.02854 -0.05972,-0.05972 -0.09355,-0.09354 0.03383,0.0026 0.06501,0.0026 0.09355,0 0.0026,-0.05972 0.0026,-0.122079 0,-0.18709" />
    <g
       id="g1252"
       transform="translate(-9.9842768,16.663816)">
      <text
         xml:space="preserve"
         style="font-style:normal;font-variant:normal;font-weight:bold;font-stretch:normal;font-size:2.82222px;line-height:1.25;font-family:sans-serif;-inkscape-font-specification:'sans-serif, Bold';font-variant-ligatures:normal;font-variant-caps:normal;font-variant-numeric:normal;font-variant-east-asian:normal;opacity:0.997;fill:#000000;fill-opacity:1;stroke:none;stroke-width:0.265;stroke-miterlimit:4;stroke-dasharray:none"
         x="28.049334"
         y="30.699858"
         id="text1231"><tspan
           sodipodi:role="line"
           id="tspan1229"
           x="28.049334"
           y="30.699858"
           style="font-style:normal;font-variant:normal;font-weight:bold;font-stretch:normal;font-size:2.82222px;font-family:sans-serif;-inkscape-font-specification:'sans-serif, Bold';font-variant-ligatures:normal;font-variant-caps:normal;font-variant-numeric:normal;font-variant-east-asian:normal;fill:#000000;fill-opacity:1;stroke-width:0.265;stroke-miterlimit:4;stroke-dasharray:none">To: 4</tspan><tspan
           sodipodi:role="line"
           x="28.049334"
           y="34.227634"
           style="font-style:normal;font-variant:normal;font-weight:bold;font-stretch:normal;font-size:2.82222px;font-family:sans-serif;-inkscape-font-specification:'sans-serif, Bold';font-variant-ligatures:normal;font-variant-caps:normal;font-variant-numeric:normal;font-variant-east-asian:normal;fill:#000000;fill-opacity:1;stroke-width:0.265;stroke-miterlimit:4;stroke-dasharray:none"
           id="tspan1233">From: 1</tspan><tspan
           sodipodi:role="line"
           x="28.049334"
           y="37.755409"
           style="font-style:normal;font-variant:normal;font-weight:bold;font-stretch:normal;font-size:2.82222px;font-family:sans-serif;-inkscape-font-specification:'sans-serif, Bold';font-variant-ligatures:normal;font-variant-caps:normal;font-variant-numeric:normal;font-variant-east-asian:normal;fill:#000000;fill-opacity:1;stroke-width:0.265;stroke-miterlimit:4;stroke-dasharray:none"
           id="tspan1235"
           dx="0 0 0 0 0 0 0 0 0 0 -0.18708867">...payload...</tspan></text>
      <rect
         style="opacity:0.997;fill:none;fill-opacity:1;stroke:#000000;stroke-width:0.264999;stroke-miterlimit:4;stroke-dasharray:none;stroke-opacity:1"
         id="rect1245"
         width="20.032532"
         height="11.279109"
         x="27.462673"
         y="27.794344" />
    </g>
  </g>
</svg>
