<?xml version="1.0" encoding="UTF-8" standalone="no"?>
<svg
   xmlns:dc="http://purl.org/dc/elements/1.1/"
   xmlns:cc="http://creativecommons.org/ns#"
   xmlns:rdf="http://www.w3.org/1999/02/22-rdf-syntax-ns#"
   xmlns:svg="http://www.w3.org/2000/svg"
   xmlns="http://www.w3.org/2000/svg"
   xmlns:sodipodi="http://sodipodi.sourceforge.net/DTD/sodipodi-0.dtd"
   xmlns:inkscape="http://www.inkscape.org/namespaces/inkscape"
   width="78.73571mm"
   height="115.4877mm"
   viewBox="0 0 78.73571 115.4877"
   version="1.1"
   id="svg8"
   inkscape:version="1.0.2 (e86c8708, 2021-01-15)"
   sodipodi:docname="network-simple-link-layer.svg">
  <defs
     id="defs2">
    <filter
       inkscape:collect="always"
       style="color-interpolation-filters:sRGB"
       id="filter1090"
       x="-4.6243867e-06"
       width="1.0000092"
       y="-4.989477e-06"
       height="1.00001">
      <feGaussianBlur
         inkscape:collect="always"
         stdDeviation="1.0557142e-05"
         id="feGaussianBlur1092" />
    </filter>
  </defs>
  <sodipodi:namedview
     id="base"
     pagecolor="#ffffff"
     bordercolor="#666666"
     borderopacity="1.0"
     inkscape:pageopacity="0.0"
     inkscape:pageshadow="2"
     inkscape:zoom="0.7"
     inkscape:cx="456.10917"
     inkscape:cy="508.28503"
     inkscape:document-units="mm"
     inkscape:current-layer="layer1"
     inkscape:document-rotation="0"
     showgrid="false"
     inkscape:window-width="1252"
     inkscape:window-height="943"
     inkscape:window-x="303"
     inkscape:window-y="38"
     inkscape:window-maximized="0"
     fit-margin-top="0"
     fit-margin-left="0"
     fit-margin-right="0"
     fit-margin-bottom="0" />
  <metadata
     id="metadata5">
    <rdf:RDF>
      <cc:Work
         rdf:about="">
        <dc:format>image/svg+xml</dc:format>
        <dc:type
           rdf:resource="http://purl.org/dc/dcmitype/StillImage" />
        <dc:title></dc:title>
      </cc:Work>
    </rdf:RDF>
  </metadata>
  <g
     inkscape:label="Layer 1"
     inkscape:groupmode="layer"
     id="layer1"
     transform="translate(-3.3536288,-3.7590907)">
    <g
       id="g988"
       transform="matrix(0.61812274,0,0,0.61812274,0.95026366,1.4355113)">
      <rect
         id="rect10"
         width="37.041664"
         height="62.823132"
         x="3.8881681"
         y="3.7590907"
         style="fill:#cccccc;stroke-width:0.172;stroke-miterlimit:4;stroke-dasharray:none" />
      <g
         id="g65"
         transform="matrix(0.54358969,0,0,0.5512314,-5.159641,-15.251051)">
        <path
           inkscape:connector-curvature="0"
           style="color:#000000;display:inline;overflow:visible;visibility:visible;fill:#002255;fill-opacity:1;fill-rule:nonzero;stroke:none;stroke-width:0.0815837;marker:none;enable-background:accumulate"
           d="m 70.825214,130.84532 c -4.442862,0 -8.047189,3.01885 -8.047189,6.74002 0,3.72117 3.604327,6.73601 8.047189,6.73601 0.854396,0 1.679011,-0.11362 2.451429,-0.32019 v -3.362 c -0.667032,0.32483 -1.44764,0.5123 -2.284178,0.5123 -2.444776,0 -4.424998,-1.59648 -4.424998,-3.56612 0,-1.96964 1.980222,-3.56613 4.424998,-3.56613 0.836538,0 1.617146,0.18748 2.284178,0.51231 v -3.36601 c -0.772418,-0.20681 -1.597033,-0.32019 -2.451429,-0.32019 z"
           id="path3002" />
        <polygon
           points="298.459,78.103 245.459,134.853 179.959,134.853 179.959,78.103 "
           transform="matrix(0.05057717,0,0,0.04120138,64.245813,131.8041)"
           style="fill:#002255"
           id="polygon9367" />
        <polygon
           points="298.459,203.103 245.459,146.353 179.959,146.353 179.959,203.103 "
           transform="matrix(0.05057717,0,0,0.04120138,64.245813,131.8041)"
           style="fill:#ff0000"
           id="polygon9369" />
      </g>
      <g
         id="g973"
         transform="translate(-7.7790254,-33.67596)">
        <path
           id="rect67"
           style="fill:#808080;stroke-width:0.177147"
           d="m 17.893627,43.942905 h 24.588797 v 3.474504 H 17.893627 Z" />
        <path
           id="rect69"
           style="fill:#808080;stroke-width:0.264583"
           d="m 27.314878,47.320953 h 5.746295 v 1.202713 h -5.746295 z" />
      </g>
      <rect
         style="fill:#e6e6e6;stroke-width:0.264583"
         id="rect894"
         width="14.079613"
         height="1.7953868"
         x="23.889709"
         y="40.218388" />
      <rect
         style="fill:#e6e6e6;stroke-width:0.264583"
         id="rect896"
         width="14.079613"
         height="1.7953868"
         x="23.889709"
         y="44.034504" />
      <rect
         style="fill:#e6e6e6;stroke-width:0.264583"
         id="rect898"
         width="14.079613"
         height="1.7953868"
         x="23.889709"
         y="47.850628" />
    </g>
    <g
       id="g1012"
       transform="matrix(0.61812274,0,0,0.61812274,56.789679,1.4355113)">
      <rect
         id="rect990"
         width="37.041664"
         height="62.823132"
         x="3.8881681"
         y="3.7590907"
         style="fill:#cccccc;stroke-width:0.172;stroke-miterlimit:4;stroke-dasharray:none" />
      <g
         id="g998"
         transform="matrix(0.54358969,0,0,0.5512314,-5.159641,-15.251051)">
        <path
           inkscape:connector-curvature="0"
           style="color:#000000;display:inline;overflow:visible;visibility:visible;fill:#002255;fill-opacity:1;fill-rule:nonzero;stroke:none;stroke-width:0.0815837;marker:none;enable-background:accumulate"
           d="m 70.825214,130.84532 c -4.442862,0 -8.047189,3.01885 -8.047189,6.74002 0,3.72117 3.604327,6.73601 8.047189,6.73601 0.854396,0 1.679011,-0.11362 2.451429,-0.32019 v -3.362 c -0.667032,0.32483 -1.44764,0.5123 -2.284178,0.5123 -2.444776,0 -4.424998,-1.59648 -4.424998,-3.56612 0,-1.96964 1.980222,-3.56613 4.424998,-3.56613 0.836538,0 1.617146,0.18748 2.284178,0.51231 v -3.36601 c -0.772418,-0.20681 -1.597033,-0.32019 -2.451429,-0.32019 z"
           id="path992" />
        <polygon
           points="179.959,134.853 179.959,78.103 298.459,78.103 245.459,134.853 "
           transform="matrix(0.05057717,0,0,0.04120138,64.245813,131.8041)"
           style="fill:#002255"
           id="polygon994" />
        <polygon
           points="179.959,146.353 179.959,203.103 298.459,203.103 245.459,146.353 "
           transform="matrix(0.05057717,0,0,0.04120138,64.245813,131.8041)"
           style="fill:#ff0000"
           id="polygon996" />
      </g>
      <g
         id="g1004"
         transform="translate(-7.7790254,-33.67596)">
        <path
           id="path1000"
           style="fill:#808080;stroke-width:0.177147"
           d="m 17.893627,43.942905 h 24.588797 v 3.474504 H 17.893627 Z" />
        <path
           id="path1002"
           style="fill:#808080;stroke-width:0.264583"
           d="m 27.314878,47.320953 h 5.746295 v 1.202713 h -5.746295 z" />
      </g>
      <rect
         style="fill:#e6e6e6;stroke-width:0.264583"
         id="rect1006"
         width="14.079613"
         height="1.7953868"
         x="23.889709"
         y="40.218388" />
      <rect
         style="fill:#e6e6e6;stroke-width:0.264583"
         id="rect1008"
         width="14.079613"
         height="1.7953868"
         x="23.889709"
         y="44.034504" />
      <rect
         style="fill:#e6e6e6;stroke-width:0.264583"
         id="rect1010"
         width="14.079613"
         height="1.7953868"
         x="23.889709"
         y="47.850628" />
    </g>
    <g
       id="g1036"
       transform="matrix(0.61812274,0,0,0.61812274,0.95026366,78.090803)">
      <rect
         id="rect1014"
         width="37.041664"
         height="62.823132"
         x="3.8881681"
         y="3.7590907"
         style="fill:#cccccc;stroke-width:0.172;stroke-miterlimit:4;stroke-dasharray:none" />
      <g
         id="g1022"
         transform="matrix(0.54358969,0,0,0.5512314,-5.159641,-15.251051)">
        <path
           inkscape:connector-curvature="0"
           style="color:#000000;display:inline;overflow:visible;visibility:visible;fill:#002255;fill-opacity:1;fill-rule:nonzero;stroke:none;stroke-width:0.0815837;marker:none;enable-background:accumulate"
           d="m 70.825214,130.84532 c -4.442862,0 -8.047189,3.01885 -8.047189,6.74002 0,3.72117 3.604327,6.73601 8.047189,6.73601 0.854396,0 1.679011,-0.11362 2.451429,-0.32019 v -3.362 c -0.667032,0.32483 -1.44764,0.5123 -2.284178,0.5123 -2.444776,0 -4.424998,-1.59648 -4.424998,-3.56612 0,-1.96964 1.980222,-3.56613 4.424998,-3.56613 0.836538,0 1.617146,0.18748 2.284178,0.51231 v -3.36601 c -0.772418,-0.20681 -1.597033,-0.32019 -2.451429,-0.32019 z"
           id="path1016" />
        <polygon
           points="245.459,134.853 179.959,134.853 179.959,78.103 298.459,78.103 "
           transform="matrix(0.05057717,0,0,0.04120138,64.245813,131.8041)"
           style="fill:#002255"
           id="polygon1018" />
        <polygon
           points="245.459,146.353 179.959,146.353 179.959,203.103 298.459,203.103 "
           transform="matrix(0.05057717,0,0,0.04120138,64.245813,131.8041)"
           style="fill:#ff0000"
           id="polygon1020" />
      </g>
      <g
         id="g1028"
         transform="translate(-7.7790254,-33.67596)">
        <path
           id="path1024"
           style="fill:#808080;stroke-width:0.177147"
           d="m 17.893627,43.942905 h 24.588797 v 3.474504 H 17.893627 Z" />
        <path
           id="path1026"
           style="fill:#808080;stroke-width:0.264583"
           d="m 27.314878,47.320953 h 5.746295 v 1.202713 h -5.746295 z" />
      </g>
      <rect
         style="fill:#e6e6e6;stroke-width:0.264583"
         id="rect1030"
         width="14.079613"
         height="1.7953868"
         x="23.889709"
         y="40.218388" />
      <rect
         style="fill:#e6e6e6;stroke-width:0.264583"
         id="rect1032"
         width="14.079613"
         height="1.7953868"
         x="23.889709"
         y="44.034504" />
      <rect
         style="fill:#e6e6e6;stroke-width:0.264583"
         id="rect1034"
         width="14.079613"
         height="1.7953868"
         x="23.889709"
         y="47.850628" />
    </g>
    <g
       id="g1060"
       transform="matrix(0.61812274,0,0,0.61812274,56.789679,78.090803)">
      <rect
         id="rect1038"
         width="37.041664"
         height="62.823132"
         x="3.8881681"
         y="3.7590907"
         style="fill:#cccccc;stroke-width:0.172;stroke-miterlimit:4;stroke-dasharray:none" />
      <g
         id="g1046"
         transform="matrix(0.54358969,0,0,0.5512314,-5.159641,-15.251051)">
        <path
           inkscape:connector-curvature="0"
           style="color:#000000;display:inline;overflow:visible;visibility:visible;fill:#002255;fill-opacity:1;fill-rule:nonzero;stroke:none;stroke-width:0.0815837;marker:none;enable-background:accumulate"
           d="m 70.825214,130.84532 c -4.442862,0 -8.047189,3.01885 -8.047189,6.74002 0,3.72117 3.604327,6.73601 8.047189,6.73601 0.854396,0 1.679011,-0.11362 2.451429,-0.32019 v -3.362 c -0.667032,0.32483 -1.44764,0.5123 -2.284178,0.5123 -2.444776,0 -4.424998,-1.59648 -4.424998,-3.56612 0,-1.96964 1.980222,-3.56613 4.424998,-3.56613 0.836538,0 1.617146,0.18748 2.284178,0.51231 v -3.36601 c -0.772418,-0.20681 -1.597033,-0.32019 -2.451429,-0.32019 z"
           id="path1040" />
        <polygon
           points="179.959,78.103 298.459,78.103 245.459,134.853 179.959,134.853 "
           transform="matrix(0.05057717,0,0,0.04120138,64.245813,131.8041)"
           style="fill:#002255"
           id="polygon1042" />
        <polygon
           points="179.959,203.103 298.459,203.103 245.459,146.353 179.959,146.353 "
           transform="matrix(0.05057717,0,0,0.04120138,64.245813,131.8041)"
           style="fill:#ff0000"
           id="polygon1044" />
      </g>
      <g
         id="g1052"
         transform="translate(-7.7790254,-33.67596)">
        <path
           id="path1048"
           style="fill:#808080;stroke-width:0.177147"
           d="m 17.893627,43.942905 h 24.588797 v 3.474504 H 17.893627 Z" />
        <path
           id="path1050"
           style="fill:#808080;stroke-width:0.264583"
           d="m 27.314878,47.320953 h 5.746295 v 1.202713 h -5.746295 z" />
      </g>
      <rect
         style="fill:#e6e6e6;stroke-width:0.264583"
         id="rect1054"
         width="14.079613"
         height="1.7953868"
         x="23.889709"
         y="40.218388" />
      <rect
         style="fill:#e6e6e6;stroke-width:0.264583"
         id="rect1056"
         width="14.079613"
         height="1.7953868"
         x="23.889709"
         y="44.034504" />
      <rect
         style="fill:#e6e6e6;stroke-width:0.264583"
         id="rect1058"
         width="14.079613"
         height="1.7953868"
         x="23.889709"
         y="47.850628" />
    </g>
    <rect
       style="opacity:1;fill:#0000ff;stroke:none;stroke-width:0.106317;stroke-miterlimit:4;stroke-dasharray:none;stroke-opacity:1"
       id="rect1062"
       width="17.873129"
       height="5.8408918"
       x="33.78492"
       y="58.582489" />
    <path
       style="fill:none;stroke:#000000;stroke-width:0.163545px;stroke-linecap:butt;stroke-linejoin:miter;stroke-opacity:1"
       d="m 26.162875,35.54632 c 1.206001,-0.470193 2.427012,-0.860619 3.73817,-0.467273 1.946771,0.584032 4.257983,3.209077 3.621353,5.373622 -0.362046,1.230954 -1.867216,1.336084 -2.803629,1.752267 -1.512081,0.672037 -1.60377,2.996474 -1.05136,4.322259 0.814752,1.955405 1.581083,0.901923 2.803627,1.63545 0.496382,0.297829 0.921269,0.71785 1.284997,1.168179 0.97799,1.210843 1.780313,2.790823 2.102721,4.322259 0.08177,0.388379 0.170645,1.628956 0.233636,1.985905 0.160017,0.906758 0.700908,1.892815 0.700908,2.803628"
       id="path1074" />
    <g
       id="g1104"
       transform="matrix(0.53316434,0,0,0.53316434,6.5700384,9.6807889)">
      <rect
         style="opacity:1;fill:#f2f2f2;stroke:none;stroke-width:0.172;stroke-miterlimit:4;stroke-dasharray:none;stroke-opacity:1;filter:url(#filter1090)"
         id="rect1084"
         width="5.4790273"
         height="5.0781155"
         x="54.65662"
         y="94.613411"
         transform="matrix(1.0038182,0,0,1.0830685,-0.20869144,-8.0254564)" />
      <rect
         style="opacity:1;fill:#f2f2f2;stroke:none;stroke-width:0.172;stroke-miterlimit:4;stroke-dasharray:none;stroke-opacity:1;filter:url(#filter1090)"
         id="rect1094"
         width="5.4790273"
         height="5.0781155"
         x="54.65662"
         y="94.613411"
         transform="matrix(1.0038182,0,0,1.0830685,6.7238803,-8.0254564)" />
      <rect
         style="opacity:1;fill:#f2f2f2;stroke:none;stroke-width:0.172;stroke-miterlimit:4;stroke-dasharray:none;stroke-opacity:1;filter:url(#filter1090)"
         id="rect1096"
         width="5.4790273"
         height="5.0781155"
         x="54.65662"
         y="94.613411"
         transform="matrix(1.0038182,0,0,1.0830685,13.656449,-8.0254564)" />
      <rect
         style="opacity:1;fill:#f2f2f2;stroke:none;stroke-width:0.172;stroke-miterlimit:4;stroke-dasharray:none;stroke-opacity:1;filter:url(#filter1090)"
         id="rect1098"
         width="5.4790273"
         height="5.0781155"
         x="54.65662"
         y="94.613411"
         transform="matrix(1.0038182,0,0,1.0830685,20.589018,-8.0254564)" />
    </g>
    <path
       style="fill:none;stroke:#000000;stroke-width:0.163545px;stroke-linecap:butt;stroke-linejoin:miter;stroke-opacity:1"
       d="m 59.102554,35.467817 c -1.254058,-0.233531 -2.531363,-0.165205 -3.799724,-0.165205 -0.33041,0 -0.665849,-0.05742 -0.991231,0 -1.791437,0.316136 -3.569618,1.041805 -4.956162,2.230272 -0.641945,0.550239 -1.486848,1.254541 -1.486848,2.230273 0,1.947955 2.44024,2.372558 3.386709,3.634517 0.432295,0.576393 0.932547,2.708532 0.991233,3.138902 0.03328,0.244063 0.112977,2.199243 -0.247808,2.643286 -0.281513,0.346478 -1.840704,0.486069 -2.065068,0.495617 -0.261361,0.01112 -4.096253,-0.15282 -4.708352,0.0826 -0.164554,0.06329 -0.29388,0.200445 -0.413015,0.33041 -0.692594,0.75556 -0.660821,1.507799 -0.660821,2.478081 0,0.495616 -0.05473,0.994263 0,1.486848 0.06448,0.290162 0.213899,0.899944 0.247809,1.239041 0.05442,0.544189 -0.0073,1.112755 0.0826,1.652053 0.09271,0.55624 0.413014,1.011077 0.413014,1.56945"
       id="path1112" />
    <path
       style="fill:none;stroke:#000000;stroke-width:0.163545px;stroke-linecap:butt;stroke-linejoin:miter;stroke-opacity:1"
       d="m 59.185155,113.94037 c -1.557322,0 -0.218931,0.0362 -3.1389,-0.41302 -0.604251,-0.093 -1.228205,-0.0842 -1.81726,-0.2478 -1.742892,-0.48414 -3.851186,-1.41349 -5.20397,-2.64329 -0.552874,-0.50262 -0.0025,-1.12272 0.247809,-1.48685 0.324547,-0.47206 0.818985,-1.3728 1.321643,-1.65205 0.603654,-0.33537 1.366194,-0.36525 1.734656,-1.07384 0.702622,-1.35119 0.264746,-1.958 -0.660822,-3.1389 -0.443841,-0.56628 -1.904437,-1.45386 -1.734656,-2.06507 0.0938,-0.33767 0.503236,-0.48822 0.743425,-0.74342 0.712355,-0.756878 0.499623,-0.696284 1.404246,-1.404245 1.317201,-1.030855 0.911337,-0.465013 2.230273,-1.652056 0.188687,-0.169817 0.508956,-0.324712 0.495615,-0.578217 -0.05951,-1.130701 -1.195635,-1.279786 -1.982465,-1.486851 -1.147495,-0.301971 -2.503049,-0.768654 -3.634517,-0.165199 -0.229198,0.122233 -0.482175,0.22444 -0.660822,0.413011 -0.515128,0.543744 -0.749858,1.333439 -1.321643,1.817256 -0.262229,0.221887 -1.049386,0.361991 -1.073836,0.330411 -0.618859,-0.799356 -1.13848,-1.694281 -1.486848,-2.643284 -0.525303,-1.431004 -1.267821,-3.951591 -0.743423,-5.699586 0.281099,-0.936994 1.387805,-0.781048 2.065066,-0.991234 0.317749,-0.09861 0.605753,-0.275343 0.90863,-0.413012 0.743425,-0.192736 1.481368,-0.408016 2.230273,-0.578216 2.985588,-0.678544 6.641635,0.07579 7.516844,-4.212742 0.271535,-1.330521 -0.272057,-2.664195 -0.660821,-3.882323 -0.778371,-2.438903 -1.096648,-3.65543 -3.0563,-5.451775 -1.9455,-1.783377 -0.06359,0.238731 -1.899862,-1.404251 -0.448473,-0.401261 -1.026276,-1.098237 -1.321643,-1.652051 -0.568663,-1.066243 -0.162737,-1.47204 -0.33041,-2.478078 -0.104777,-0.628662 -0.512498,-1.1943 -0.660822,-1.817263 -0.02427,-0.101922 -0.367178,-1.578518 -0.247808,-1.817256 0.09136,-0.182729 0.165206,-0.0064 0.165206,-0.247811"
       id="path1116" />
    <path
       style="fill:none;stroke:#000000;stroke-width:0.163545px;stroke-linecap:butt;stroke-linejoin:miter;stroke-opacity:1"
       d="m 26.226685,113.03174 c 1.141567,0.15587 2.236459,0.0237 3.304107,-0.41301 0.5527,-0.22611 1.070305,-0.57721 1.652055,-0.74343 0.371591,-0.10617 0.773222,-0.0326 1.156437,-0.0826 1.8374,-0.23966 2.506793,-0.3143 3.469312,-2.14767 1.377504,-2.62382 0.651938,-6.01248 0.165206,-8.75589 -0.330152,-1.860857 -0.405023,-2.518589 -0.90863,-4.130128 -0.591675,-1.893365 -0.653987,-2.037264 -2.560683,-1.817262 -0.06794,0.0079 -1.260143,0.09985 -1.404246,0.330411 -0.161409,0.258258 -0.0448,1.048646 0,1.23904 0.03265,0.138762 0.510041,1.340331 0.57822,1.404245 0.967248,0.906798 3.370732,0.710112 4.460545,0.165205 0.473716,-0.236858 1.206368,-0.252144 1.404245,-0.743422 0.659738,-1.637976 0.741504,-3.455875 0.991233,-5.203969 0.191437,-1.340059 0.261958,-2.695596 0.33041,-4.04753 0.01843,-0.363845 -0.06747,-2.824122 0.0826,-3.634524 0.06819,-0.368241 0.266243,-0.704864 0.33041,-1.073834 0.04717,-0.271269 -0.0261,-0.551922 0,-0.826022 0.120205,-1.262163 0.843748,-2.928326 -0.33041,-3.88233 -0.647423,-0.526035 -2.745655,-1.226665 -3.46931,-1.569451 C 34.94391,76.846491 34.446929,76.518175 33.908736,76.273541 32.423914,75.598625 30.716483,75.523647 29.117779,75.447519 25.92462,75.295461 24.019948,75.773504 20.774908,74.373685 20.379734,74.203213 19.131487,73.361188 18.709841,72.886834 18.481,72.629386 19.18533,72.179665 19.866278,71.813 c 2.018937,-1.087123 4.382265,-1.615976 6.608215,-2.065067 6.688055,-1.349344 4.537318,-1.149159 8.590679,-1.321646 0.633313,-0.02695 1.272722,-0.174829 1.899862,-0.0826 1.341413,0.197261 2.806778,2.615852 2.891094,3.964929 0.01374,0.219842 0.105479,0.467443 0,0.660817 -0.114637,0.210168 -0.794719,0.319495 -0.991232,0.330411 -0.250203,0.01391 -1.433054,0.06101 -1.734657,-0.165206 -0.915111,-0.686332 -1.872756,-2.576687 -0.991231,-3.634518 0.166792,-0.200148 0.980043,-0.572623 1.156436,-0.660816 0.810568,-0.405285 1.61702,-0.902571 2.065068,-1.734663 0.352668,-0.65495 0.597976,-1.463517 0.826027,-2.147667 0.03819,-0.114588 0.04861,-0.413011 0.165206,-0.413011"
       id="path1124" />
  </g>
</svg>
