<?xml version="1.0" encoding="UTF-8" standalone="no"?>
<!-- Created with Inkscape (http://www.inkscape.org/) -->

<svg
   width="276mm"
   height="62mm"
   viewBox="0 0 276 62"
   version="1.1"
   id="svg1"
   inkscape:version="1.3.2 (091e20e, 2023-11-25)"
   sodipodi:docname="public-ip-over-vpn-nva.svg"
   xmlns:inkscape="http://www.inkscape.org/namespaces/inkscape"
   xmlns:sodipodi="http://sodipodi.sourceforge.net/DTD/sodipodi-0.dtd"
   xmlns:xlink="http://www.w3.org/1999/xlink"
   xmlns="http://www.w3.org/2000/svg"
   xmlns:svg="http://www.w3.org/2000/svg">
  <sodipodi:namedview
     id="namedview1"
     pagecolor="#ffffff"
     bordercolor="#666666"
     borderopacity="1.0"
     inkscape:showpageshadow="2"
     inkscape:pageopacity="0.0"
     inkscape:pagecheckerboard="0"
     inkscape:deskcolor="#d1d1d1"
     inkscape:document-units="mm"
     inkscape:zoom="1.014636"
     inkscape:cx="649.9868"
     inkscape:cy="180.85304"
     inkscape:window-width="1472"
     inkscape:window-height="776"
     inkscape:window-x="295"
     inkscape:window-y="116"
     inkscape:window-maximized="0"
     inkscape:current-layer="layer1" />
  <defs
     id="defs1">
    <marker
       style="overflow:visible"
       id="RoundedArrow"
       refX="0"
       refY="0"
       orient="auto-start-reverse"
       inkscape:stockid="Rounded arrow"
       markerWidth="1"
       markerHeight="1"
       viewBox="0 0 1 1"
       inkscape:isstock="true"
       inkscape:collect="always"
       preserveAspectRatio="xMidYMid">
      <path
         transform="scale(0.7)"
         d="m -0.21114562,-4.1055728 6.42229122,3.21114561 a 1,1 90 0 1 0,1.78885438 L -0.21114562,4.1055728 A 1.236068,1.236068 31.717474 0 1 -2,3 v -6 a 1.236068,1.236068 148.28253 0 1 1.78885438,-1.1055728 z"
         style="fill:context-stroke;fill-rule:evenodd;stroke:none"
         id="path37" />
    </marker>
    <inkscape:path-effect
       effect="bspline"
       id="path-effect36"
       is_visible="true"
       lpeversion="1.3"
       weight="33.333333"
       steps="2"
       helper_size="0"
       apply_no_weight="true"
       apply_with_weight="true"
       only_selected="false"
       uniform="false" />
    <inkscape:path-effect
       effect="bspline"
       id="path-effect31"
       is_visible="true"
       lpeversion="1.3"
       weight="33.333333"
       steps="2"
       helper_size="0"
       apply_no_weight="true"
       apply_with_weight="true"
       only_selected="false"
       uniform="false" />
    <inkscape:path-effect
       effect="bspline"
       id="path-effect23"
       is_visible="true"
       lpeversion="1.3"
       weight="33.333333"
       steps="2"
       helper_size="0"
       apply_no_weight="true"
       apply_with_weight="true"
       only_selected="false"
       uniform="false" />
    <linearGradient
       x1="0.65625"
       y1="125.12147"
       x2="299.9375"
       y2="125.12147"
       id="linearGradient3833"
       xlink:href="#linearGradient3613"
       gradientUnits="userSpaceOnUse"
       gradientTransform="translate(-0.31342216,851.86901)" />
    <linearGradient
       id="linearGradient3613">
      <stop
         id="stop3780"
         style="stop-color:#557b8b;stop-opacity:1"
         offset="0" />
      <stop
         id="stop3617"
         style="stop-color:#8aaac0;stop-opacity:1"
         offset="1" />
    </linearGradient>
    <inkscape:path-effect
       effect="bspline"
       id="path-effect18"
       is_visible="true"
       lpeversion="1.3"
       weight="33.333333"
       steps="2"
       helper_size="0"
       apply_no_weight="true"
       apply_with_weight="true"
       only_selected="false"
       uniform="false" />
    <inkscape:path-effect
       effect="bspline"
       id="path-effect9"
       is_visible="true"
       lpeversion="1.3"
       weight="33.333333"
       steps="2"
       helper_size="0"
       apply_no_weight="true"
       apply_with_weight="true"
       only_selected="false"
       uniform="false" />
    <marker
       style="overflow:visible"
       id="Triangle"
       refX="0"
       refY="0"
       orient="auto-start-reverse"
       inkscape:stockid="Triangle arrow"
       markerWidth="1"
       markerHeight="1"
       viewBox="0 0 1 1"
       inkscape:isstock="true"
       inkscape:collect="always"
       preserveAspectRatio="xMidYMid">
      <path
         transform="scale(0.5)"
         style="fill:context-stroke;fill-rule:evenodd;stroke:context-stroke;stroke-width:1pt"
         d="M 5.77,0 -2.88,5 V -5 Z"
         id="path135" />
    </marker>
    <inkscape:path-effect
       effect="bspline"
       id="path-effect7"
       is_visible="true"
       lpeversion="1.3"
       weight="33.333333"
       steps="2"
       helper_size="0"
       apply_no_weight="true"
       apply_with_weight="true"
       only_selected="false"
       uniform="false" />
    <linearGradient
       id="f34d9569-2bd0-4002-8f16-3d01d8106cb5"
       x1="8.8800001"
       y1="12.21"
       x2="8.8800001"
       y2="0.20999999"
       gradientUnits="userSpaceOnUse"
       gradientTransform="matrix(0.26458333,0,0,0.26458333,140.26092,34.340271)">
      <stop
         offset="0"
         stop-color="#0078d4"
         id="stop1-6" />
      <stop
         offset="0.82"
         stop-color="#5ea0ef"
         id="stop2-4" />
    </linearGradient>
    <linearGradient
       id="bdb45a0b-eb58-4970-a60a-fb2ce314f866"
       x1="8.8800001"
       y1="16.84"
       x2="8.8800001"
       y2="12.21"
       gradientUnits="userSpaceOnUse"
       gradientTransform="matrix(0.26458333,0,0,0.26458333,140.26092,34.340271)">
      <stop
         offset="0.15"
         stop-color="#ccc"
         id="stop3" />
      <stop
         offset="1"
         stop-color="#707070"
         id="stop4" />
    </linearGradient>
    <linearGradient
       inkscape:collect="always"
       xlink:href="#linearGradient7468"
       id="linearGradient7347"
       gradientUnits="userSpaceOnUse"
       gradientTransform="matrix(1.1020003,0,0,1.1020003,-39.833221,-25.291354)"
       x1="366.68536"
       y1="640.21997"
       x2="366.68536"
       y2="327.83759" />
    <linearGradient
       id="linearGradient7468">
      <stop
         id="stop7470"
         offset="0"
         style="stop-color:#c9c9c9;stop-opacity:1;" />
      <stop
         id="stop7472"
         offset="1"
         style="stop-color:#ffffff;stop-opacity:1;" />
    </linearGradient>
    <linearGradient
       inkscape:collect="always"
       xlink:href="#linearGradient3369"
       id="linearGradient7340"
       gradientUnits="userSpaceOnUse"
       gradientTransform="matrix(1.1020003,0,0,1.1020003,-39.833221,-25.291354)"
       x1="366.42856"
       y1="638.79077"
       x2="366.42856"
       y2="465.47116" />
    <linearGradient
       id="linearGradient3369">
      <stop
         style="stop-color:#6a8fc6;stop-opacity:1;"
         offset="0"
         id="stop3371" />
      <stop
         style="stop-color:#97b9ec;stop-opacity:1;"
         offset="1"
         id="stop3373" />
    </linearGradient>
    <linearGradient
       inkscape:collect="always"
       xlink:href="#linearGradient3418"
       id="linearGradient7337"
       gradientUnits="userSpaceOnUse"
       gradientTransform="matrix(1.1020003,0,0,1.1020003,-39.833221,-25.291354)"
       x1="368.21429"
       y1="476.64789"
       x2="368.21429"
       y2="552.09613" />
    <linearGradient
       id="linearGradient3418">
      <stop
         style="stop-color:#ffffff;stop-opacity:0.39215687;"
         offset="0"
         id="stop3420" />
      <stop
         style="stop-color:#ffffff;stop-opacity:0;"
         offset="1"
         id="stop3422" />
    </linearGradient>
    <linearGradient
       id="b"
       gradientUnits="userSpaceOnUse"
       x1="24"
       x2="24"
       y1="44"
       y2="4"
       gradientTransform="matrix(0.26458333,0,0,0.26458333,38.89375,74.347917)">
      <stop
         offset="0"
         stop-color="#afb0b3"
         id="stop11" />
      <stop
         offset="1"
         stop-color="#bdc3c7"
         id="stop12" />
    </linearGradient>
    <linearGradient
       id="c"
       gradientUnits="userSpaceOnUse"
       x1="24"
       x2="24"
       y1="43"
       y2="5"
       gradientTransform="matrix(0.26458333,0,0,0.26458333,38.89375,74.347917)">
      <stop
         offset="0"
         stop-color="#c0392b"
         id="stop9" />
      <stop
         offset="1"
         stop-color="#e74c3c"
         id="stop10" />
    </linearGradient>
    <linearGradient
       id="d"
       gradientUnits="userSpaceOnUse"
       x1="24"
       x2="24"
       y1="32.602001"
       y2="15.721"
       gradientTransform="matrix(0.26458333,0,0,0.26458333,38.89375,74.347917)">
      <stop
         offset="0"
         stop-color="#eff1f1"
         id="stop5" />
      <stop
         offset="1"
         stop-color="#fcfcfc"
         id="stop6" />
    </linearGradient>
    <linearGradient
       id="e"
       gradientUnits="userSpaceOnUse"
       x1="24"
       x2="24"
       xlink:href="#a"
       y1="34"
       y2="14"
       gradientTransform="matrix(0.26458333,0,0,0.26458333,38.89375,74.347917)" />
    <linearGradient
       id="a">
      <stop
         offset="0"
         stop-color="#4d4d4d"
         id="stop1" />
      <stop
         offset="1"
         stop-color="#536161"
         id="stop2" />
    </linearGradient>
    <linearGradient
       id="f"
       gradientUnits="userSpaceOnUse"
       x1="24"
       x2="42"
       y1="26"
       y2="44"
       gradientTransform="matrix(0.26458333,0,0,0.26458333,38.89375,74.347917)">
      <stop
         offset="0"
         stop-color="#232629"
         id="stop7" />
      <stop
         offset="1"
         stop-opacity="0"
         id="stop8" />
    </linearGradient>
    <linearGradient
       id="g"
       gradientUnits="userSpaceOnUse"
       x1="24"
       x2="24"
       xlink:href="#a"
       y1="31.214001"
       y2="17.219999"
       gradientTransform="matrix(0.26458333,0,0,0.26458333,38.89375,74.347917)" />
    <linearGradient
       id="fcad3287-b71c-44fa-971a-6a18bcf384a0"
       x1="9.0100002"
       y1="16.5"
       x2="9.0100002"
       y2="1.5"
       gradientUnits="userSpaceOnUse">
      <stop
         offset="0"
         stop-color="#5e9641"
         id="stop1-0" />
      <stop
         offset="0.34"
         stop-color="#6baa42"
         id="stop2-45" />
      <stop
         offset="0.67"
         stop-color="#73b743"
         id="stop3-7" />
      <stop
         offset="1"
         stop-color="#76bb43"
         id="stop4-1" />
    </linearGradient>
    <linearGradient
       inkscape:collect="always"
       xlink:href="#fcad3287-b71c-44fa-971a-6a18bcf384a0"
       id="linearGradient25"
       gradientUnits="userSpaceOnUse"
       x1="9.0100002"
       y1="16.5"
       x2="9.0100002"
       y2="1.5" />
    <linearGradient
       id="ad52e31e-75de-46af-9bdc-bea038ab4209"
       x1="9"
       y1="15.83"
       x2="9"
       y2="5.79"
       gradientUnits="userSpaceOnUse">
      <stop
         offset="0"
         stop-color="#32bedd"
         id="stop1-2" />
      <stop
         offset="0.18"
         stop-color="#32caea"
         id="stop2-48" />
      <stop
         offset="0.41"
         stop-color="#32d2f2"
         id="stop3-3" />
      <stop
         offset="0.78"
         stop-color="#32d4f5"
         id="stop4-9" />
    </linearGradient>
    <linearGradient
       inkscape:collect="always"
       xlink:href="#fcad3287-b71c-44fa-971a-6a18bcf384a0"
       id="linearGradient8"
       gradientUnits="userSpaceOnUse"
       x1="9.0100002"
       y1="16.5"
       x2="9.0100002"
       y2="1.5" />
    <linearGradient
       inkscape:collect="always"
       xlink:href="#ad52e31e-75de-46af-9bdc-bea038ab4209"
       id="linearGradient35"
       gradientUnits="userSpaceOnUse"
       x1="9"
       y1="15.83"
       x2="9"
       y2="5.79" />
    <linearGradient
       inkscape:collect="always"
       xlink:href="#ad52e31e-75de-46af-9bdc-bea038ab4209"
       id="linearGradient36"
       gradientUnits="userSpaceOnUse"
       x1="9"
       y1="15.83"
       x2="9"
       y2="5.79" />
  </defs>
  <g
     inkscape:label="Layer 1"
     inkscape:groupmode="layer"
     id="layer1">
    <g
       transform="matrix(0.12954444,0,0,0.12954444,152.64294,-88.497109)"
       id="layer1-9">
      <g
         transform="translate(4.8592601,-4.8253842)"
         id="g3823">
        <g
           id="g3813">
          <path
             d="m 0.34282784,901.90026 v 100.62504 h 0.03125 c 0.13323192,17.103 26.93452416,33.7389 74.81249916,42.9062 71.558743,13.7016 163.060593,5.5444 204.375003,-18.1875 13.59024,-7.8065 20.05029,-16.3087 20.0625,-24.7187 V 902.15026 c -0.0444,8.38955 -6.50621,16.86923 -20.0625,24.65625 C 238.24717,950.53839 146.74532,958.66433 75.186577,944.96276 27.137451,935.76265 0.31623817,919.06779 0.37407784,901.90026 Z"
             id="path3759"
             style="fill:url(#linearGradient3833);fill-opacity:1;stroke:none" />
          <path
             d="m 280.43717,678.68689 a 113.47587,113.47587 0 1 1 -226.951735,0 113.47587,113.47587 0 1 1 226.951735,0 z"
             transform="matrix(1.141816,0.218627,-0.659227,0.378674,406.7696,608.8589)"
             id="path4755"
             style="fill:#557b8b;fill-opacity:1;stroke:none" />
          <path
             d="m 229.92724,898.48426 -18.78401,10.78993 66.58103,12.7485 -12.52268,7.1933 -66.58103,-12.7485 -18.78403,10.7899 -12.48521,-21.5727 z"
             id="path2775"
             style="fill:#ffffff;fill-opacity:1;fill-rule:evenodd;stroke:none" />
          <path
             d="m 120.16224,877.46718 -18.78403,10.78992 -66.581031,-12.7485 -12.52268,7.19328 66.581041,12.7485 -18.78402,10.78991 62.57593,-7.20044 z"
             id="path4757"
             style="fill:#ffffff;fill-opacity:1;fill-rule:evenodd;stroke:none" />
          <path
             d="m 136.24453,936.84279 -26.02789,-4.9836 38.44057,-22.0811 -17.35193,-3.3224 -38.44058,22.0811 -26.0279,-4.9837 13.03556,19.0916 z"
             id="path4759"
             style="fill:#ffffff;fill-opacity:1;fill-rule:evenodd;stroke:none" />
          <path
             d="m 233.16085,881.17199 -26.0279,-4.98365 -38.43962,22.08051 -17.35193,-3.32244 38.43961,-22.0805 -26.0279,-4.98366 56.37312,-5.80238 z"
             id="path4761"
             style="fill:#ffffff;fill-opacity:1;fill-rule:evenodd;stroke:none" />
        </g>
        <path
           d="M 147.09375,0.53125 C 96.573866,0.90664794 47.862581,9.769707 20.75,25.34375 7.3634701,33.033257 0.89027736,41.400427 0.6875,49.6875 H 0.65625 v 100.625 H 0.6875 c 0.13323192,17.103 26.934525,33.73895 74.8125,42.90625 71.55874,13.7016 163.06059,5.5444 204.375,-18.1875 13.59024,-7.8065 20.05029,-16.30875 20.0625,-24.71875 V 50.28125 C 300.02832,33.102648 273.20353,16.361993 225.125,7.15625 200.52668,2.446335 173.55655,0.33461298 147.09375,0.53125 Z"
           transform="translate(-0.3125,852.22482)"
           id="path3798"
           style="fill:none;stroke:#ffffff;stroke-opacity:1" />
      </g>
    </g>
    <g
       id="g8429"
       inkscape:export-filename="/home/barret/Desktop/My Documents/Art/icons/house.png"
       inkscape:export-xdpi="90"
       inkscape:export-ydpi="90"
       style="display:inline"
       transform="matrix(0.02707617,0,0,0.02707617,43.448271,27.313608)">
      <path
         id="path4555"
         d="M 520.45976,487.65963 368.91383,336.00195 217.3679,487.65963 v 179.8211 c 0,1.74487 0.36572,3.40485 1.00584,4.91741 0.64012,1.51256 1.53791,2.87903 2.68222,4.02335 1.14432,1.1443 2.51079,2.0421 4.02335,2.68222 1.51256,0.64013 3.1725,1.00584 4.91742,1.00584 h 138.9171 138.9171 c 1.74488,0 3.40486,-0.36571 4.91742,-1.00584 1.51257,-0.64012 2.87904,-1.53792 4.02334,-2.68222 1.14432,-1.14432 2.04211,-2.51079 2.68224,-4.02335 0.64012,-1.51256 1.00583,-3.17254 1.00583,-4.91741 z"
         style="color:#000000;display:inline;overflow:visible;visibility:visible;fill:url(#linearGradient7347);fill-opacity:1;fill-rule:nonzero;stroke:none;stroke-width:3;stroke-linecap:round;stroke-linejoin:round;stroke-miterlimit:4;stroke-dashoffset:0;stroke-opacity:1;marker:none;marker-start:none;marker-mid:none;marker-end:none;enable-background:accumulate" />
      <path
         id="path4498"
         d="M 527.61237,441.83822 382.21321,296.21555 c -1.79065,-1.78976 -3.95833,-3.20362 -6.25853,-4.1351 -2.30021,-0.93149 -4.73295,-1.38063 -7.26437,-1.34112 -2.43465,0.0346 -4.83902,0.52278 -7.04085,1.45287 -2.20182,0.9301 -4.20105,2.30211 -5.92325,4.02335 L 210.21529,441.83822 v 52.97403 l 158.69854,-158.8103 158.69854,158.8103 z"
         style="color:#000000;display:inline;overflow:visible;visibility:visible;fill:#f2f2f2;fill-opacity:1;fill-rule:nonzero;stroke:none;stroke-width:3;stroke-linecap:round;stroke-linejoin:round;stroke-miterlimit:4;stroke-dashoffset:0;stroke-opacity:1;marker:none;marker-start:none;marker-mid:none;marker-end:none;enable-background:accumulate" />
      <path
         id="path4553"
         d="M 520.45976,434.68561 382.21321,296.21555 c -1.79065,-1.78976 -3.95833,-3.20362 -6.25853,-4.1351 -2.30021,-0.93149 -4.73295,-1.38063 -7.26437,-1.34112 -2.43465,0.0346 -4.83902,0.52278 -7.04085,1.45287 -2.20182,0.9301 -4.20105,2.30211 -5.92325,4.02335 L 217.3679,434.68561 v 52.97402 L 368.91383,336.00195 520.45976,487.65963 Z"
         style="color:#000000;display:inline;overflow:visible;visibility:visible;fill:#b3b3b3;fill-opacity:1;fill-rule:nonzero;stroke:none;stroke-width:3;stroke-linecap:round;stroke-linejoin:round;stroke-miterlimit:4;stroke-dashoffset:0;stroke-opacity:1;marker:none;marker-start:none;marker-mid:none;marker-end:none;enable-background:accumulate" />
      <path
         id="path4559"
         d="m 229.98466,315.98436 c -1.74491,0 -3.37756,0.39301 -4.89012,1.03313 -1.51256,0.64012 -2.88488,1.50738 -4.02919,2.65169 -1.14431,1.14431 -2.04602,2.51664 -2.68613,4.02919 -0.64011,1.51256 -0.99868,3.17967 -0.99868,4.92456 v 159.03242 l 67.04983,-67.11871 v -91.91371 c 0,-1.74489 -0.35858,-3.41199 -0.99869,-4.92456 -0.64012,-1.51257 -1.54183,-2.88488 -2.68613,-4.02919 -1.14431,-1.14431 -2.51661,-2.01157 -4.02918,-2.65169 -1.51257,-0.64012 -3.17969,-1.03312 -4.92457,-1.03313 z"
         style="color:#000000;display:inline;overflow:visible;visibility:visible;fill:#aa0000;fill-opacity:1;fill-rule:nonzero;stroke:none;stroke-width:3;stroke-linecap:round;stroke-linejoin:round;stroke-miterlimit:4;stroke-dashoffset:0;stroke-opacity:1;marker:none;marker-start:none;marker-mid:none;marker-end:none;enable-background:accumulate" />
      <path
         sodipodi:nodetypes="cccscccscccc"
         id="rect3345"
         d="m 368.69031,290.73933 c -4.86925,0.0693 -9.51974,2.03373 -12.9641,5.47622 L 179.92845,472.12506 c -7.31419,7.31418 -7.31419,19.17282 0,26.487 7.3142,7.31419 19.17282,7.31419 26.48702,0 L 368.91383,336.00195 531.4122,498.61206 c 7.31418,7.31419 19.17282,7.31419 26.487,0 7.31419,-7.31418 7.31419,-19.17282 0,-26.487 L 382.21321,296.21555 c -3.58128,-3.57953 -8.46007,-5.55525 -13.5229,-5.47622 z"
         style="color:#000000;display:inline;overflow:visible;visibility:visible;fill:#4c4c4c;fill-opacity:1;fill-rule:nonzero;stroke:none;stroke-width:10.4654;stroke-linecap:round;stroke-linejoin:round;stroke-miterlimit:4;stroke-dasharray:none;stroke-dashoffset:0;stroke-opacity:1;marker:none;enable-background:accumulate" />
      <path
         sodipodi:nodetypes="cccsssccssscc"
         id="path4557"
         d="M 441.78104,680.10955 H 296.04661 V 500.28846 c 0,-1.74489 0.36572,-3.40486 1.00584,-4.91742 0.64012,-1.51257 1.53792,-2.87903 2.68222,-4.02334 1.14432,-1.14432 2.51079,-2.04211 4.02335,-2.68224 1.51256,-0.64012 3.1725,-1.00583 4.91742,-1.00583 h 120.47678 c 1.74487,0 3.40485,0.36571 4.91741,1.00583 1.51258,0.64013 2.87904,1.53792 4.02335,2.68224 1.14431,1.14431 2.04211,2.51077 2.68223,4.02334 0.64013,1.51256 1.00583,3.17253 1.00583,4.91742 z"
         style="color:#000000;display:inline;overflow:visible;visibility:visible;fill:url(#linearGradient7340);fill-opacity:1;fill-rule:nonzero;stroke:#000000;stroke-width:3;stroke-linecap:round;stroke-linejoin:round;stroke-miterlimit:4;stroke-dashoffset:0;stroke-opacity:0;marker:none;marker-start:none;marker-mid:none;marker-end:none;enable-background:accumulate" />
      <path
         sodipodi:nodetypes="csssccccsccccssscc"
         id="path3377"
         d="m 319.69438,498.67535 c -1.74492,0 -3.41201,0.35856 -4.92457,0.99869 -1.51256,0.64013 -2.88488,1.54181 -4.02919,2.68612 -1.1443,1.14431 -2.01158,2.51663 -2.65168,4.02919 -0.64012,1.51256 -1.03313,3.17967 -1.03313,4.92457 v 67.60083 2.03181 h 0.30994 c 2.89943,11.00786 29.33758,-24.45066 61.53983,-24.45063 32.20225,0 58.67482,35.45849 61.57426,24.45063 h 0.2755 v -2.03181 -67.60083 c 0,-1.74489 -0.35856,-3.41201 -0.99868,-4.92457 -0.64012,-1.51256 -1.54183,-2.88488 -2.68613,-4.02919 -1.1443,-1.14431 -2.5166,-2.046 -4.02919,-2.68612 -1.51256,-0.64012 -3.17969,-0.99868 -4.92456,-0.99869 z"
         style="color:#000000;display:inline;overflow:visible;visibility:visible;opacity:1;fill:url(#linearGradient7337);fill-opacity:1;fill-rule:nonzero;stroke:none;stroke-width:3;stroke-linecap:round;stroke-linejoin:round;stroke-miterlimit:4;stroke-dashoffset:0;stroke-opacity:1;marker:none;marker-start:none;marker-mid:none;marker-end:none;enable-background:accumulate" />
      <circle
         transform="matrix(1.1020003,0,0,1.1020003,-29.723333,-42.135855)"
         id="path3431"
         style="color:#000000;display:inline;overflow:visible;visibility:visible;fill:#4c4c4c;fill-opacity:1;fill-rule:nonzero;stroke:none;stroke-width:10;stroke-linecap:round;stroke-linejoin:miter;stroke-miterlimit:4;stroke-dasharray:none;stroke-dashoffset:50;stroke-opacity:0;marker:none;marker-start:none;marker-mid:none;marker-end:none;enable-background:accumulate"
         cx="403.57141"
         cy="568.07648"
         r="14.285714" />
      <path
         id="path3434"
         d="m 415.0174,572.47493 c -6.30029,0 -11.43326,5.09854 -11.43325,11.39882 0,4.28749 2.4935,7.89847 5.99213,9.84913 -0.19661,-0.35359 -0.52991,-0.62335 -0.68875,-0.99869 -0.57782,-1.36535 -0.89538,-2.86736 -0.89538,-4.44244 0,-1.57507 0.31756,-3.07709 0.89538,-4.44244 0.57781,-1.36534 1.44657,-2.58301 2.4795,-3.61594 1.03292,-1.03292 2.25059,-1.86725 3.61594,-2.44506 1.36534,-0.57781 2.86736,-0.89538 4.44243,-0.89538 1.57507,0 3.0771,0.31757 4.44244,0.89538 0.37343,0.15803 0.6468,0.45891 0.99869,0.65431 -1.94802,-3.50798 -5.5547,-5.9577 -9.84913,-5.95769 z"
         style="color:#000000;display:inline;overflow:visible;visibility:visible;opacity:0.5;fill:#e6e6e6;fill-opacity:1;fill-rule:nonzero;stroke:none;stroke-width:10;stroke-linecap:round;stroke-linejoin:miter;stroke-miterlimit:4;stroke-dasharray:none;stroke-dashoffset:50;stroke-opacity:0;marker:none;marker-start:none;marker-mid:none;marker-end:none;enable-background:accumulate" />
    </g>
    <g
       id="g36"
       transform="translate(10.054166,-46.037504)">
      <ellipse
         style="fill:#ff00ff;fill-opacity:1;stroke:none;stroke-width:0.183"
         id="ellipse1"
         cx="91.682938"
         cy="86.514824"
         rx="2.5877104"
         ry="2.8003914" />
      <path
         id="path1"
         style="fill:#ff00ff;fill-opacity:0.496269;stroke-width:0.183"
         d="m 71.591754,86.560572 a 2.5877104,2.8003914 0 0 1 -2.58771,2.800391 2.5877104,2.8003914 0 0 1 -2.587711,-2.800391 2.5877104,2.8003914 0 0 1 2.587711,-2.800391 2.5877104,2.8003914 0 0 1 2.58771,2.800391 z m -2.58771,-2.891891 h 22.678893 c 0,0 0,0 0,0 v 5.692282 c 0,0 0,0 0,0 H 69.004044 c 0,0 0,0 0,0 z" />
    </g>
    <text
       xml:space="preserve"
       style="font-size:3.52778px;line-height:1.25;font-family:sans-serif;text-align:start;text-anchor:start;stroke-width:0.264583"
       x="3.9392519"
       y="40.552017"
       id="text2"><tspan
         sodipodi:role="line"
         id="tspan2"
         style="font-size:3.52778px;text-align:start;text-anchor:start;stroke-width:0.264583"
         x="3.9392519"
         y="40.552017">source IP: {{ net_clearinghouse_app_public }}</tspan><tspan
         sodipodi:role="line"
         style="font-size:3.52778px;text-align:start;text-anchor:start;stroke-width:0.264583"
         x="3.9392519"
         y="44.961742"
         id="tspan3">destination IP: {{ ip_org_app_public }}</tspan></text>
    <g
       id="g3"
       transform="matrix(2.4052912,0,0,2.4052912,-93.655103,-45.922269)">
      <rect
         x="140.22917"
         y="34.395832"
         width="4.7624998"
         height="3.175"
         rx="0.15875"
         fill="url(#f34d9569-2bd0-4002-8f16-3d01d8106cb5)"
         id="rect4"
         style="fill:url(#f34d9569-2bd0-4002-8f16-3d01d8106cb5);stroke-width:0.264583" />
      <polygon
         points="8.88,9.71 8.88,6.21 11.88,4.46 11.88,7.95 "
         fill="#50e6ff"
         id="polygon4"
         transform="matrix(0.26458333,0,0,0.26458333,140.26092,34.340271)" />
      <polygon
         points="5.88,4.46 8.88,2.71 11.88,4.46 8.88,6.22 "
         fill="#c3f1ff"
         id="polygon5"
         transform="matrix(0.26458333,0,0,0.26458333,140.26092,34.340271)" />
      <polygon
         points="5.88,7.95 5.88,4.46 8.88,6.22 8.88,9.71 "
         fill="#9cebff"
         id="polygon6"
         transform="matrix(0.26458333,0,0,0.26458333,140.26092,34.340271)" />
      <polygon
         points="5.88,7.95 8.88,6.21 8.88,9.71 "
         fill="#c3f1ff"
         id="polygon7"
         transform="matrix(0.26458333,0,0,0.26458333,140.26092,34.340271)" />
      <polygon
         points="11.88,7.95 8.88,6.21 8.88,9.71 "
         fill="#9cebff"
         id="polygon8"
         transform="matrix(0.26458333,0,0,0.26458333,140.26092,34.340271)" />
      <path
         d="m 143.56557,38.531271 c -0.47096,-0.07408 -0.48948,-0.41275 -0.48948,-0.960438 h -0.93398 c 0,0.547688 -0.0159,0.886355 -0.48684,0.960438 a 0.26458333,0.26458333 0 0 0 -0.23548,0.264583 h 2.38125 a 0.26458333,0.26458333 0 0 0 -0.23547,-0.264583 z"
         fill="url(#bdb45a0b-eb58-4970-a60a-fb2ce314f866)"
         id="path8"
         style="fill:url(#bdb45a0b-eb58-4970-a60a-fb2ce314f866);stroke-width:0.264583" />
    </g>
    <text
       xml:space="preserve"
       style="font-size:3.52777px;line-height:1.25;font-family:sans-serif;text-align:center;text-anchor:middle;stroke-width:0.264583"
       x="249.36462"
       y="51.664345"
       id="text19"><tspan
         sodipodi:role="line"
         id="tspan19"
         style="stroke-width:0.264583"
         x="249.36462"
         y="51.664345">adjudication endpoint IP</tspan><tspan
         sodipodi:role="line"
         style="stroke-width:0.264583"
         x="249.36462"
         y="56.074059"
         id="tspan37">{{ ip_org_app }}</tspan></text>
    <g
       id="g11"
       transform="matrix(0.50273091,0,0,0.50273091,141.72083,36.055626)">
      <path
         d="m 15.89,2.91 h 1.27 a 0.34,0.34 0 0 1 0.34,0.34 v 3.5 a 0.34,0.34 0 0 1 -0.34,0.34 h -1.27 z"
         fill="#ffca00"
         id="path4" />
      <path
         d="m 15.89,9 h 1.27 a 0.34,0.34 0 0 1 0.34,0.34 v 5.86 a 0.34,0.34 0 0 1 -0.34,0.34 h -1.27 z"
         fill="#ffca00"
         id="path5" />
      <rect
         x="2.1300001"
         y="1.5"
         width="13.76"
         height="15"
         rx="0.69"
         fill="url(#fcad3287-b71c-44fa-971a-6a18bcf384a0)"
         id="rect5"
         style="fill:url(#linearGradient8)" />
      <path
         d="M 5.9,12.9 H 5.19 A 0.2,0.2 0 0 1 5,12.69 V 4.34 A 0.19,0.19 0 0 1 5.19,4.14 H 7.12 A 0.19,0.19 0 0 1 7.31,4.34 0.2,0.2 0 0 1 7.12,4.55 H 5.38 v 7.93 H 5.9 A 0.2,0.2 0 0 1 6.09,12.69 0.21,0.21 0 0 1 5.9,12.9 Z"
         fill="#b4ec36"
         id="path6" />
      <path
         d="M 6,13.92 H 4.4 A 0.2,0.2 0 0 1 4.21,13.71 L 4.08,3.38 A 0.2,0.2 0 0 1 4.14,3.23 0.16,0.16 0 0 1 4.27,3.17 H 7.12 V 3.58 H 4.47 L 4.59,13.5 H 6 Z"
         fill="#b4ec36"
         id="path7-0" />
      <path
         d="M 12,13 H 10.41 A 0.19,0.19 0 0 1 10.27,12.93 0.18,0.18 0 0 1 10.21,12.79 V 7.9 A 0.19,0.19 0 0 1 10.4,7.7 h 0.91 V 5.45 h 0.38 V 7.89 A 0.2,0.2 0 0 1 11.51,8.1 H 10.6 v 4.42 H 12 Z"
         fill="#b4ec36"
         id="path8-3" />
      <rect
         x="7.0700002"
         y="2.29"
         width="6.1399999"
         height="3.1099999"
         rx="0.25999999"
         fill="#365615"
         id="rect8" />
      <rect
         x="5.8600001"
         y="12.69"
         width="4.9000001"
         height="1.09"
         rx="0.25999999"
         transform="rotate(90,8.305,13.235)"
         fill="#365615"
         id="rect9" />
      <rect
         x="3.99"
         y="12.71"
         width="4.9000001"
         height="1.09"
         rx="0.25999999"
         transform="rotate(90,6.44,13.26)"
         fill="#365615"
         id="rect10" />
      <rect
         x="9.9799995"
         y="12.71"
         width="4.9000001"
         height="1.09"
         rx="0.25999999"
         transform="rotate(90,12.425,13.255)"
         fill="#f2f2f2"
         id="rect11" />
      <ellipse
         cx="8.1099997"
         cy="8.0600004"
         rx="1.04"
         ry="1.12"
         fill="#f2f2f2"
         id="ellipse11" />
      <path
         d="M 0.5,5.7 H 1.77 A 0.34,0.34 0 0 1 2.11,6 v 5.86 A 0.34,0.34 0 0 1 1.77,12.2 H 0.5 Z"
         transform="rotate(180,1.305,8.975)"
         fill="#3b3b3b"
         id="path11-3" />
    </g>
    <g
       id="g25"
       transform="matrix(0.50273091,0,0,0.50273091,195.0889,36.055626)">
      <path
         d="m 15.89,2.91 h 1.27 a 0.34,0.34 0 0 1 0.34,0.34 v 3.5 a 0.34,0.34 0 0 1 -0.34,0.34 h -1.27 z"
         fill="#ffca00"
         id="path2" />
      <path
         d="m 15.89,9 h 1.27 a 0.34,0.34 0 0 1 0.34,0.34 v 5.86 a 0.34,0.34 0 0 1 -0.34,0.34 h -1.27 z"
         fill="#ffca00"
         id="path3" />
      <rect
         x="2.1300001"
         y="1.5"
         width="13.76"
         height="15"
         rx="0.69"
         fill="url(#fcad3287-b71c-44fa-971a-6a18bcf384a0)"
         id="rect3"
         style="fill:url(#linearGradient25)" />
      <path
         d="M 5.9,12.9 H 5.19 A 0.2,0.2 0 0 1 5,12.69 V 4.34 A 0.19,0.19 0 0 1 5.19,4.14 H 7.12 A 0.19,0.19 0 0 1 7.31,4.34 0.2,0.2 0 0 1 7.12,4.55 H 5.38 v 7.93 H 5.9 A 0.2,0.2 0 0 1 6.09,12.69 0.21,0.21 0 0 1 5.9,12.9 Z"
         fill="#b4ec36"
         id="path20" />
      <path
         d="M 6,13.92 H 4.4 A 0.2,0.2 0 0 1 4.21,13.71 L 4.08,3.38 A 0.2,0.2 0 0 1 4.14,3.23 0.16,0.16 0 0 1 4.27,3.17 H 7.12 V 3.58 H 4.47 L 4.59,13.5 H 6 Z"
         fill="#b4ec36"
         id="path21" />
      <path
         d="M 12,13 H 10.41 A 0.19,0.19 0 0 1 10.27,12.93 0.18,0.18 0 0 1 10.21,12.79 V 7.9 A 0.19,0.19 0 0 1 10.4,7.7 h 0.91 V 5.45 h 0.38 V 7.89 A 0.2,0.2 0 0 1 11.51,8.1 H 10.6 v 4.42 H 12 Z"
         fill="#b4ec36"
         id="path22" />
      <rect
         x="7.0700002"
         y="2.29"
         width="6.1399999"
         height="3.1099999"
         rx="0.25999999"
         fill="#365615"
         id="rect22" />
      <rect
         x="5.8600001"
         y="12.69"
         width="4.9000001"
         height="1.09"
         rx="0.25999999"
         transform="rotate(90,8.305,13.235)"
         fill="#365615"
         id="rect23" />
      <rect
         x="3.99"
         y="12.71"
         width="4.9000001"
         height="1.09"
         rx="0.25999999"
         transform="rotate(90,6.44,13.26)"
         fill="#365615"
         id="rect24" />
      <rect
         x="9.9799995"
         y="12.71"
         width="4.9000001"
         height="1.09"
         rx="0.25999999"
         transform="rotate(90,12.425,13.255)"
         fill="#f2f2f2"
         id="rect25" />
      <ellipse
         cx="8.1099997"
         cy="8.0600004"
         rx="1.04"
         ry="1.12"
         fill="#f2f2f2"
         id="ellipse25" />
      <path
         d="M 0.5,5.7 H 1.77 A 0.34,0.34 0 0 1 2.11,6 v 5.86 A 0.34,0.34 0 0 1 1.77,12.2 H 0.5 Z"
         transform="rotate(180,1.305,8.975)"
         fill="#3b3b3b"
         id="path25" />
    </g>
    <text
       xml:space="preserve"
       style="font-size:3.52777px;line-height:1.25;font-family:sans-serif;text-align:center;text-anchor:middle;stroke-width:0.264583"
       x="111.5061"
       y="51.210899"
       id="text25"><tspan
         sodipodi:role="line"
         id="tspan25"
         style="stroke-width:0.264583"
         x="111.5061"
         y="51.210899">IPSec peer IP:</tspan><tspan
         sodipodi:role="line"
         style="stroke-width:0.264583"
         x="111.5061"
         y="55.620613"
         id="tspan26">{{ ip_org_peer }}</tspan></text>
    <text
       xml:space="preserve"
       style="font-size:3.52777px;line-height:1.25;font-family:sans-serif;text-align:center;text-anchor:middle;stroke-width:0.264583"
       x="199.61353"
       y="51.245346"
       id="text28"><tspan
         sodipodi:role="line"
         id="tspan27"
         style="stroke-width:0.264583"
         x="199.61353"
         y="51.245346">adjudication subnet IP:</tspan><tspan
         sodipodi:role="line"
         style="stroke-width:0.264583"
         x="199.61353"
         y="55.65506"
         id="tspan28">{{ ip_org_app_router }}</tspan></text>
    <g
       id="g7"
       transform="matrix(0.527636,0,0,0.527636,107.71587,35.828844)">
      <path
         d="m 0.5,5.79 h 17 v 9.48 a 0.57,0.57 0 0 1 -0.57,0.57 H 1.07 A 0.57,0.57 0 0 1 0.5,15.27 Z"
         fill="url(#ad52e31e-75de-46af-9bdc-bea038ab4209)"
         id="path4-2"
         style="fill:url(#linearGradient36)" />
      <path
         d="M 1.07,2.17 H 16.93 A 0.57,0.57 0 0 1 17.5,2.74 V 5.79 H 0.5 V 2.73 A 0.57,0.57 0 0 1 1.07,2.17 Z"
         fill="#767676"
         id="path5-2" />
      <circle
         cx="12.82"
         cy="10.19"
         r="1.38"
         fill="#f2f2f2"
         id="circle5" />
      <circle
         cx="9.0600004"
         cy="10.19"
         r="1.38"
         fill="#f2f2f2"
         id="circle6" />
      <circle
         cx="5.1799998"
         cy="10.19"
         r="1.38"
         fill="#f2f2f2"
         id="circle7" />
      <rect
         x="2.79"
         y="3.25"
         width="12.43"
         height="1.46"
         rx="0.28"
         fill="#f2f2f2"
         id="rect7" />
    </g>
    <text
       xml:space="preserve"
       style="font-size:3.52777px;line-height:1.25;font-family:sans-serif;text-align:center;text-anchor:middle;stroke-width:0.264583"
       x="146.24541"
       y="51.245346"
       id="text8"><tspan
         sodipodi:role="line"
         id="tspan1"
         style="stroke-width:0.264583"
         x="146.24541"
         y="51.245346">routing subnet IP:</tspan><tspan
         sodipodi:role="line"
         style="stroke-width:0.264583"
         x="146.24541"
         y="55.65506"
         id="tspan8">{{ ip_org_routing_router }}</tspan></text>
    <path
       style="fill:none;stroke:#000000;stroke-width:0.264583px;stroke-linecap:butt;stroke-linejoin:miter;stroke-opacity:1"
       d="m 82.649098,86.514822 c 6.952864,0.0343 13.905729,0.06859 20.858592,0.102889"
       id="path23"
       inkscape:path-effect="#path-effect23"
       inkscape:original-d="m 82.649098,86.514822 c 6.952864,0.0343 13.905729,0.06859 20.858592,0.102889"
       sodipodi:nodetypes="cc"
       transform="translate(36.512501,-46.037504)" />
    <g
       id="g30"
       transform="translate(23.865289,-9.9873896)">
      <text
         xml:space="preserve"
         style="font-size:3.52777px;line-height:1.25;font-family:sans-serif;text-align:start;text-anchor:start;stroke-width:0.264583"
         x="149.01256"
         y="18.557158"
         id="text30"><tspan
           sodipodi:role="line"
           id="tspan23"
           style="font-weight:bold;text-align:center;text-anchor:middle;stroke-width:0.264583"
           x="149.01256"
           y="18.557158">NAT</tspan><tspan
           sodipodi:role="line"
           style="text-align:center;text-anchor:middle;stroke-width:0.264583"
           x="149.01256"
           y="22.966869"
           id="tspan24">{{ ip_org_app_public }}</tspan><tspan
           sodipodi:role="line"
           style="text-align:center;text-anchor:middle;stroke-width:0.264583"
           x="149.01256"
           y="27.376583"
           id="tspan29" /><tspan
           sodipodi:role="line"
           style="text-align:center;text-anchor:middle;stroke-width:0.264583"
           x="149.01256"
           y="31.786295"
           id="tspan30">{{ ip_org_app }}</tspan></text>
      <path
         style="fill:none;stroke:#000000;stroke-width:0.465;stroke-linecap:butt;stroke-linejoin:miter;stroke-dasharray:none;stroke-opacity:1;marker-end:url(#Triangle)"
         d="m 202.09505,10.806359 c -0.008,1.038572 -0.0164,2.077148 -0.0246,3.115722"
         id="path30"
         inkscape:path-effect="#path-effect31"
         inkscape:original-d="m 202.09505,10.806359 c -0.008,1.038574 -0.0164,2.077148 -0.0246,3.115722"
         transform="translate(-53.284074,13.449087)" />
    </g>
    <rect
       style="fill:none;fill-opacity:0.398964;stroke:#000000;stroke-width:0.163402;stroke-opacity:1"
       id="rect31"
       width="30.97595"
       height="18.498211"
       x="157.38989"
       y="5.0171127"
       ry="0" />
    <text
       xml:space="preserve"
       style="font-size:3.52777px;line-height:1.25;font-family:sans-serif;text-align:center;text-anchor:middle;stroke-width:0.264583"
       x="68.643646"
       y="51.210899"
       id="text32"><tspan
         sodipodi:role="line"
         id="tspan31"
         style="stroke-width:0.264583"
         x="68.643646"
         y="51.210899">IPSec peer IP:</tspan><tspan
         sodipodi:role="line"
         style="stroke-width:0.264583"
         x="68.643646"
         y="55.620613"
         id="tspan32">{{ ip_clearinghouse_peer }}</tspan></text>
    <g
       id="g35"
       transform="matrix(0.527636,0,0,0.527636,64.853383,35.828844)">
      <path
         d="m 0.5,5.79 h 17 v 9.48 a 0.57,0.57 0 0 1 -0.57,0.57 H 1.07 A 0.57,0.57 0 0 1 0.5,15.27 Z"
         fill="url(#ad52e31e-75de-46af-9bdc-bea038ab4209)"
         id="path32"
         style="fill:url(#linearGradient35)" />
      <path
         d="M 1.07,2.17 H 16.93 A 0.57,0.57 0 0 1 17.5,2.74 V 5.79 H 0.5 V 2.73 A 0.57,0.57 0 0 1 1.07,2.17 Z"
         fill="#767676"
         id="path33" />
      <circle
         cx="12.82"
         cy="10.19"
         r="1.38"
         fill="#f2f2f2"
         id="circle33" />
      <circle
         cx="9.0600004"
         cy="10.19"
         r="1.38"
         fill="#f2f2f2"
         id="circle34" />
      <circle
         cx="5.1799998"
         cy="10.19"
         r="1.38"
         fill="#f2f2f2"
         id="circle35" />
      <rect
         x="2.79"
         y="3.25"
         width="12.43"
         height="1.46"
         rx="0.28"
         fill="#f2f2f2"
         id="rect35" />
    </g>
    <path
       style="fill:none;stroke:#0000d2;stroke-width:0.265;stroke-linecap:butt;stroke-linejoin:miter;stroke-dasharray:1.59, 0.265;stroke-dashoffset:0;stroke-opacity:1;marker-end:url(#RoundedArrow)"
       d="m 55.668735,40.91278 c 4.644456,0.558415 9.288915,1.116831 15.077137,2.135987 5.788222,1.019156 12.719935,2.498994 21.316897,2.180632 8.596961,-0.318363 18.858621,-2.434869 26.894951,-3.520492 8.03634,-1.085622 13.84691,-1.140319 19.20323,-0.511047 5.35632,0.629271 10.25808,1.942461 13.70778,1.306178 3.4497,-0.636283 5.44717,-3.221966 7.33158,-6.254323 1.8844,-3.032357 3.65563,-6.511191 5.51277,-9.335393 1.85714,-2.824202 3.8001,-4.993616 6.34005,-6.061632 2.53996,-1.068016 5.67675,-1.034597 8.34806,0.440833 2.67132,1.475429 4.877,4.392751 6.5313,7.836521 1.65431,3.443769 2.75715,7.413767 5.65766,10.055722 2.90051,2.641956 7.59848,3.955733 16.20426,4.593193 8.60579,0.637461 21.11881,0.59858 33.63207,0.559698"
       id="path36"
       inkscape:path-effect="#path-effect36"
       inkscape:original-d="m 55.668735,40.91278 c 4.644456,0.558413 9.288915,1.11683 13.933371,1.675246 6.931988,1.479897 13.863701,2.959735 20.795548,4.439602 10.262076,-2.116592 20.523736,-4.233097 30.785596,-6.349645 5.81081,-0.0547 11.62138,-0.109395 17.43207,-0.164092 4.90195,1.313241 9.80371,2.626429 14.70557,3.939646 1.99754,-2.585786 3.99501,-5.171466 5.99252,-7.7572 1.7713,-3.478979 3.54252,-6.957816 5.31379,-10.436725 1.94302,-2.169496 3.88598,-4.338906 5.82897,-6.508359 3.13692,0.03342 6.27371,0.06684 9.41057,0.10026 2.20577,2.917438 4.41145,5.83476 6.61717,8.752138 1.10289,3.970161 2.20573,7.940159 3.30859,11.91024 4.69816,1.313828 9.39613,2.627606 14.09419,3.941411 12.51351,-0.03888 25.02653,-0.07776 37.53979,-0.116645"
       transform="translate(0,-3.7041668)" />
    <text
       xml:space="preserve"
       style="font-size:3.52778px;line-height:1.25;font-family:sans-serif;text-align:center;text-anchor:middle;stroke-width:0.265;stroke-dasharray:none"
       x="227.66479"
       y="39.722782"
       id="text38"><tspan
         sodipodi:role="line"
         id="tspan38"
         style="font-size:3.52778px;stroke-width:0.265;stroke-dasharray:none"
         x="227.66479"
         y="39.722782">traffic flow</tspan></text>
  </g>
</svg>
