<?xml version="1.0" encoding="UTF-8" standalone="no"?>
<!-- Created with Inkscape (http://www.inkscape.org/) -->
<!--
Windows logo from Font Awesome Free 5.4.1
  Source: https://commons.wikimedia.org/wiki/File:Font_Awesome_5_brands_windows.svg
  License: https://creativecommons.org/licenses/by/4.0/deed.en
Linux logo from Linux Libertine by Philipp H. Poll
  Source: https://commons.wikimedia.org/wiki/File:Linux_Logo_in_Linux_Libertine_Font.svg
  License: https://creativecommons.org/licenses/by-sa/3.0/deed.en
-->

<svg
   width="220mm"
   height="185mm"
   viewBox="0 0 220 185"
   version="1.1"
   id="svg1"
   inkscape:version="1.3.1 (91b66b0, 2023-11-16)"
   sodipodi:docname="virtualization.svg"
   xmlns:inkscape="http://www.inkscape.org/namespaces/inkscape"
   xmlns:sodipodi="http://sodipodi.sourceforge.net/DTD/sodipodi-0.dtd"
   xmlns="http://www.w3.org/2000/svg"
   xmlns:svg="http://www.w3.org/2000/svg">
  <sodipodi:namedview
     id="namedview1"
     pagecolor="#ffffff"
     bordercolor="#666666"
     borderopacity="1.0"
     inkscape:showpageshadow="2"
     inkscape:pageopacity="0.0"
     inkscape:pagecheckerboard="0"
     inkscape:deskcolor="#d1d1d1"
     inkscape:document-units="mm"
     inkscape:zoom="0.49136544"
     inkscape:cx="208.60238"
     inkscape:cy="511.83901"
     inkscape:window-width="1344"
     inkscape:window-height="794"
     inkscape:window-x="0"
     inkscape:window-y="186"
     inkscape:window-maximized="0"
     inkscape:current-layer="layer1" />
  <defs
     id="defs1">
    <inkscape:path-effect
       effect="bspline"
       id="path-effect83"
       is_visible="true"
       lpeversion="1.3"
       weight="33.333333"
       steps="2"
       helper_size="0"
       apply_no_weight="true"
       apply_with_weight="true"
       only_selected="false"
       uniform="false" />
    <inkscape:path-effect
       effect="bspline"
       id="path-effect82"
       is_visible="true"
       lpeversion="1.3"
       weight="33.333333"
       steps="2"
       helper_size="0"
       apply_no_weight="true"
       apply_with_weight="true"
       only_selected="false"
       uniform="false" />
    <inkscape:path-effect
       effect="bspline"
       id="path-effect81"
       is_visible="true"
       lpeversion="1.3"
       weight="33.333333"
       steps="2"
       helper_size="0"
       apply_no_weight="true"
       apply_with_weight="true"
       only_selected="false"
       uniform="false" />
    <inkscape:path-effect
       effect="bspline"
       id="path-effect80"
       is_visible="true"
       lpeversion="1.3"
       weight="33.333333"
       steps="2"
       helper_size="0"
       apply_no_weight="true"
       apply_with_weight="true"
       only_selected="false"
       uniform="false" />
    <inkscape:path-effect
       effect="bspline"
       id="path-effect79"
       is_visible="true"
       lpeversion="1.3"
       weight="33.333333"
       steps="2"
       helper_size="0"
       apply_no_weight="true"
       apply_with_weight="true"
       only_selected="false"
       uniform="false" />
    <inkscape:path-effect
       effect="bspline"
       id="path-effect78"
       is_visible="true"
       lpeversion="1.3"
       weight="33.333333"
       steps="2"
       helper_size="0"
       apply_no_weight="true"
       apply_with_weight="true"
       only_selected="false"
       uniform="false" />
    <inkscape:path-effect
       effect="bspline"
       id="path-effect77"
       is_visible="true"
       lpeversion="1.3"
       weight="33.333333"
       steps="2"
       helper_size="0"
       apply_no_weight="true"
       apply_with_weight="true"
       only_selected="false"
       uniform="false" />
    <inkscape:path-effect
       effect="bspline"
       id="path-effect76"
       is_visible="true"
       lpeversion="1.3"
       weight="33.333333"
       steps="2"
       helper_size="0"
       apply_no_weight="true"
       apply_with_weight="true"
       only_selected="false"
       uniform="false" />
    <inkscape:path-effect
       effect="bspline"
       id="path-effect75"
       is_visible="true"
       lpeversion="1.3"
       weight="33.333333"
       steps="2"
       helper_size="0"
       apply_no_weight="true"
       apply_with_weight="true"
       only_selected="false"
       uniform="false" />
  </defs>
  <g
     inkscape:label="Layer 1"
     inkscape:groupmode="layer"
     id="layer1">
    <g
       id="disk"
       transform="matrix(2.0601391,0,0,1.4109296,-43.378572,-90.998759)"
       style="fill:#d35f5f">
      <path
         id="disk-frame"
         style="stroke:#1a1a1a;stroke-width:0.340783"
         d="m 33.236057,141.29515 h 24.067494 v 27.36581 H 33.236057 Z" />
      <path
         id="disk-bottom"
         style="stroke:#1a1a1a;stroke-width:0.340783"
         d="m 57.303553,168.28864 a 12.033747,7.204843 0 0 1 -6.054247,6.25244 12.033747,7.204843 0 0 1 -12.070888,-0.0388 12.033747,7.204843 0 0 1 -5.941664,-6.29104" />
      <path
         id="disk-top"
         style="stroke:#1a1a1a;stroke-width:0.340783"
         d="m 57.303553,141.29515 a 12.033747,7.204843 0 0 1 -12.033747,7.20484 12.033747,7.204843 0 0 1 -12.033747,-7.20484 12.033747,7.204843 0 0 1 12.033747,-7.20484 12.033747,7.204843 0 0 1 12.033747,7.20484 z" />
    </g>
    <rect
       style="fill:#2ad4ff;stroke:#1a1a1a;stroke-width:0.340783"
       id="rect1"
       width="19.232002"
       height="19.153793"
       x="48.032227"
       y="44.128723" />
    <g
       id="g20"
       transform="translate(3.5678869,-35.997107)">
      <path
         id="rect2"
         style="fill:#008080;stroke:#1a1a1a;stroke-width:0.278559"
         d="m 85.245125,136.44563 h 56.921185 v 5.28485 q -4,2 0,4 v 5 H 85.245125 v -5 q 4,-2 0,-4 z" />
      <rect
         style="fill:#ffff00;stroke:#1a1a1a;stroke-width:0.340783"
         id="rect4"
         width="2.9104185"
         height="3.0119205"
         x="91.920723"
         y="136.44563" />
      <rect
         style="fill:#ffff00;stroke:#1a1a1a;stroke-width:0.340783"
         id="rect5"
         width="2.9104185"
         height="3.0119205"
         x="94.831139"
         y="136.44563" />
      <rect
         style="fill:#ffff00;stroke:#1a1a1a;stroke-width:0.340783"
         id="rect6"
         width="2.9104185"
         height="3.0119205"
         x="97.741554"
         y="136.44563" />
      <rect
         style="fill:#ffff00;stroke:#1a1a1a;stroke-width:0.340783"
         id="rect7"
         width="2.9104185"
         height="3.0119205"
         x="100.65197"
         y="136.44563" />
      <rect
         style="fill:#ffff00;stroke:#1a1a1a;stroke-width:0.340783"
         id="rect8"
         width="2.9104185"
         height="3.0119205"
         x="103.56239"
         y="136.44563" />
      <rect
         style="fill:#ffff00;stroke:#1a1a1a;stroke-width:0.340783"
         id="rect9"
         width="2.9104185"
         height="3.0119205"
         x="106.4728"
         y="136.44563" />
      <rect
         style="fill:#ffff00;stroke:#1a1a1a;stroke-width:0.340783"
         id="rect10"
         width="2.9104185"
         height="3.0119205"
         x="109.38322"
         y="136.44563" />
      <rect
         style="fill:#ffff00;stroke:#1a1a1a;stroke-width:0.340783"
         id="rect11"
         width="2.9104185"
         height="3.0119205"
         x="112.29363"
         y="136.44563" />
      <rect
         style="fill:#ffff00;stroke:#1a1a1a;stroke-width:0.340783"
         id="rect12"
         width="2.9104185"
         height="3.0119205"
         x="118.11446"
         y="136.44563" />
      <rect
         style="fill:#ffff00;stroke:#1a1a1a;stroke-width:0.340783"
         id="rect13"
         width="2.9104185"
         height="3.0119205"
         x="121.02487"
         y="136.44563" />
      <rect
         style="fill:#ffff00;stroke:#1a1a1a;stroke-width:0.340783"
         id="rect14"
         width="2.9104185"
         height="3.0119205"
         x="123.93529"
         y="136.44563" />
      <rect
         style="fill:#ffff00;stroke:#1a1a1a;stroke-width:0.340783"
         id="rect15"
         width="2.9104185"
         height="3.0119205"
         x="126.8457"
         y="136.44563" />
      <rect
         style="fill:#ffff00;stroke:#1a1a1a;stroke-width:0.340783"
         id="rect16"
         width="2.9104185"
         height="3.0119205"
         x="129.7561"
         y="136.44563" />
      <rect
         style="fill:#ffff00;stroke:#1a1a1a;stroke-width:0.340783"
         id="rect17"
         width="2.9104185"
         height="3.0119205"
         x="132.66653"
         y="136.44563" />
      <rect
         style="fill:#ffff00;stroke:#1a1a1a;stroke-width:0.340783"
         id="rect18"
         width="2.9104185"
         height="3.0119205"
         x="89.010307"
         y="136.44563" />
      <rect
         style="fill:#ffff00;stroke:#1a1a1a;stroke-width:0.340783"
         id="rect19"
         width="2.9104185"
         height="3.0119205"
         x="135.57693"
         y="136.44563" />
    </g>
    <g
       id="g73"
       transform="translate(2.6360379,-24.409986)">
      <rect
         style="fill:#008080;stroke:#1a1a1a;stroke-width:0.340783"
         id="rect20"
         width="23.64691"
         height="23.64691"
         x="166.68752"
         y="136.30634" />
      <g
         id="g23"
         transform="translate(-0.88267612)">
        <line
           id="line20"
           x1="171.48767"
           x2="171.48767"
           y2="136.13594"
           y1="129.5838"
           style="stroke:#1a1a1a;stroke-width:0.275848" />
        <line
           id="line20-0"
           x1="175.44066"
           x2="175.44066"
           y2="136.13594"
           y1="129.5838"
           style="stroke:#1a1a1a;stroke-width:0.275848" />
        <line
           id="line21"
           x1="179.39365"
           x2="179.39365"
           y2="136.13594"
           y1="129.5838"
           style="stroke:#1a1a1a;stroke-width:0.275848" />
        <line
           id="line22"
           x1="183.34663"
           x2="183.34663"
           y2="136.13594"
           y1="129.5838"
           style="stroke:#1a1a1a;stroke-width:0.275848" />
        <line
           id="line23"
           x1="187.29962"
           x2="187.29962"
           y2="136.13594"
           y1="129.5838"
           style="stroke:#1a1a1a;stroke-width:0.275848" />
      </g>
      <g
         id="g28"
         transform="translate(-1.1585241,30.539835)">
        <line
           id="line24"
           x1="171.48767"
           x2="171.48767"
           y2="136.13594"
           y1="129.5838"
           style="stroke:#1a1a1a;stroke-width:0.275848" />
        <line
           id="line25"
           x1="175.44066"
           x2="175.44066"
           y2="136.13594"
           y1="129.5838"
           style="stroke:#1a1a1a;stroke-width:0.275848" />
        <line
           id="line26"
           x1="179.39365"
           x2="179.39365"
           y2="136.13594"
           y1="129.5838"
           style="stroke:#1a1a1a;stroke-width:0.275848" />
        <line
           id="line27"
           x1="183.34663"
           x2="183.34663"
           y2="136.13594"
           y1="129.5838"
           style="stroke:#1a1a1a;stroke-width:0.275848" />
        <line
           id="line28"
           x1="187.29962"
           x2="187.29962"
           y2="136.13594"
           y1="129.5838"
           style="stroke:#1a1a1a;stroke-width:0.275848" />
      </g>
      <g
         id="g33"
         transform="rotate(90,178.91342,147.64956)">
        <line
           id="line29"
           x1="171.48767"
           x2="171.48767"
           y2="136.13594"
           y1="129.5838"
           style="stroke:#1a1a1a;stroke-width:0.275848" />
        <line
           id="line30"
           x1="175.44066"
           x2="175.44066"
           y2="136.13594"
           y1="129.5838"
           style="stroke:#1a1a1a;stroke-width:0.275848" />
        <line
           id="line31"
           x1="179.39365"
           x2="179.39365"
           y2="136.13594"
           y1="129.5838"
           style="stroke:#1a1a1a;stroke-width:0.275848" />
        <line
           id="line32"
           x1="183.34663"
           x2="183.34663"
           y2="136.13594"
           y1="129.5838"
           style="stroke:#1a1a1a;stroke-width:0.275848" />
        <line
           id="line33"
           x1="187.29962"
           x2="187.29962"
           y2="136.13594"
           y1="129.5838"
           style="stroke:#1a1a1a;stroke-width:0.275848" />
      </g>
      <g
         id="g38"
         transform="rotate(90,163.79024,132.38846)">
        <line
           id="line34"
           x1="171.48767"
           x2="171.48767"
           y2="136.13594"
           y1="129.5838"
           style="stroke:#1a1a1a;stroke-width:0.275848" />
        <line
           id="line35"
           x1="175.44066"
           x2="175.44066"
           y2="136.13594"
           y1="129.5838"
           style="stroke:#1a1a1a;stroke-width:0.275848" />
        <line
           id="line36"
           x1="179.39365"
           x2="179.39365"
           y2="136.13594"
           y1="129.5838"
           style="stroke:#1a1a1a;stroke-width:0.275848" />
        <line
           id="line37"
           x1="183.34663"
           x2="183.34663"
           y2="136.13594"
           y1="129.5838"
           style="stroke:#1a1a1a;stroke-width:0.275848" />
        <line
           id="line38"
           x1="187.29962"
           x2="187.29962"
           y2="136.13594"
           y1="129.5838"
           style="stroke:#1a1a1a;stroke-width:0.275848" />
      </g>
      <rect
         style="fill:#008080;stroke:#1a1a1a;stroke-width:0.625;stroke-dasharray:none"
         id="rect38"
         width="15.581322"
         height="15.581322"
         x="170.72031"
         y="140.06328" />
    </g>
    <path
       id="path38"
       style="fill:#ffd42a;stroke:#1a1a1a;stroke-width:0.340783"
       d="m 30.470781,121.25314 h 6.428276 l 3,3 v 9.82245 h -9.428276 z m 6.428276,0 v 3 h 3" />
    <path
       id="path39"
       style="fill:#ffd42a;stroke:#1a1a1a;stroke-width:0.340783"
       d="m 45.169383,121.25314 h 6.428276 l 3,3 v 9.82245 h -9.428276 z m 6.428276,0 v 3 h 3" />
    <path
       id="path40"
       style="fill:#ffd42a;stroke:#1a1a1a;stroke-width:0.340783"
       d="m 59.867985,121.25314 h 6.428276 l 3,3 v 9.82245 h -9.428276 z m 6.428276,0 v 3 h 3" />
    <g
       id="g56"
       transform="translate(3.9889519,-15.908142)">
      <path
         id="path41"
         style="fill:#008080;stroke:#1a1a1a;stroke-width:0.278559"
         d="m 85.245125,136.44563 h 56.921185 v 5.28485 q -4,2 0,4 v 5 H 85.245125 v -5 q 4,-2 0,-4 z" />
      <rect
         style="fill:#ffff00;stroke:#1a1a1a;stroke-width:0.340783"
         id="rect41"
         width="2.9104185"
         height="3.0119205"
         x="91.920723"
         y="136.44563" />
      <rect
         style="fill:#ffff00;stroke:#1a1a1a;stroke-width:0.340783"
         id="rect42"
         width="2.9104185"
         height="3.0119205"
         x="94.831139"
         y="136.44563" />
      <rect
         style="fill:#ffff00;stroke:#1a1a1a;stroke-width:0.340783"
         id="rect43"
         width="2.9104185"
         height="3.0119205"
         x="97.741554"
         y="136.44563" />
      <rect
         style="fill:#ffff00;stroke:#1a1a1a;stroke-width:0.340783"
         id="rect44"
         width="2.9104185"
         height="3.0119205"
         x="100.65197"
         y="136.44563" />
      <rect
         style="fill:#ffff00;stroke:#1a1a1a;stroke-width:0.340783"
         id="rect45"
         width="2.9104185"
         height="3.0119205"
         x="103.56239"
         y="136.44563" />
      <rect
         style="fill:#ffff00;stroke:#1a1a1a;stroke-width:0.340783"
         id="rect46"
         width="2.9104185"
         height="3.0119205"
         x="106.4728"
         y="136.44563" />
      <rect
         style="fill:#ffff00;stroke:#1a1a1a;stroke-width:0.340783"
         id="rect47"
         width="2.9104185"
         height="3.0119205"
         x="109.38322"
         y="136.44563" />
      <rect
         style="fill:#ffff00;stroke:#1a1a1a;stroke-width:0.340783"
         id="rect48"
         width="2.9104185"
         height="3.0119205"
         x="112.29363"
         y="136.44563" />
      <rect
         style="fill:#ffff00;stroke:#1a1a1a;stroke-width:0.340783"
         id="rect49"
         width="2.9104185"
         height="3.0119205"
         x="118.11446"
         y="136.44563" />
      <rect
         style="fill:#ffff00;stroke:#1a1a1a;stroke-width:0.340783"
         id="rect50"
         width="2.9104185"
         height="3.0119205"
         x="121.02487"
         y="136.44563" />
      <rect
         style="fill:#ffff00;stroke:#1a1a1a;stroke-width:0.340783"
         id="rect51"
         width="2.9104185"
         height="3.0119205"
         x="123.93529"
         y="136.44563" />
      <rect
         style="fill:#ffff00;stroke:#1a1a1a;stroke-width:0.340783"
         id="rect52"
         width="2.9104185"
         height="3.0119205"
         x="126.8457"
         y="136.44563" />
      <rect
         style="fill:#ffff00;stroke:#1a1a1a;stroke-width:0.340783"
         id="rect53"
         width="2.9104185"
         height="3.0119205"
         x="129.7561"
         y="136.44563" />
      <rect
         style="fill:#ffff00;stroke:#1a1a1a;stroke-width:0.340783"
         id="rect54"
         width="2.9104185"
         height="3.0119205"
         x="132.66653"
         y="136.44563" />
      <rect
         style="fill:#ffff00;stroke:#1a1a1a;stroke-width:0.340783"
         id="rect55"
         width="2.9104185"
         height="3.0119205"
         x="89.010307"
         y="136.44563" />
      <rect
         style="fill:#ffff00;stroke:#1a1a1a;stroke-width:0.340783"
         id="rect56"
         width="2.9104185"
         height="3.0119205"
         x="135.57693"
         y="136.44563" />
    </g>
    <g
       id="g72"
       transform="translate(3.9889519,4.1808224)">
      <path
         id="path56"
         style="fill:#008080;stroke:#1a1a1a;stroke-width:0.278559"
         d="m 85.245125,136.44563 h 56.921185 v 5.28485 q -4,2 0,4 v 5 H 85.245125 v -5 q 4,-2 0,-4 z" />
      <rect
         style="fill:#ffff00;stroke:#1a1a1a;stroke-width:0.340783"
         id="rect57"
         width="2.9104185"
         height="3.0119205"
         x="91.920723"
         y="136.44563" />
      <rect
         style="fill:#ffff00;stroke:#1a1a1a;stroke-width:0.340783"
         id="rect58"
         width="2.9104185"
         height="3.0119205"
         x="94.831139"
         y="136.44563" />
      <rect
         style="fill:#ffff00;stroke:#1a1a1a;stroke-width:0.340783"
         id="rect59"
         width="2.9104185"
         height="3.0119205"
         x="97.741554"
         y="136.44563" />
      <rect
         style="fill:#ffff00;stroke:#1a1a1a;stroke-width:0.340783"
         id="rect60"
         width="2.9104185"
         height="3.0119205"
         x="100.65197"
         y="136.44563" />
      <rect
         style="fill:#ffff00;stroke:#1a1a1a;stroke-width:0.340783"
         id="rect61"
         width="2.9104185"
         height="3.0119205"
         x="103.56239"
         y="136.44563" />
      <rect
         style="fill:#ffff00;stroke:#1a1a1a;stroke-width:0.340783"
         id="rect62"
         width="2.9104185"
         height="3.0119205"
         x="106.4728"
         y="136.44563" />
      <rect
         style="fill:#ffff00;stroke:#1a1a1a;stroke-width:0.340783"
         id="rect63"
         width="2.9104185"
         height="3.0119205"
         x="109.38322"
         y="136.44563" />
      <rect
         style="fill:#ffff00;stroke:#1a1a1a;stroke-width:0.340783"
         id="rect64"
         width="2.9104185"
         height="3.0119205"
         x="112.29363"
         y="136.44563" />
      <rect
         style="fill:#ffff00;stroke:#1a1a1a;stroke-width:0.340783"
         id="rect65"
         width="2.9104185"
         height="3.0119205"
         x="118.11446"
         y="136.44563" />
      <rect
         style="fill:#ffff00;stroke:#1a1a1a;stroke-width:0.340783"
         id="rect66"
         width="2.9104185"
         height="3.0119205"
         x="121.02487"
         y="136.44563" />
      <rect
         style="fill:#ffff00;stroke:#1a1a1a;stroke-width:0.340783"
         id="rect67"
         width="2.9104185"
         height="3.0119205"
         x="123.93529"
         y="136.44563" />
      <rect
         style="fill:#ffff00;stroke:#1a1a1a;stroke-width:0.340783"
         id="rect68"
         width="2.9104185"
         height="3.0119205"
         x="126.8457"
         y="136.44563" />
      <rect
         style="fill:#ffff00;stroke:#1a1a1a;stroke-width:0.340783"
         id="rect69"
         width="2.9104185"
         height="3.0119205"
         x="129.7561"
         y="136.44563" />
      <rect
         style="fill:#ffff00;stroke:#1a1a1a;stroke-width:0.340783"
         id="rect70"
         width="2.9104185"
         height="3.0119205"
         x="132.66653"
         y="136.44563" />
      <rect
         style="fill:#ffff00;stroke:#1a1a1a;stroke-width:0.340783"
         id="rect71"
         width="2.9104185"
         height="3.0119205"
         x="89.010307"
         y="136.44563" />
      <rect
         style="fill:#ffff00;stroke:#1a1a1a;stroke-width:0.340783"
         id="rect72"
         width="2.9104185"
         height="3.0119205"
         x="135.57693"
         y="136.44563" />
    </g>
    <text
       xml:space="preserve"
       style="font-style:normal;font-weight:normal;font-size:10.5833px;line-height:1.25;font-family:sans-serif;fill:#000000;fill-opacity:1;stroke:none;stroke-width:0.264583"
       x="44.84285"
       y="39.994919"
       id="text73"><tspan
         sodipodi:role="line"
         id="tspan73"
         style="stroke-width:0.264583"
         x="44.84285"
         y="39.994919">VM 1</tspan></text>
    <rect
       style="fill:#2ad4ff;stroke:#1a1a1a;stroke-width:0.340783"
       id="rect73"
       width="19.232002"
       height="19.153793"
       x="100.54752"
       y="44.128723" />
    <text
       xml:space="preserve"
       style="font-style:normal;font-weight:normal;font-size:10.5833px;line-height:1.25;font-family:sans-serif;fill:#000000;fill-opacity:1;stroke:none;stroke-width:0.264583"
       x="97.358139"
       y="39.994919"
       id="text74"><tspan
         sodipodi:role="line"
         id="tspan74"
         style="stroke-width:0.264583"
         x="97.358139"
         y="39.994919">VM 2</tspan></text>
    <rect
       style="fill:#2ad4ff;stroke:#1a1a1a;stroke-width:0.340783"
       id="rect74"
       width="19.232002"
       height="19.153793"
       x="153.06279"
       y="44.128723" />
    <text
       xml:space="preserve"
       style="font-style:normal;font-weight:normal;font-size:10.5833px;line-height:1.25;font-family:sans-serif;fill:#000000;fill-opacity:1;stroke:none;stroke-width:0.264583"
       x="149.87341"
       y="39.994919"
       id="text75"><tspan
         sodipodi:role="line"
         id="tspan75"
         style="stroke-width:0.264583"
         x="149.87341"
         y="39.994919">VM 3</tspan></text>
    <path
       style="fill:none;stroke:#000000;stroke-width:0.818703;stroke-linecap:butt;stroke-linejoin:miter;stroke-dasharray:none;stroke-opacity:1"
       d="m 44.46434,99.279624 c -9.345242,5.890846 -18.690484,11.781706 -21.617359,21.443606 -2.926875,9.6619 0.564484,23.09432 4.055913,36.52701"
       id="path75"
       inkscape:path-effect="#path-effect75"
       inkscape:original-d="m 44.46434,99.279624 c -9.345245,5.890846 -18.690488,11.781696 -28.035731,17.672556 3.491498,13.43295 6.982856,26.86537 10.474285,40.29806"
       transform="matrix(0.8169776,0,0,1,11.705858,-35.997107)" />
    <path
       style="fill:none;stroke:#000000;stroke-width:0.763747;stroke-linecap:butt;stroke-linejoin:miter;stroke-dasharray:none;stroke-opacity:1"
       d="m 96.97962,99.279624 c -19.171881,6.039146 -38.343761,12.078286 -47.573441,21.740186 -9.22968,9.6619 -8.517189,22.94603 -7.804684,36.23043"
       id="path76"
       inkscape:path-effect="#path-effect76"
       inkscape:original-d="m 96.97962,99.279624 c -19.17188,6.039146 -38.34376,12.078286 -57.51564,18.117426 0.71252,13.28466 1.425011,26.56879 2.137515,39.85319"
       transform="matrix(0.93827987,0,0,1.0005333,9.5536153,-36.052384)" />
    <path
       style="fill:none;stroke:#000000;stroke-width:0.761457;stroke-linecap:butt;stroke-linejoin:miter;stroke-dasharray:none;stroke-opacity:1"
       d="m 149.4949,99.279624 c -22.52742,4.380986 -45.05485,8.761976 -60.587402,18.423896 -15.532551,9.66192 -24.069891,24.60417 -32.607401,39.54672"
       id="path77"
       inkscape:path-effect="#path-effect77"
       inkscape:original-d="m 149.4949,99.279624 c -22.52742,4.380986 -45.05485,8.761986 -67.582272,13.142966 -8.53768,14.94285 -17.07502,29.8851 -25.612531,44.82765"
       transform="matrix(0.9482197,0,0,0.99601114,11.308133,-35.603614)" />
    <path
       style="fill:none;stroke:#000000;stroke-width:0.365;stroke-linecap:butt;stroke-linejoin:miter;stroke-dasharray:0.365, 0.73;stroke-dashoffset:0;stroke-opacity:1"
       d="m 63.696341,99.279624 c 5.934279,4.272496 11.868552,8.544986 15.460029,14.739406 3.591477,6.19441 4.840104,14.31043 6.088754,22.4266"
       id="path78"
       inkscape:path-effect="#path-effect78"
       inkscape:original-d="m 63.696341,99.279624 c 5.934279,4.272496 11.868555,8.544986 17.802831,12.817486 1.248677,8.11633 2.497301,16.23235 3.745952,24.34852"
       transform="matrix(1.4462433,0,0,0.99999997,-34.472177,-35.997104)" />
    <path
       style="fill:none;stroke:#000000;stroke-width:0.366;stroke-linecap:butt;stroke-linejoin:miter;stroke-dasharray:0.366, 0.732;stroke-dashoffset:0;stroke-opacity:1"
       d="m 116.21162,99.279624 c -15.14483,9.646286 -30.289661,19.292566 -35.380518,28.835156 -5.090856,9.54259 -0.127932,18.98111 4.835088,28.41981"
       id="path79"
       inkscape:path-effect="#path-effect79"
       inkscape:original-d="m 116.21162,99.279624 c -15.14483,9.646286 -30.289663,19.292566 -45.434494,28.938856 4.96312,9.43889 9.926042,18.87741 14.889064,28.31611"
       transform="matrix(0.77880883,0,0,1.0866327,22.516493,-44.273261)" />
    <path
       style="fill:none;stroke:#000000;stroke-width:0.366;stroke-linecap:butt;stroke-linejoin:miter;stroke-dasharray:0.366, 0.732;stroke-dashoffset:0;stroke-opacity:1"
       d="m 168.7269,99.279624 c -32.64993,7.036796 -65.29985,14.073586 -79.143251,26.964436 -13.843403,12.89084 -8.880481,31.63498 -3.917459,50.3795"
       id="path80"
       inkscape:path-effect="#path-effect80"
       inkscape:original-d="m 168.7269,99.279624 c -32.64993,7.036796 -65.29985,14.073586 -97.949774,21.110386 4.96312,18.74489 9.926042,37.48903 14.889064,56.23355"
       transform="matrix(0.88422927,0,0,1,13.485526,-35.997107)" />
    <path
       style="fill:none;stroke:#000000;stroke-width:0.365;stroke-linecap:butt;stroke-linejoin:miter;stroke-dasharray:2.92, 2.92;stroke-dashoffset:0;stroke-opacity:1"
       d="m 63.696341,99.279624 c 32.896879,6.174296 65.793759,12.348586 84.115429,20.422596 18.32167,8.07401 22.06798,18.04732 25.81436,28.02084"
       id="path81"
       inkscape:path-effect="#path-effect81"
       inkscape:original-d="m 63.696341,99.279624 c 32.896879,6.174296 65.793759,12.348586 98.690639,18.522886 3.74646,9.97372 7.49277,19.94703 11.23915,29.92055"
       transform="translate(3.5678869,-35.997107)" />
    <path
       style="fill:none;stroke:#000000;stroke-width:0.365;stroke-linecap:butt;stroke-linejoin:miter;stroke-dasharray:2.92, 2.92;stroke-dashoffset:0;stroke-opacity:1"
       d="m 116.21162,99.279624 c 17.56189,6.174296 35.12378,12.348586 44.69288,20.422596 9.56911,8.07401 11.14535,18.04732 12.72163,28.02084"
       id="path82"
       inkscape:path-effect="#path-effect82"
       inkscape:original-d="m 116.21162,99.279624 c 17.56189,6.174296 35.12378,12.348586 52.68568,18.522886 1.5763,9.97372 3.15255,19.94703 4.72883,29.92055"
       transform="translate(3.5678869,-35.997107)" />
    <path
       style="fill:none;stroke:#000000;stroke-width:0.365;stroke-linecap:butt;stroke-linejoin:miter;stroke-dasharray:2.92, 2.92;stroke-dashoffset:0;stroke-opacity:1"
       d="m 168.7269,99.279624 c 2.90477,6.174296 5.80953,12.348586 6.62606,20.422596 0.81652,8.07401 -0.45514,18.04732 -1.72683,28.02084"
       id="path83"
       inkscape:path-effect="#path-effect83"
       inkscape:original-d="m 168.7269,99.279624 c 2.90476,6.174296 5.80953,12.348586 8.7143,18.522886 -1.27172,9.97372 -2.54338,19.94703 -3.81507,29.92055"
       transform="translate(3.5678869,-35.997107)" />
    <text
       xml:space="preserve"
       style="font-style:normal;font-weight:normal;font-size:10.5833px;line-height:1.25;font-family:sans-serif;fill:#000000;fill-opacity:1;stroke:none;stroke-width:0.264583"
       x="29.088987"
       y="169.25877"
       id="text1"><tspan
         sodipodi:role="line"
         id="tspan1"
         style="stroke-width:0.264583"
         x="29.088987"
         y="169.25877">Storage</tspan></text>
    <text
       xml:space="preserve"
       style="font-style:normal;font-weight:normal;font-size:10.5833px;line-height:1.25;font-family:sans-serif;fill:#000000;fill-opacity:1;stroke:none;stroke-width:0.264583"
       x="95.975136"
       y="169.21744"
       id="text2"><tspan
         sodipodi:role="line"
         id="tspan2"
         style="stroke-width:0.264583"
         x="95.975136"
         y="169.21744">Memory</tspan></text>
    <text
       xml:space="preserve"
       style="font-style:normal;font-weight:normal;font-size:10.5833px;line-height:1.25;font-family:sans-serif;fill:#000000;fill-opacity:1;stroke:none;stroke-width:0.264583"
       x="170.41286"
       y="170.27162"
       id="text3"><tspan
         sodipodi:role="line"
         id="tspan3"
         style="stroke-width:0.264583"
         x="170.41286"
         y="170.27162">CPU</tspan></text>
    <rect
       style="opacity:1;fill:none;stroke:#666666;stroke-width:5.86642;stroke-dasharray:none"
       id="rect3"
       width="214.03842"
       height="163.30925"
       x="3.1918805"
       y="18.859158" />
    <text
       xml:space="preserve"
       style="font-style:normal;font-weight:normal;font-size:10.5833px;line-height:1.25;font-family:sans-serif;fill:#000000;fill-opacity:1;stroke:none;stroke-width:0.264583"
       x="71.962852"
       y="9.0991592"
       id="text4"><tspan
         sodipodi:role="line"
         id="tspan4"
         style="stroke-width:0.264583"
         x="71.962852"
         y="9.0991592">Physical Server</tspan></text>
    <path
       d="m 50.763675,48.717392 5.642875,-0.777585 v 5.45232 h -5.642875 z m 0,9.976455 5.642875,0.777585 v -5.384704 h -5.642875 z m 6.263712,0.860568 7.505393,1.035757 v -6.503444 h -7.505393 z m 0,-11.697592 v 5.535304 h 7.505393 v -6.57106 z"
       id="path1"
       style="stroke-width:0.0307345" />
    <path
       d="m 109.88495,49.535969 c 0,0.06098 -0.061,0.06098 -0.061,0.06098 h -0.061 c -0.061,0 -0.061,-0.06098 -0.12195,-0.121956 0,0 -0.061,-0.06098 -0.061,-0.121955 0,-0.06098 0,-0.06098 0.061,-0.06098 l 0.12195,0.06098 c 0.061,0.06098 0.12196,0.121955 0.12196,0.182933 m -1.0976,-0.609778 c 0,-0.304889 -0.12196,-0.487822 -0.30489,-0.487822 0,0 0,0.06098 -0.061,0.06098 v 0.121955 h 0.18293 c 0,0.121956 0.061,0.182934 0.061,0.304889 h 0.12196 m 2.13422,-0.304889 c 0.12196,0 0.18293,0.121956 0.24391,0.304889 h 0.12196 c -0.061,-0.06098 -0.061,-0.121955 -0.061,-0.182933 0,-0.06098 0,-0.121956 -0.061,-0.182933 -0.061,-0.06098 -0.12195,-0.121956 -0.18293,-0.121956 0,0 -0.061,0.06098 -0.12196,0.06098 0,0.06098 0.061,0.06098 0.061,0.121955 m -1.82933,0.975645 c -0.061,0 -0.061,0 -0.061,-0.06098 0,-0.06098 0,-0.121956 0.061,-0.182933 0.12195,0 0.18293,-0.06098 0.18293,-0.06098 0.061,0 0.061,0.06098 0.061,0.06098 0,0.06098 -0.061,0.121955 -0.18294,0.243911 h -0.061 m -0.67076,-0.06098 c -0.24391,-0.121956 -0.30489,-0.304889 -0.30489,-0.609778 0,-0.182933 0,-0.304889 0.12196,-0.426844 0.061,-0.121955 0.18293,-0.182933 0.30489,-0.182933 0.12195,0 0.18293,0.06098 0.30489,0.182933 0.061,0.182933 0.12195,0.365866 0.12195,0.5488 v 0.121955 h 0.061 v -0.06098 c 0.061,0 0.061,-0.121956 0.061,-0.365867 0,-0.182933 0,-0.365866 -0.12196,-0.5488 -0.12195,-0.182933 -0.24391,-0.304889 -0.48782,-0.304889 -0.18293,0 -0.36587,0.121956 -0.42684,0.304889 -0.12196,0.243911 -0.14635,0.426844 -0.14635,0.731733 0,0.243911 0.0854,0.487822 0.32928,0.731734 0.061,-0.06098 0.12195,-0.06098 0.18293,-0.121956 m 7.62222,8.597865 c 0.061,0 0.061,-0.02439 0.061,-0.07927 0,-0.134151 -0.061,-0.292693 -0.24391,-0.469528 -0.18293,-0.182933 -0.48782,-0.298791 -0.85369,-0.347574 -0.061,-0.0061 -0.12196,-0.0061 -0.12196,-0.0061 -0.061,-0.0122 -0.061,-0.0122 -0.12195,-0.0122 -0.061,-0.0061 -0.18293,-0.01829 -0.24391,-0.03049 0.18293,-0.567093 0.24391,-1.067111 0.24391,-1.506151 0,-0.609778 -0.12195,-1.036622 -0.36587,-1.402488 -0.24391,-0.365867 -0.48782,-0.5488 -0.79271,-0.609778 -0.061,0.06098 -0.061,0.06098 -0.061,0.121956 0.30488,0.121955 0.60977,0.365866 0.7927,0.731733 0.18294,0.426844 0.24392,0.792711 0.24392,1.219555 0,0.341476 -0.061,0.847591 -0.30489,1.493955 -0.24391,0.09756 -0.48783,0.323182 -0.67076,0.676854 0,0.05488 0,0.08537 0.061,0.08537 0,0 0.061,-0.05488 0.12195,-0.158542 0.12196,-0.103662 0.18294,-0.207325 0.3049,-0.310986 0.18293,-0.103663 0.30488,-0.158543 0.48782,-0.158543 0.30488,0 0.60978,0.04268 0.79271,0.128054 0.24391,0.07927 0.36586,0.16464 0.42684,0.262204 0.061,0.09147 0.12196,0.176835 0.18293,0.256107 0,0.07927 0.061,0.115858 0.061,0.115858 m -5.60995,-8.841776 c -0.061,-0.06098 -0.061,-0.182933 -0.061,-0.304889 0,-0.243911 0,-0.365867 0.12196,-0.5488 0.12195,-0.121955 0.24391,-0.182933 0.36586,-0.182933 0.18294,0 0.30489,0.121956 0.42685,0.243911 0.061,0.182933 0.12195,0.304889 0.12195,0.487822 0,0.304889 -0.12195,0.487822 -0.36586,0.5488 0,0 0.061,0.06098 0.12195,0.06098 0.12196,0 0.18294,0.06098 0.30489,0.121955 0.061,-0.365866 0.12196,-0.609777 0.12196,-0.914666 0,-0.365867 -0.061,-0.609778 -0.18294,-0.792711 -0.18293,-0.182933 -0.36586,-0.243911 -0.60977,-0.243911 -0.18294,0 -0.36587,0.06098 -0.5488,0.182933 -0.12196,0.182933 -0.18294,0.304889 -0.18294,0.487822 0,0.304889 0.061,0.5488 0.18294,0.792711 0.061,0 0.12195,0.06098 0.18293,0.06098 m 0.73173,0.975644 c -0.79271,0.5488 -1.40249,0.792711 -1.89031,0.792711 -0.42684,0 -0.85369,-0.182933 -1.21955,-0.487822 0.061,0.121955 0.12195,0.243911 0.18293,0.304889 l 0.36586,0.365866 c 0.24392,0.243911 0.5488,0.365867 0.85369,0.365867 0.42685,0 0.91467,-0.243911 1.52445,-0.670755 l 0.5488,-0.365867 c 0.12195,-0.121956 0.24391,-0.243911 0.24391,-0.426844 0,-0.06098 0,-0.121956 -0.061,-0.121956 -0.061,-0.121955 -0.36586,-0.304889 -0.97564,-0.487822 -0.5488,-0.243911 -0.97565,-0.365867 -1.21956,-0.365867 -0.18293,0 -0.48782,0.121956 -0.91467,0.365867 -0.36586,0.243911 -0.60977,0.487822 -0.60977,0.731733 0,0 0.061,0.06098 0.12195,0.182933 0.36587,0.304889 0.73174,0.487823 1.0976,0.487823 0.48782,0 1.0976,-0.243912 1.89031,-0.853689 v 0.121956 c 0.061,0 0.061,0.06098 0.061,0.06098 m 1.40249,12.317508 c 0.24391,0.458553 0.67075,0.689049 1.15858,0.689049 0.12195,0 0.24391,-0.01829 0.36587,-0.05488 0.12195,-0.02439 0.2439,-0.06708 0.30488,-0.115858 0.061,-0.04268 0.12196,-0.08537 0.18294,-0.134151 0.12195,-0.04268 0.12195,-0.07317 0.18293,-0.103662 l 1.03662,-0.896373 c 0.24391,-0.194519 0.48782,-0.364647 0.79271,-0.512213 0.24391,-0.146347 0.48783,-0.243911 0.60978,-0.298791 0.18293,-0.04878 0.30489,-0.121956 0.42685,-0.21952 0.061,-0.09147 0.12195,-0.207325 0.12195,-0.353672 0,-0.176835 -0.12195,-0.310986 -0.24391,-0.408551 -0.12196,-0.09756 -0.24391,-0.164639 -0.36587,-0.207324 -0.12195,-0.04268 -0.24391,-0.140249 -0.42684,-0.304889 -0.12196,-0.158542 -0.24391,-0.378062 -0.30489,-0.664657 l -0.061,-0.353671 c -0.061,-0.16464 -0.061,-0.286596 -0.12195,-0.353671 0,-0.01829 0,-0.02439 -0.061,-0.02439 -0.061,0 -0.18294,0.05488 -0.24391,0.158543 -0.12196,0.103662 -0.24391,0.21952 -0.36587,0.341475 -0.061,0.121956 -0.24391,0.231716 -0.36586,0.335378 -0.18294,0.103662 -0.36587,0.158542 -0.48783,0.158542 -0.48782,0 -0.73173,-0.134151 -0.91467,-0.396355 -0.12195,-0.195129 -0.18293,-0.420747 -0.2439,-0.676853 -0.12196,-0.103663 -0.18294,-0.158543 -0.3049,-0.158543 -0.30488,0 -0.42684,0.317085 -0.42684,0.957351 v 1.896409 c 0,0.05488 -0.061,0.176835 -0.061,0.365866 -0.061,0.189031 -0.061,0.403673 -0.061,0.646364 l -0.12195,0.676854 v 0.01036 m -8.84178,-0.322572 c 0.5671,0.08293 1.21956,0.260375 1.95739,0.531116 0.73783,0.268302 1.18907,0.408551 1.3537,0.408551 0.42685,0 0.78052,-0.189031 1.07321,-0.554288 0.061,-0.118297 0.061,-0.257326 0.061,-0.417088 0,-0.57624 -0.34757,-1.304924 -1.04272,-2.189101 l -0.41464,-0.554898 c -0.0854,-0.115857 -0.18904,-0.292693 -0.32319,-0.530506 -0.12805,-0.237814 -0.24391,-0.420747 -0.33538,-0.5488 -0.0793,-0.140249 -0.20732,-0.280498 -0.37196,-0.420747 -0.15854,-0.140249 -0.34147,-0.231715 -0.5427,-0.280497 -0.25611,0.04878 -0.43294,0.13415 -0.51831,0.250008 -0.0854,0.115858 -0.13415,0.243911 -0.14635,0.378063 -0.0183,0.128053 -0.0549,0.213422 -0.11586,0.256106 -0.061,0.03659 -0.16464,0.06708 -0.30488,0.09756 -0.0305,0 -0.0854,0 -0.16465,0.0061 h -0.16464 c -0.32318,0 -0.5427,0.03659 -0.65856,0.09756 -0.15244,0.176835 -0.23171,0.378062 -0.23171,0.591484 0,0.09756 0.0244,0.262205 0.0732,0.49392 0.0488,0.225618 0.0732,0.408551 0.0732,0.536604 0,0.250009 -0.0732,0.500018 -0.22561,0.750027 -0.15244,0.262204 -0.23172,0.457333 -0.23172,0.596362 0.061,0.236594 0.46343,0.403063 1.20126,0.500628 m 2.03056,-5.542879 c 0,-0.420746 0.10976,-0.884177 0.33538,-1.432977 0.21952,-0.5488 0.43904,-0.914667 0.65246,-1.158578 -0.0122,-0.06098 -0.0427,-0.06098 -0.0915,-0.06098 l -0.061,-0.06098 c -0.17684,0.182933 -0.39026,0.609777 -0.64637,1.219555 -0.2561,0.5488 -0.39025,1.054915 -0.39025,1.42688 0,0.274399 0.0671,0.512213 0.18903,0.719537 0.13415,0.201227 0.45733,0.49392 0.96955,0.865884 l 0.64636,0.420747 c 0.68905,0.597582 1.05492,1.012231 1.05492,1.256142 0,0.128053 -0.061,0.256106 -0.24392,0.396355 -0.12195,0.146347 -0.28659,0.21952 -0.42684,0.21952 -0.0122,0 -0.0183,0.0122 -0.0183,0.04268 0,0.0061 0.061,0.128053 0.18902,0.365866 0.25611,0.347574 0.80491,0.518311 1.53665,0.518311 1.34151,0 2.37813,-0.5488 3.17084,-1.646399 0,-0.304889 0,-0.49392 -0.061,-0.573191 v -0.225615 c 0,-0.396356 0.061,-0.695147 0.18293,-0.890275 0.12196,-0.195129 0.24392,-0.286596 0.42685,-0.286596 0.12195,0 0.24391,0.04268 0.36587,0.134151 0.061,-0.469528 0.061,-0.87808 0.061,-1.243946 0,-0.554898 0,-1.012231 -0.12196,-1.439076 -0.061,-0.365866 -0.18294,-0.670755 -0.30489,-0.914666 l -0.36587,-0.5488 c -0.12195,-0.182933 -0.18293,-0.365866 -0.30489,-0.5488 -0.061,-0.243911 -0.12195,-0.426844 -0.12195,-0.731733 -0.18294,-0.304889 -0.30489,-0.609777 -0.48782,-0.914666 -0.12196,-0.304889 -0.24391,-0.609778 -0.36587,-0.853689 l -0.5488,0.426845 c -0.60978,0.426844 -1.0976,0.609777 -1.52444,0.609777 -0.36587,0 -0.67076,-0.06098 -0.85369,-0.304889 l -0.36587,-0.304888 c 0,0.182933 -0.061,0.426844 -0.18293,0.670755 l -0.38416,0.731733 c -0.17074,0.426844 -0.26221,0.670755 -0.2805,0.853689 -0.0244,0.121955 -0.0427,0.243911 -0.0549,0.243911 l -0.45733,0.914666 c -0.49392,0.914667 -0.74393,1.762257 -0.74393,2.463502 0,0.140248 0.0122,0.286595 0.0366,0.432942 -0.2744,-0.189031 -0.40856,-0.451236 -0.40856,-0.792711 m 4.36601,5.768496 c -0.79271,0 -1.40249,0.107321 -1.82933,0.320134 v -0.01829 c -0.30489,0.365867 -0.64637,0.554897 -1.12199,0.554897 -0.29879,0 -0.76832,-0.115857 -1.40249,-0.347573 -0.64026,-0.21952 -1.20736,-0.387819 -1.70128,-0.498798 -0.0488,-0.01402 -0.15854,-0.03476 -0.33538,-0.06281 -0.17073,-0.02744 -0.32928,-0.05549 -0.46953,-0.08354 -0.12805,-0.02744 -0.2744,-0.0689 -0.43294,-0.125004 -0.15244,-0.04817 -0.2744,-0.11098 -0.36587,-0.187202 -0.0841,-0.07683 -0.12562,-0.163422 -0.12562,-0.260376 0,-0.09756 0.0207,-0.201837 0.0622,-0.312816 0.039,-0.06708 0.0817,-0.134151 0.1244,-0.195129 0.0427,-0.06708 0.0793,-0.128053 0.10366,-0.189031 0.0366,-0.05488 0.061,-0.10976 0.0854,-0.170738 0.0244,-0.05488 0.0488,-0.10976 0.061,-0.176835 0.0122,-0.06098 0.0244,-0.121956 0.0244,-0.182934 0,-0.06098 -0.0244,-0.243911 -0.0732,-0.567093 -0.0488,-0.317084 -0.0732,-0.518311 -0.0732,-0.60368 0,-0.268302 0.061,-0.481724 0.19513,-0.634168 0.13415,-0.152445 0.2622,-0.231716 0.39635,-0.231716 h 0.70125 c 0.0549,0 0.14025,-0.03049 0.2683,-0.103662 0.0427,-0.09756 0.0793,-0.176836 0.10366,-0.250009 0.0305,-0.07317 0.0427,-0.128053 0.0549,-0.152444 0.0122,-0.03659 0.0244,-0.07317 0.0366,-0.103662 0.0244,-0.04268 0.0549,-0.09147 0.0976,-0.140249 -0.0488,-0.06098 -0.0732,-0.140249 -0.0732,-0.237814 0,-0.06708 0,-0.128053 0.0122,-0.164639 0,-0.219521 0.10366,-0.530507 0.32318,-0.939058 l 0.21342,-0.38416 c 0.17684,-0.32928 0.31099,-0.573191 0.40855,-0.817102 0.10367,-0.243911 0.21343,-0.609778 0.33538,-1.0976 0.0976,-0.426844 0.32928,-0.853688 0.69515,-1.280533 l 0.45734,-0.548801 c 0.31709,-0.365867 0.52441,-0.670755 0.64027,-0.914667 0.11585,-0.243911 0.17683,-0.548799 0.17683,-0.792711 0,-0.121955 -0.0305,-0.487822 -0.0976,-1.097599 -0.061,-0.609778 -0.0915,-1.219556 -0.0915,-1.768355 0,-0.426845 0.0366,-0.731733 0.11586,-1.036622 0.0793,-0.304889 0.21952,-0.609778 0.42684,-0.853689 0.18294,-0.243911 0.42685,-0.487822 0.79272,-0.609778 0.36586,-0.121955 0.79271,-0.182933 1.28053,-0.182933 0.18293,0 0.36586,0 0.5488,0.06098 0.18293,0 0.42684,0.06098 0.73173,0.182933 0.24391,0.121956 0.48783,0.243911 0.67076,0.426844 0.24391,0.182934 0.42684,0.487823 0.60977,0.792711 0.12196,0.365867 0.24392,0.731734 0.30489,1.219556 0.061,0.304888 0.061,0.609777 0.12196,1.036622 0,0.365866 0.061,0.609777 0.061,0.792711 0.061,0.182933 0.061,0.426844 0.12195,0.731733 0.061,0.243911 0.12196,0.487822 0.24391,0.670755 0.12196,0.243911 0.24391,0.487822 0.42685,0.731733 0.18293,0.304889 0.42684,0.609778 0.67075,0.975644 0.5488,0.609778 0.97565,1.280533 1.21956,1.951289 0.30489,0.609777 0.48782,1.402488 0.48782,2.250079 0,0.420747 -0.061,0.829298 -0.18293,1.225653 0.12195,0 0.18293,0.04878 0.24391,0.134151 0.061,0.08537 0.12196,0.268303 0.18293,0.554898 l 0.061,0.451235 c 0.061,0.134151 0.12195,0.262205 0.30489,0.371965 0.12195,0.10976 0.24391,0.201226 0.42684,0.274399 0.12196,0.06098 0.30489,0.146347 0.42685,0.256107 0.12195,0.121956 0.18293,0.250009 0.18293,0.38416 0,0.207325 -0.061,0.359769 -0.18293,0.469529 -0.12196,0.121956 -0.24391,0.207324 -0.42685,0.262204 -0.12195,0.06098 -0.36586,0.182933 -0.73173,0.354891 -0.30489,0.180494 -0.60978,0.399404 -0.91467,0.65856 l -0.60978,0.51892 c -0.24391,0.237814 -0.48782,0.408552 -0.67075,0.512214 -0.18293,0.10976 -0.42685,0.16464 -0.67076,0.16464 l -0.42684,-0.04878 c -0.48782,-0.128054 -0.79271,-0.371965 -0.97564,-0.743929 -0.97565,-0.118297 -1.76836,-0.176836 -2.25618,-0.176836"
       id="path1-1"
       style="stroke-width:0.0609776" />
    <path
       d="m 162.40022,49.535969 c 0,0.06098 -0.061,0.06098 -0.061,0.06098 h -0.061 c -0.061,0 -0.061,-0.06098 -0.12195,-0.121956 0,0 -0.061,-0.06098 -0.061,-0.121955 0,-0.06098 0,-0.06098 0.061,-0.06098 l 0.12195,0.06098 c 0.061,0.06098 0.12196,0.121955 0.12196,0.182933 m -1.0976,-0.609778 c 0,-0.304889 -0.12196,-0.487822 -0.30489,-0.487822 0,0 0,0.06098 -0.061,0.06098 v 0.121955 h 0.18293 c 0,0.121956 0.061,0.182934 0.061,0.304889 h 0.12196 m 2.13422,-0.304889 c 0.12196,0 0.18293,0.121956 0.24391,0.304889 h 0.12196 c -0.061,-0.06098 -0.061,-0.121955 -0.061,-0.182933 0,-0.06098 0,-0.121956 -0.061,-0.182933 -0.061,-0.06098 -0.12195,-0.121956 -0.18293,-0.121956 0,0 -0.061,0.06098 -0.12196,0.06098 0,0.06098 0.061,0.06098 0.061,0.121955 m -1.82933,0.975645 c -0.061,0 -0.061,0 -0.061,-0.06098 0,-0.06098 0,-0.121956 0.061,-0.182933 0.12195,0 0.18293,-0.06098 0.18293,-0.06098 0.061,0 0.061,0.06098 0.061,0.06098 0,0.06098 -0.061,0.121955 -0.18294,0.243911 h -0.061 m -0.67076,-0.06098 c -0.24391,-0.121956 -0.30489,-0.304889 -0.30489,-0.609778 0,-0.182933 0,-0.304889 0.12196,-0.426844 0.061,-0.121955 0.18293,-0.182933 0.30489,-0.182933 0.12195,0 0.18293,0.06098 0.30489,0.182933 0.061,0.182933 0.12195,0.365866 0.12195,0.5488 v 0.121955 h 0.061 v -0.06098 c 0.061,0 0.061,-0.121956 0.061,-0.365867 0,-0.182933 0,-0.365866 -0.12196,-0.5488 -0.12195,-0.182933 -0.24391,-0.304889 -0.48782,-0.304889 -0.18293,0 -0.36587,0.121956 -0.42684,0.304889 -0.12196,0.243911 -0.14635,0.426844 -0.14635,0.731733 0,0.243911 0.0854,0.487822 0.32928,0.731734 0.061,-0.06098 0.12195,-0.06098 0.18293,-0.121956 m 7.62222,8.597865 c 0.061,0 0.061,-0.02439 0.061,-0.07927 0,-0.134151 -0.061,-0.292693 -0.24391,-0.469528 -0.18293,-0.182933 -0.48782,-0.298791 -0.85369,-0.347574 -0.061,-0.0061 -0.12196,-0.0061 -0.12196,-0.0061 -0.061,-0.0122 -0.061,-0.0122 -0.12195,-0.0122 -0.061,-0.0061 -0.18293,-0.01829 -0.24391,-0.03049 0.18293,-0.567093 0.24391,-1.067111 0.24391,-1.506151 0,-0.609778 -0.12195,-1.036622 -0.36587,-1.402488 -0.24391,-0.365867 -0.48782,-0.5488 -0.79271,-0.609778 -0.061,0.06098 -0.061,0.06098 -0.061,0.121956 0.30488,0.121955 0.60977,0.365866 0.7927,0.731733 0.18294,0.426844 0.24392,0.792711 0.24392,1.219555 0,0.341476 -0.061,0.847591 -0.30489,1.493955 -0.24391,0.09756 -0.48783,0.323182 -0.67076,0.676854 0,0.05488 0,0.08537 0.061,0.08537 0,0 0.061,-0.05488 0.12195,-0.158542 0.12196,-0.103662 0.18294,-0.207325 0.3049,-0.310986 0.18293,-0.103663 0.30488,-0.158543 0.48782,-0.158543 0.30488,0 0.60978,0.04268 0.79271,0.128054 0.24391,0.07927 0.36586,0.16464 0.42684,0.262204 0.061,0.09147 0.12196,0.176835 0.18293,0.256107 0,0.07927 0.061,0.115858 0.061,0.115858 m -5.60995,-8.841776 c -0.061,-0.06098 -0.061,-0.182933 -0.061,-0.304889 0,-0.243911 0,-0.365867 0.12196,-0.5488 0.12195,-0.121955 0.24391,-0.182933 0.36586,-0.182933 0.18294,0 0.30489,0.121956 0.42685,0.243911 0.061,0.182933 0.12195,0.304889 0.12195,0.487822 0,0.304889 -0.12195,0.487822 -0.36586,0.5488 0,0 0.061,0.06098 0.12195,0.06098 0.12196,0 0.18294,0.06098 0.30489,0.121955 0.061,-0.365866 0.12196,-0.609777 0.12196,-0.914666 0,-0.365867 -0.061,-0.609778 -0.18294,-0.792711 -0.18293,-0.182933 -0.36586,-0.243911 -0.60977,-0.243911 -0.18294,0 -0.36587,0.06098 -0.5488,0.182933 -0.12196,0.182933 -0.18294,0.304889 -0.18294,0.487822 0,0.304889 0.061,0.5488 0.18294,0.792711 0.061,0 0.12195,0.06098 0.18293,0.06098 m 0.73173,0.975644 c -0.79271,0.5488 -1.40249,0.792711 -1.89031,0.792711 -0.42684,0 -0.85369,-0.182933 -1.21955,-0.487822 0.061,0.121955 0.12195,0.243911 0.18293,0.304889 l 0.36586,0.365866 c 0.24392,0.243911 0.5488,0.365867 0.85369,0.365867 0.42685,0 0.91467,-0.243911 1.52445,-0.670755 l 0.5488,-0.365867 c 0.12195,-0.121956 0.24391,-0.243911 0.24391,-0.426844 0,-0.06098 0,-0.121956 -0.061,-0.121956 -0.061,-0.121955 -0.36586,-0.304889 -0.97564,-0.487822 -0.5488,-0.243911 -0.97565,-0.365867 -1.21956,-0.365867 -0.18293,0 -0.48782,0.121956 -0.91467,0.365867 -0.36586,0.243911 -0.60977,0.487822 -0.60977,0.731733 0,0 0.061,0.06098 0.12195,0.182933 0.36587,0.304889 0.73174,0.487823 1.0976,0.487823 0.48782,0 1.0976,-0.243912 1.89031,-0.853689 v 0.121956 c 0.061,0 0.061,0.06098 0.061,0.06098 m 1.40249,12.317508 c 0.24391,0.458553 0.67075,0.689049 1.15858,0.689049 0.12195,0 0.24391,-0.01829 0.36587,-0.05488 0.12195,-0.02439 0.2439,-0.06708 0.30488,-0.115858 0.061,-0.04268 0.12196,-0.08537 0.18294,-0.134151 0.12195,-0.04268 0.12195,-0.07317 0.18293,-0.103662 l 1.03662,-0.896373 c 0.24391,-0.194519 0.48782,-0.364647 0.79271,-0.512213 0.24391,-0.146347 0.48783,-0.243911 0.60978,-0.298791 0.18293,-0.04878 0.30489,-0.121956 0.42685,-0.21952 0.061,-0.09147 0.12195,-0.207325 0.12195,-0.353672 0,-0.176835 -0.12195,-0.310986 -0.24391,-0.408551 -0.12196,-0.09756 -0.24391,-0.164639 -0.36587,-0.207324 -0.12195,-0.04268 -0.24391,-0.140249 -0.42684,-0.304889 -0.12196,-0.158542 -0.24391,-0.378062 -0.30489,-0.664657 l -0.061,-0.353671 c -0.061,-0.16464 -0.061,-0.286596 -0.12195,-0.353671 0,-0.01829 0,-0.02439 -0.061,-0.02439 -0.061,0 -0.18294,0.05488 -0.24391,0.158543 -0.12196,0.103662 -0.24391,0.21952 -0.36587,0.341475 -0.061,0.121956 -0.24391,0.231716 -0.36586,0.335378 -0.18294,0.103662 -0.36587,0.158542 -0.48783,0.158542 -0.48782,0 -0.73173,-0.134151 -0.91467,-0.396355 -0.12195,-0.195129 -0.18293,-0.420747 -0.2439,-0.676853 -0.12196,-0.103663 -0.18294,-0.158543 -0.3049,-0.158543 -0.30488,0 -0.42684,0.317085 -0.42684,0.957351 v 1.896409 c 0,0.05488 -0.061,0.176835 -0.061,0.365866 -0.061,0.189031 -0.061,0.403673 -0.061,0.646364 l -0.12195,0.676854 v 0.01036 m -8.84178,-0.322572 c 0.5671,0.08293 1.21956,0.260375 1.95739,0.531116 0.73783,0.268302 1.18907,0.408551 1.3537,0.408551 0.42685,0 0.78052,-0.189031 1.07321,-0.554288 0.061,-0.118297 0.061,-0.257326 0.061,-0.417088 0,-0.57624 -0.34757,-1.304924 -1.04272,-2.189101 l -0.41464,-0.554898 c -0.0854,-0.115857 -0.18904,-0.292693 -0.32319,-0.530506 -0.12805,-0.237814 -0.24391,-0.420747 -0.33538,-0.5488 -0.0793,-0.140249 -0.20732,-0.280498 -0.37196,-0.420747 -0.15854,-0.140249 -0.34147,-0.231715 -0.5427,-0.280497 -0.25611,0.04878 -0.43294,0.13415 -0.51831,0.250008 -0.0854,0.115858 -0.13415,0.243911 -0.14635,0.378063 -0.0183,0.128053 -0.0549,0.213422 -0.11586,0.256106 -0.061,0.03659 -0.16464,0.06708 -0.30488,0.09756 -0.0305,0 -0.0854,0 -0.16465,0.0061 h -0.16464 c -0.32318,0 -0.5427,0.03659 -0.65856,0.09756 -0.15244,0.176835 -0.23171,0.378062 -0.23171,0.591484 0,0.09756 0.0244,0.262205 0.0732,0.49392 0.0488,0.225618 0.0732,0.408551 0.0732,0.536604 0,0.250009 -0.0732,0.500018 -0.22561,0.750027 -0.15244,0.262204 -0.23172,0.457333 -0.23172,0.596362 0.061,0.236594 0.46343,0.403063 1.20126,0.500628 m 2.03056,-5.542879 c 0,-0.420746 0.10976,-0.884177 0.33538,-1.432977 0.21952,-0.5488 0.43904,-0.914667 0.65246,-1.158578 -0.0122,-0.06098 -0.0427,-0.06098 -0.0915,-0.06098 l -0.061,-0.06098 c -0.17684,0.182933 -0.39026,0.609777 -0.64637,1.219555 -0.2561,0.5488 -0.39025,1.054915 -0.39025,1.42688 0,0.274399 0.0671,0.512213 0.18903,0.719537 0.13415,0.201227 0.45733,0.49392 0.96955,0.865884 l 0.64636,0.420747 c 0.68905,0.597582 1.05492,1.012231 1.05492,1.256142 0,0.128053 -0.061,0.256106 -0.24392,0.396355 -0.12195,0.146347 -0.28659,0.21952 -0.42684,0.21952 -0.0122,0 -0.0183,0.0122 -0.0183,0.04268 0,0.0061 0.061,0.128053 0.18902,0.365866 0.25611,0.347574 0.80491,0.518311 1.53665,0.518311 1.34151,0 2.37813,-0.5488 3.17084,-1.646399 0,-0.304889 0,-0.49392 -0.061,-0.573191 v -0.225615 c 0,-0.396356 0.061,-0.695147 0.18293,-0.890275 0.12196,-0.195129 0.24392,-0.286596 0.42685,-0.286596 0.12195,0 0.24391,0.04268 0.36587,0.134151 0.061,-0.469528 0.061,-0.87808 0.061,-1.243946 0,-0.554898 0,-1.012231 -0.12196,-1.439076 -0.061,-0.365866 -0.18294,-0.670755 -0.30489,-0.914666 l -0.36587,-0.5488 c -0.12195,-0.182933 -0.18293,-0.365866 -0.30489,-0.5488 -0.061,-0.243911 -0.12195,-0.426844 -0.12195,-0.731733 -0.18294,-0.304889 -0.30489,-0.609777 -0.48782,-0.914666 -0.12196,-0.304889 -0.24391,-0.609778 -0.36587,-0.853689 l -0.5488,0.426845 c -0.60978,0.426844 -1.0976,0.609777 -1.52444,0.609777 -0.36587,0 -0.67076,-0.06098 -0.85369,-0.304889 l -0.36587,-0.304888 c 0,0.182933 -0.061,0.426844 -0.18293,0.670755 l -0.38416,0.731733 c -0.17074,0.426844 -0.26221,0.670755 -0.2805,0.853689 -0.0244,0.121955 -0.0427,0.243911 -0.0549,0.243911 l -0.45733,0.914666 c -0.49392,0.914667 -0.74393,1.762257 -0.74393,2.463502 0,0.140248 0.0122,0.286595 0.0366,0.432942 -0.2744,-0.189031 -0.40856,-0.451236 -0.40856,-0.792711 m 4.36601,5.768496 c -0.79271,0 -1.40249,0.107321 -1.82933,0.320134 v -0.01829 c -0.30489,0.365867 -0.64637,0.554897 -1.12199,0.554897 -0.29879,0 -0.76832,-0.115857 -1.40249,-0.347573 -0.64026,-0.21952 -1.20736,-0.387819 -1.70128,-0.498798 -0.0488,-0.01402 -0.15854,-0.03476 -0.33538,-0.06281 -0.17073,-0.02744 -0.32928,-0.05549 -0.46953,-0.08354 -0.12805,-0.02744 -0.2744,-0.0689 -0.43294,-0.125004 -0.15244,-0.04817 -0.2744,-0.11098 -0.36587,-0.187202 -0.0841,-0.07683 -0.12562,-0.163422 -0.12562,-0.260376 0,-0.09756 0.0207,-0.201837 0.0622,-0.312816 0.039,-0.06708 0.0817,-0.134151 0.1244,-0.195129 0.0427,-0.06708 0.0793,-0.128053 0.10366,-0.189031 0.0366,-0.05488 0.061,-0.10976 0.0854,-0.170738 0.0244,-0.05488 0.0488,-0.10976 0.061,-0.176835 0.0122,-0.06098 0.0244,-0.121956 0.0244,-0.182934 0,-0.06098 -0.0244,-0.243911 -0.0732,-0.567093 -0.0488,-0.317084 -0.0732,-0.518311 -0.0732,-0.60368 0,-0.268302 0.061,-0.481724 0.19513,-0.634168 0.13415,-0.152445 0.2622,-0.231716 0.39635,-0.231716 h 0.70125 c 0.0549,0 0.14025,-0.03049 0.2683,-0.103662 0.0427,-0.09756 0.0793,-0.176836 0.10366,-0.250009 0.0305,-0.07317 0.0427,-0.128053 0.0549,-0.152444 0.0122,-0.03659 0.0244,-0.07317 0.0366,-0.103662 0.0244,-0.04268 0.0549,-0.09147 0.0976,-0.140249 -0.0488,-0.06098 -0.0732,-0.140249 -0.0732,-0.237814 0,-0.06708 0,-0.128053 0.0122,-0.164639 0,-0.219521 0.10366,-0.530507 0.32318,-0.939058 l 0.21342,-0.38416 c 0.17684,-0.32928 0.31099,-0.573191 0.40855,-0.817102 0.10367,-0.243911 0.21343,-0.609778 0.33538,-1.0976 0.0976,-0.426844 0.32928,-0.853688 0.69515,-1.280533 l 0.45734,-0.548801 c 0.31709,-0.365867 0.52441,-0.670755 0.64027,-0.914667 0.11585,-0.243911 0.17683,-0.548799 0.17683,-0.792711 0,-0.121955 -0.0305,-0.487822 -0.0976,-1.097599 -0.061,-0.609778 -0.0915,-1.219556 -0.0915,-1.768355 0,-0.426845 0.0366,-0.731733 0.11586,-1.036622 0.0793,-0.304889 0.21952,-0.609778 0.42684,-0.853689 0.18294,-0.243911 0.42685,-0.487822 0.79272,-0.609778 0.36586,-0.121955 0.79271,-0.182933 1.28053,-0.182933 0.18293,0 0.36586,0 0.5488,0.06098 0.18293,0 0.42684,0.06098 0.73173,0.182933 0.24391,0.121956 0.48783,0.243911 0.67076,0.426844 0.24391,0.182934 0.42684,0.487823 0.60977,0.792711 0.12196,0.365867 0.24392,0.731734 0.30489,1.219556 0.061,0.304888 0.061,0.609777 0.12196,1.036622 0,0.365866 0.061,0.609777 0.061,0.792711 0.061,0.182933 0.061,0.426844 0.12195,0.731733 0.061,0.243911 0.12196,0.487822 0.24391,0.670755 0.12196,0.243911 0.24391,0.487822 0.42685,0.731733 0.18293,0.304889 0.42684,0.609778 0.67075,0.975644 0.5488,0.609778 0.97565,1.280533 1.21956,1.951289 0.30489,0.609777 0.48782,1.402488 0.48782,2.250079 0,0.420747 -0.061,0.829298 -0.18293,1.225653 0.12195,0 0.18293,0.04878 0.24391,0.134151 0.061,0.08537 0.12196,0.268303 0.18293,0.554898 l 0.061,0.451235 c 0.061,0.134151 0.12195,0.262205 0.30489,0.371965 0.12195,0.10976 0.24391,0.201226 0.42684,0.274399 0.12196,0.06098 0.30489,0.146347 0.42685,0.256107 0.12195,0.121956 0.18293,0.250009 0.18293,0.38416 0,0.207325 -0.061,0.359769 -0.18293,0.469529 -0.12196,0.121956 -0.24391,0.207324 -0.42685,0.262204 -0.12195,0.06098 -0.36586,0.182933 -0.73173,0.354891 -0.30489,0.180494 -0.60978,0.399404 -0.91467,0.65856 l -0.60978,0.51892 c -0.24391,0.237814 -0.48782,0.408552 -0.67075,0.512214 -0.18293,0.10976 -0.42685,0.16464 -0.67076,0.16464 l -0.42684,-0.04878 c -0.48782,-0.128054 -0.79271,-0.371965 -0.97564,-0.743929 -0.97565,-0.118297 -1.76836,-0.176836 -2.25618,-0.176836"
       id="path4"
       style="stroke-width:0.0609776" />
  </g>
</svg>
